<?xml version="1.0" standalone="no"?>
<!DOCTYPE svg PUBLIC "-//W3C//DTD SVG 20010904//EN"
 "http://www.w3.org/TR/2001/REC-SVG-20010904/DTD/svg10.dtd">
<svg version="1.0" xmlns="http://www.w3.org/2000/svg"
 width="640.000000pt" height="380.000000pt" viewBox="0 0 640.000000 380.000000"
 preserveAspectRatio="xMidYMid meet">

<g transform="translate(0.000000,380.000000) scale(0.100000,-0.100000)"
fill="#000000" stroke="none">
<path d="M1204 3786 c-8 -20 -15 -13 75 -71 121 -78 419 -211 663 -295 37 -13
66 -25 64 -27 -1 -2 -74 15 -162 38 -256 65 -570 111 -584 85 -3 -6 24 -27 60
-48 116 -67 302 -139 495 -190 91 -24 100 -28 55 -24 -235 22 -462 15 -468
-15 -5 -28 285 -107 548 -149 74 -12 150 -24 168 -28 19 -4 -71 -7 -200 -7
-298 -1 -414 -21 -339 -59 84 -44 346 -85 701 -109 30 -2 22 -4 -25 -5 -214
-6 -465 -38 -480 -62 -9 -14 25 -26 120 -43 112 -20 262 -36 425 -45 l125 -7
-144 -8 c-262 -14 -326 -30 -300 -78 12 -23 8 -24 -191 -39 -664 -48 -1261
-147 -1631 -270 -187 -63 -212 -80 -142 -99 74 -21 162 -10 672 84 450 82 784
140 1011 175 151 24 332 40 430 39 144 -1 108 -9 -265 -59 -605 -81 -1012
-141 -1185 -175 -358 -71 -529 -140 -393 -161 79 -12 187 3 508 70 732 152
953 188 1269 206 195 11 257 9 154 -4 -153 -20 -929 -142 -1098 -173 -311 -56
-560 -125 -560 -154 0 -19 53 -29 146 -29 73 0 123 7 216 30 181 46 426 96
683 140 240 41 728 111 767 109 13 0 -114 -25 -282 -55 -705 -126 -1114 -221
-1127 -261 -6 -17 76 -27 166 -20 42 4 129 18 193 32 151 32 732 143 998 190
113 20 216 39 230 42 14 3 22 3 19 -1 -7 -7 -379 -94 -734 -172 -240 -52 -375
-96 -375 -123 0 -7 37 -11 102 -11 85 0 131 7 287 44 206 50 614 136 634 135
6 0 -44 -15 -113 -34 -215 -57 -382 -128 -365 -155 4 -6 39 -10 80 -10 63 0
115 12 361 85 158 46 289 83 291 81 2 -2 -72 -29 -164 -60 -280 -97 -428 -169
-421 -205 9 -40 134 -6 418 111 192 80 195 80 55 6 -143 -76 -201 -114 -244
-163 -36 -41 -36 -61 0 -57 25 2 318 144 427 206 76 44 81 40 10 -5 -125 -80
-278 -223 -278 -260 0 -31 113 14 194 76 58 44 174 127 196 140 8 5 -19 -25
-61 -66 -77 -75 -152 -176 -143 -191 9 -15 164 91 293 201 l65 55 -52 -64
c-58 -72 -92 -134 -92 -169 0 -18 4 -21 23 -16 12 4 39 20 60 37 l38 30 -41
-83 c-63 -124 -88 -239 -100 -448 -14 -255 -26 -291 -155 -481 -66 -97 -100
-166 -88 -180 2 -2 16 11 31 30 15 19 42 51 60 70 l33 35 -31 -55 c-67 -116
-104 -205 -105 -247 -1 -87 18 -70 101 91 43 85 80 153 81 152 2 -1 -13 -42
-33 -92 -50 -127 -93 -275 -100 -347 -7 -70 11 -140 37 -145 26 -5 47 54 83
235 29 149 93 379 102 370 2 -2 -6 -50 -18 -108 -26 -130 -31 -350 -9 -389
l15 -25 13 44 c14 50 62 328 64 374 1 18 6 -8 10 -58 10 -107 28 -190 39 -178
17 17 31 155 37 346 l6 199 201 98 c215 105 370 167 561 225 142 42 246 89
329 149 200 143 319 389 374 776 l18 123 43 38 c51 45 135 79 195 79 68 0 188
26 258 55 35 15 75 29 89 32 37 7 312 -41 497 -87 189 -46 330 -93 489 -160
91 -39 130 -50 170 -50 29 0 53 3 53 8 0 14 -165 111 -294 173 -70 33 -208 87
-305 119 -147 49 -243 73 -526 135 -12 3 -45 40 -79 90 -123 180 -281 318
-425 367 -55 19 -87 23 -187 23 l-121 0 -88 -44 c-73 -36 -106 -61 -181 -135
-50 -50 -125 -138 -168 -196 -116 -160 -123 -167 -151 -174 -36 -9 -103 11
-129 38 -11 13 -45 71 -74 129 -43 87 -62 114 -110 154 -194 168 -404 291
-737 436 -82 35 -297 130 -476 210 -600 268 -848 356 -1051 373 -67 6 -78 5
-84 -10z m1343 -1652 c-3 -3 -12 -4 -19 -1 -8 3 -5 6 6 6 11 1 17 -2 13 -5z"/>
</g>
</svg>
