<?xml version="1.0" standalone="no"?>
<!DOCTYPE svg PUBLIC "-//W3C//DTD SVG 20010904//EN"
 "http://www.w3.org/TR/2001/REC-SVG-20010904/DTD/svg10.dtd">
<svg version="1.0" xmlns="http://www.w3.org/2000/svg"
 width="640.000000pt" height="373.000000pt" viewBox="0 0 640.000000 373.000000"
 preserveAspectRatio="xMidYMid meet">

<g transform="translate(0.000000,373.000000) scale(0.100000,-0.100000)"
fill="#000000" stroke="none">
<path d="M3360 3714 c-287 -39 -540 -159 -703 -333 -44 -46 -97 -138 -97 -168
0 -7 -29 -14 -77 -18 -499 -42 -898 -185 -1252 -449 -260 -193 -484 -463 -633
-761 -33 -66 -62 -121 -63 -123 -2 -2 -28 16 -58 41 -73 59 -134 82 -223 82
-61 0 -77 -4 -119 -30 -67 -41 -111 -101 -126 -172 -17 -82 6 -189 67 -313 40
-80 62 -110 139 -187 l92 -92 -23 -22 c-38 -35 -67 -116 -66 -186 0 -155 124
-276 310 -303 87 -12 106 -21 197 -94 142 -113 508 -310 725 -390 230 -84 458
-141 697 -173 193 -26 543 -23 730 6 285 43 535 119 781 237 l133 63 64 -44
c155 -105 416 -223 516 -232 142 -13 241 113 242 311 0 152 -96 264 -267 307
-25 6 -46 13 -46 16 0 2 26 28 58 57 31 30 86 88 122 130 35 42 67 76 70 76 3
0 22 -35 42 -78 60 -126 136 -230 248 -342 182 -181 376 -269 591 -270 154 0
262 57 316 167 24 50 27 68 26 143 -1 143 -40 227 -201 428 -112 141 -126 165
-112 192 6 10 51 47 100 81 467 320 792 826 836 1306 7 79 -7 177 -37 258 -61
162 -244 246 -475 217 -267 -34 -534 -197 -913 -558 -107 -101 -311 -328 -386
-427 -27 -36 -52 -66 -55 -66 -3 0 -30 41 -60 92 -78 130 -183 289 -251 379
-33 42 -59 79 -59 81 0 2 24 40 53 83 100 149 147 303 147 477 0 243 -102 431
-283 521 -172 85 -450 116 -717 80z m420 -136 c65 -28 100 -65 100 -106 0 -44
-11 -64 -80 -142 l-58 -65 107 52 c217 108 279 95 303 -63 12 -82 1 -137 -38
-184 l-26 -30 32 0 c68 0 103 -86 65 -159 -17 -34 -100 -91 -129 -90 -15 0
-16 2 -6 6 23 8 80 65 96 95 22 41 18 75 -11 94 -22 14 -34 15 -80 6 -31 -6
-87 -25 -125 -41 -39 -16 -70 -25 -70 -21 0 14 83 68 152 99 108 49 136 100
116 215 -21 123 -47 141 -157 107 -66 -20 -195 -81 -216 -103 -5 -6 5 -3 24 7
18 9 31 12 27 7 -3 -5 4 -33 16 -63 27 -67 29 -192 6 -257 -16 -42 -16 -43 8
-59 14 -9 23 -18 20 -20 -8 -9 -65 40 -59 50 3 6 1 7 -5 3 -6 -4 -29 4 -50 18
-167 105 -398 187 -667 237 -99 19 -99 19 -30 15 39 -3 64 -3 58 0 -26 11 69
158 119 185 17 9 18 7 13 -18 -3 -15 9 12 26 61 26 72 29 90 18 97 -8 5 -18 8
-24 8 -5 0 -4 -3 3 -6 24 -9 12 -23 -21 -23 -52 0 -146 -27 -222 -65 -70 -34
-85 -45 -184 -139 -52 -50 -53 -50 -47 -21 20 86 96 180 184 228 46 25 221 67
280 67 36 0 82 -34 82 -61 0 -11 -6 -34 -13 -52 -12 -29 -7 -25 47 29 122 121
281 160 416 102z m-822 -385 c-10 -2 -26 -2 -35 0 -10 3 -2 5 17 5 19 0 27 -2
18 -5z m-230 -60 c-43 -2 -113 -2 -155 0 -43 1 -8 3 77 3 85 0 120 -2 78 -3z
m-290 -10 c-10 -2 -26 -2 -35 0 -10 3 -2 5 17 5 19 0 27 -2 18 -5z m460 0
c-16 -2 -40 -2 -55 0 -16 2 -3 4 27 4 30 0 43 -2 28 -4z m-555 -10 c-7 -2 -21
-2 -30 0 -10 3 -4 5 12 5 17 0 24 -2 18 -5z m645 0 c-10 -2 -28 -2 -40 0 -13
2 -5 4 17 4 22 1 32 -1 23 -4z m-721 -9 c-3 -3 -12 -4 -19 -1 -8 3 -5 6 6 6
11 1 17 -2 13 -5z m828 -4 c42 -11 1 -11 -50 -1 -34 7 -35 9 -10 9 17 0 44 -4
60 -8z m-888 -6 c-3 -3 -12 -4 -19 -1 -8 3 -5 6 6 6 11 1 17 -2 13 -5z m568
-4 c231 -22 441 -81 643 -182 67 -33 122 -64 122 -68 0 -4 -44 8 -97 27 -481
168 -1036 193 -1550 68 -54 -13 -100 -22 -102 -20 -6 7 108 54 215 90 243 81
501 110 769 85z m476 -24 c52 -13 105 -29 119 -35 l25 -12 -25 6 c-97 23 -242
64 -229 64 9 1 59 -10 110 -23z m226 -71 c304 -115 559 -344 818 -735 82 -125
238 -383 226 -376 -5 4 -51 75 -102 159 -316 522 -564 778 -886 916 -54 23
-107 46 -118 51 -44 19 -1 8 62 -15z m-280 -71 c-3 -3 -12 -4 -19 -1 -8 3 -5
6 6 6 11 1 17 -2 13 -5z m2901 -10 c106 -44 150 -149 103 -249 -39 -84 -117
-137 -435 -296 -98 -49 -176 -89 -172 -89 4 0 34 9 68 21 81 27 224 56 321 64
92 9 134 -4 144 -43 14 -59 -70 -303 -125 -364 -56 -62 -150 -102 -357 -152
l-100 -24 70 -6 c94 -9 157 -34 169 -67 18 -51 -1 -96 -65 -160 -95 -93 -272
-168 -397 -169 l-33 0 36 -31 c60 -53 50 -95 -52 -200 l-54 -55 53 -25 c83
-38 186 -147 237 -250 86 -176 81 -322 -12 -304 -128 26 -268 95 -350 173
l-39 37 40 -75 c47 -88 57 -126 42 -164 -10 -27 -8 -28 54 -56 35 -16 95 -37
132 -47 l69 -17 -40 -7 c-22 -4 -69 -3 -105 2 -145 18 -254 73 -365 184 -92
91 -146 187 -170 301 -26 121 -15 227 12 115 13 -56 78 -191 124 -258 44 -64
135 -153 199 -196 53 -36 55 -37 64 -17 15 33 -17 116 -91 237 -78 128 -133
239 -133 268 0 13 7 5 20 -22 81 -178 283 -347 477 -397 89 -23 87 -25 79 44
-20 177 -133 337 -295 418 l-76 39 70 65 c81 76 115 129 97 151 -7 7 -95 55
-198 106 -102 51 -184 94 -182 96 2 2 44 -8 93 -21 49 -14 99 -26 110 -27 11
0 26 -5 33 -10 6 -5 51 -12 100 -14 137 -8 268 33 381 120 84 65 115 133 72
156 -32 18 -239 32 -404 29 -86 -2 -157 -1 -157 2 0 8 163 48 366 90 207 43
327 77 389 113 63 36 98 92 145 235 57 171 60 167 -110 159 -139 -6 -252 -31
-440 -95 -104 -36 -149 -53 -275 -107 -79 -34 -15 5 260 157 397 220 554 314
597 355 128 124 18 258 -174 213 -136 -33 -352 -136 -528 -253 -186 -123 -446
-362 -588 -540 -85 -107 -79 -84 9 33 270 360 567 610 898 755 184 81 308 103
389 69z m-2648 -113 c47 -10 117 -31 155 -46 39 -15 79 -27 90 -28 23 -1 174
-149 257 -252 189 -236 424 -648 468 -819 17 -67 17 -81 5 -177 -20 -149 -36
-253 -40 -258 -2 -2 -1 38 2 88 5 71 2 100 -11 134 -29 76 -90 82 -140 14 -15
-20 -21 -47 -24 -97 -4 -57 0 -77 21 -123 40 -87 96 -110 127 -52 19 35 24 24
6 -11 -8 -16 -33 -69 -56 -119 -59 -128 -139 -243 -242 -348 -48 -50 -88 -94
-88 -98 0 -16 -70 -64 -140 -96 -41 -19 -88 -40 -105 -48 -519 -243 -775 -319
-1080 -320 -154 0 -309 17 -321 36 -3 5 -2 9 1 9 3 0 70 7 148 15 315 34 618
82 792 126 106 26 338 99 333 104 -2 2 -46 -9 -96 -26 -220 -70 -265 -78 -406
-68 -76 5 -170 18 -230 33 -55 14 -110 27 -121 29 -11 3 14 5 56 6 105 1 202
25 302 74 l85 42 42 -18 c23 -10 66 -21 96 -24 189 -20 276 180 128 294 -20
15 -32 29 -26 31 7 2 8 11 2 27 -5 12 -7 25 -4 27 6 7 -17 69 -36 98 -30 44
-30 78 0 149 81 191 96 412 36 516 -110 185 -364 190 -672 13 -91 -52 -233
-157 -269 -199 l-20 -23 21 14 c12 8 56 39 99 69 102 71 277 154 393 187 79
22 108 26 182 22 114 -5 170 -36 212 -117 24 -47 28 -64 28 -141 0 -250 -123
-504 -319 -660 -81 -65 -119 -80 -200 -80 -160 1 -327 129 -391 300 -26 70
-40 74 -17 5 15 -43 15 -50 -5 -123 -29 -108 -30 -241 -2 -302 24 -53 77 -106
137 -137 23 -12 38 -22 34 -23 -20 -1 -88 43 -128 82 -24 24 -61 56 -81 71
l-38 28 -1 -28 c-1 -15 -5 13 -10 64 -9 105 -27 154 -62 177 -45 30 -102 -13
-125 -94 -6 -19 -11 -27 -11 -17 -1 10 5 33 13 51 10 24 11 37 4 44 -8 8 -29
-6 -72 -44 -34 -31 -74 -62 -91 -70 -17 -8 -22 -9 -11 -2 54 38 116 92 140
123 15 19 31 33 36 30 5 -3 12 0 16 6 4 8 3 9 -4 5 -18 -11 -15 -3 29 69 22
37 53 100 70 140 30 77 79 263 79 305 0 16 3 21 8 12 12 -18 41 83 55 187 9
74 8 102 -5 170 -19 92 -61 189 -107 241 l-31 35 15 -37 c29 -73 14 -51 -39
54 -30 59 -68 127 -86 153 -18 26 -29 49 -26 52 3 4 -1 17 -10 31 -15 22 -14
26 13 65 50 75 215 229 307 287 48 30 123 79 168 108 44 28 86 52 92 52 6 0
-13 -14 -43 -31 -100 -58 -210 -192 -247 -302 -10 -30 -18 -82 -18 -122 0 -85
25 -144 88 -206 47 -45 115 -92 101 -70 -7 12 3 13 57 7 52 -5 68 -3 78 9 8 9
29 15 57 15 24 0 57 7 73 15 35 18 282 28 273 11 -2 -6 4 0 16 14 50 62 88
226 77 340 -12 131 -80 215 -236 289 -69 32 -83 35 -167 36 -93 0 -100 13 -8
15 28 0 88 7 135 15 115 19 346 13 460 -14z m-883 -28 c-3 -10 -5 -4 -5 12 0
17 2 24 5 18 2 -7 2 -21 0 -30z m1146 -13 c26 -16 53 -29 59 -27 7 1 12 -4 13
-12 0 -8 6 -16 14 -19 9 -3 11 0 5 9 -7 12 -5 12 9 0 20 -16 23 -26 5 -15 -9
5 -9 2 1 -9 14 -18 36 -24 26 -7 -11 18 1 11 21 -12 19 -22 19 -23 -1 -8 -11
8 -4 -3 14 -23 19 -20 39 -37 45 -37 5 0 -1 11 -14 25 -13 14 -21 25 -19 25 2
0 38 -35 79 -77 41 -42 67 -71 58 -64 -10 8 -18 9 -18 4 0 -13 45 -55 52 -48
2 3 15 -7 29 -22 13 -15 16 -21 7 -14 -26 19 -22 -2 4 -25 14 -13 19 -14 14
-4 -4 8 7 -1 24 -20 30 -33 118 -158 134 -190 11 -23 -11 6 -83 109 -35 51
-66 90 -68 88 -2 -3 33 -55 77 -118 76 -106 104 -143 85 -110 -5 10 -4 12 4 7
6 -4 9 -11 6 -16 -8 -13 14 -52 25 -45 5 3 12 0 16 -6 5 -8 3 -9 -6 -4 -8 5
-11 3 -8 -6 3 -8 11 -13 17 -11 7 1 10 -2 7 -7 -3 -5 21 -60 53 -123 169 -322
181 -592 38 -861 -42 -80 -138 -209 -160 -216 -9 -3 -9 0 1 10 6 7 12 17 12
22 0 4 -6 5 -12 1 -8 -4 -10 -3 -5 2 5 5 14 9 19 9 6 0 13 6 16 14 3 9 0 11
-8 6 -9 -5 -11 -4 -6 4 4 6 11 9 16 6 12 -7 81 130 108 215 36 110 45 182 40
312 -4 105 -9 137 -36 217 -95 278 -398 747 -629 974 -44 43 -86 77 -93 75 -8
-2 -14 2 -15 9 0 7 -9 19 -20 27 -36 27 0 17 48 -14z m-2238 -27 c-225 -151
-402 -363 -544 -654 -69 -140 -137 -238 -147 -211 -3 6 -17 12 -31 12 -25 0
-26 1 -20 58 11 119 75 247 198 397 125 151 328 312 494 391 85 40 103 43 50
7z m1055 -46 c0 -2 -12 -14 -27 -28 l-28 -24 24 28 c23 25 31 32 31 24z m-107
-74 c-7 -2 -19 -2 -25 0 -7 3 -2 5 12 5 14 0 19 -2 13 -5z m-176 -25 c-3 -8
-6 -5 -6 6 -1 11 2 17 5 13 3 -3 4 -12 1 -19z m-639 -5 c-10 -2 -28 -2 -40 0
-13 2 -5 4 17 4 22 1 32 -1 23 -4z m-81 -79 c-3 -3 -12 -4 -19 -1 -8 3 -5 6 6
6 11 1 17 -2 13 -5z m116 -1 c-7 -2 -19 -2 -25 0 -7 3 -2 5 12 5 14 0 19 -2
13 -5z m298 -20 c13 -16 12 -17 -3 -4 -10 7 -18 15 -18 17 0 8 8 3 21 -13z
m173 -237 c118 -176 205 -394 226 -566 34 -262 -42 -610 -176 -811 -42 -63
-124 -148 -166 -170 -32 -17 -19 -3 28 30 25 19 65 58 89 89 42 53 43 56 28
79 -13 20 -14 26 -2 41 8 10 1 4 -16 -14 -16 -17 -48 -44 -70 -60 l-39 -29 48
68 c26 37 44 67 38 67 -13 0 -85 159 -111 245 -52 168 -67 417 -36 586 26 137
95 329 144 398 l20 27 -48 64 c-26 36 -71 92 -100 125 -37 42 -32 38 18 -14
39 -41 95 -111 125 -155z m-4 88 c28 -31 55 -66 61 -78 5 -11 -4 -3 -22 19
-18 22 -69 76 -113 120 -56 55 -65 66 -29 37 28 -24 75 -68 103 -98z m-435
-58 c88 -44 155 -112 198 -204 31 -64 32 -73 32 -187 -1 -112 -3 -127 -36
-220 -20 -55 -39 -109 -43 -120 -4 -11 4 0 18 25 30 54 34 46 6 -11 -12 -22
-25 -37 -30 -34 -5 3 -16 -8 -25 -25 -19 -37 -81 -107 -106 -120 -13 -8 -36 0
-92 30 -41 22 -106 48 -145 58 -75 19 -100 32 -63 32 56 0 145 70 182 143 33
63 37 177 9 250 -54 144 -208 207 -345 143 -209 -97 -202 -427 10 -521 l50
-23 -75 -3 c-55 -3 -79 0 -92 11 -31 25 -60 128 -65 225 -9 173 43 320 162
458 95 110 161 139 299 133 65 -4 91 -10 151 -40z m3165 -11 c-24 -25 -46 -45
-49 -45 -3 0 15 20 39 45 24 25 46 45 49 45 3 0 -15 -20 -39 -45z m-50 -58 c0
-2 -15 -16 -32 -33 l-33 -29 29 33 c28 30 36 37 36 29z m-110 -197 c-6 -11
-13 -20 -16 -20 -2 0 0 9 6 20 6 11 13 20 16 20 2 0 0 -9 -6 -20z m-280 -20
c6 -11 8 -20 6 -20 -3 0 -10 9 -16 20 -6 11 -8 20 -6 20 3 0 10 -9 16 -20z
m250 -30 c-6 -11 -13 -20 -16 -20 -2 0 0 9 6 20 6 11 13 20 16 20 2 0 0 -9 -6
-20z m-2703 -97 c-2 -21 -4 -4 -4 37 0 41 2 58 4 38 2 -21 2 -55 0 -75z m-434
39 c35 -31 5 -102 -43 -102 -22 0 -70 41 -70 60 0 22 22 51 43 59 25 9 44 5
70 -17z m-1158 -21 c38 -17 145 -122 145 -142 0 -6 -20 2 -43 16 -52 30 -87
31 -144 5 -92 -41 -127 -113 -98 -201 25 -75 91 -165 164 -226 60 -49 177
-116 241 -138 23 -7 22 -9 -15 -12 -89 -10 -200 32 -298 112 -68 55 -111 116
-138 192 -10 31 -31 81 -46 112 -39 80 -43 173 -11 221 51 74 156 101 243 61z
m1582 -93 c-3 -7 -5 -2 -5 12 0 14 2 19 5 13 2 -7 2 -19 0 -25z m-7 -38 c0 -5
-2 -10 -4 -10 -3 0 -8 5 -11 10 -3 6 -1 10 4 10 6 0 11 -4 11 -10z m-455 -18
c-3 -3 -11 0 -18 7 -9 10 -8 11 6 5 10 -3 15 -9 12 -12z m48 -9 c-7 -2 -19 -2
-25 0 -7 3 -2 5 12 5 14 0 19 -2 13 -5z m397 0 c-1 -5 -10 -24 -21 -43 -11
-19 -18 -27 -15 -17 4 11 9 30 12 43 6 22 25 35 24 17z m-343 -9 c-3 -3 -12
-4 -19 -1 -8 3 -5 6 6 6 11 1 17 -2 13 -5z m-267 -103 c38 -14 47 -20 30 -21
-20 0 -22 -2 -10 -10 11 -7 2 -10 -31 -10 -55 0 -96 26 -86 55 8 19 7 19 97
-14z m3137 -133 c-2 -13 -4 -5 -4 17 -1 22 1 32 4 23 2 -10 2 -28 0 -40z
m-3130 -44 c-3 -3 -12 -4 -19 -1 -8 3 -5 6 6 6 11 1 17 -2 13 -5z m60 -10 c-3
-3 -12 -4 -19 -1 -8 3 -5 6 6 6 11 1 17 -2 13 -5z m90 -20 c-3 -3 -12 -4 -19
-1 -8 3 -5 6 6 6 11 1 17 -2 13 -5z m2980 -56 c-2 -13 -4 -3 -4 22 0 25 2 35
4 23 2 -13 2 -33 0 -45z m-2882 27 c39 -17 21 -18 -25 0 -19 7 -28 14 -20 14
8 0 29 -6 45 -14z m145 -40 c14 -19 14 -19 -2 -6 -10 7 -18 18 -18 24 0 6 1 8
3 6 1 -2 9 -13 17 -24z m-11 -21 c14 -12 -19 -1 -35 12 -18 14 -18 14 6 3 14
-6 27 -13 29 -15z m2738 -36 c-3 -7 -5 -2 -5 12 0 14 2 19 5 13 2 -7 2 -19 0
-25z m200 -220 c-3 -7 -5 -2 -5 12 0 14 2 19 5 13 2 -7 2 -19 0 -25z m-113
-40 c-66 -88 -313 -333 -409 -405 -277 -209 -568 -356 -886 -448 -50 -14 -96
-24 -103 -21 -6 2 -3 5 7 5 38 2 348 111 463 163 335 152 661 398 885 669 45
54 84 99 86 99 2 0 -17 -28 -43 -62z m-4149 29 c8 -13 22 -48 31 -78 25 -84
42 -106 101 -130 l52 -21 -39 -33 c-42 -35 -62 -36 -118 -6 -34 18 -90 91
-106 139 -23 65 -20 99 9 127 30 31 50 32 70 2z m3985 -5 c0 -5 -7 -17 -15
-28 -14 -18 -14 -17 -4 9 12 27 19 34 19 19z m-990 -19 c0 -5 -10 -19 -21 -33
l-20 -25 16 33 c15 30 25 41 25 25z m1277 -60 c-3 -10 -5 -2 -5 17 0 19 2 27
5 18 2 -10 2 -26 0 -35z m-2109 -70 c18 -29 30 -53 27 -53 -8 0 -65 92 -65
104 0 12 0 12 38 -51z m2152 -63 c6 -11 8 -20 6 -20 -3 0 -10 9 -16 20 -6 11
-8 20 -6 20 3 0 10 -9 16 -20z m81 -127 c13 -16 12 -17 -3 -4 -17 13 -22 21
-14 21 2 0 10 -8 17 -17z m-2584 -45 c-3 -7 -5 -2 -5 12 0 14 2 19 5 13 2 -7
2 -19 0 -25z m2059 -31 l-48 -43 25 -11 c50 -23 116 -145 87 -163 -16 -10 32
-27 98 -35 49 -5 52 -5 52 17 0 46 -21 97 -51 122 -17 14 -64 36 -105 48 -86
25 -82 38 13 38 99 0 149 -28 184 -105 26 -56 25 -146 -1 -170 -10 -9 -28 -15
-38 -13 -17 5 -19 1 -15 -36 3 -31 -2 -54 -24 -96 -24 -48 -32 -55 -61 -58
-34 -3 -146 43 -215 89 l-32 21 29 -25 29 -25 -24 -4 c-24 -3 -24 -4 6 -21 17
-10 21 -16 10 -12 -26 8 -215 115 -215 121 0 3 4 2 10 -1 14 -9 102 116 149
211 34 67 52 91 108 137 80 66 100 76 29 14z m-1833 -184 c-7 -2 -19 -2 -25 0
-7 3 -2 5 12 5 14 0 19 -2 13 -5z m297 -23 c20 -6 21 -8 5 -8 -11 0 -29 3 -40
8 -25 11 1 11 35 0z m437 -106 c-3 -3 -12 -4 -19 -1 -8 3 -5 6 6 6 11 1 17 -2
13 -5z m-54 -11 c-7 -2 -19 -2 -25 0 -7 3 -2 5 12 5 14 0 19 -2 13 -5z m-110
-20 c-7 -2 -19 -2 -25 0 -7 3 -2 5 12 5 14 0 19 -2 13 -5z m-60 -10 c-7 -2
-21 -2 -30 0 -10 3 -4 5 12 5 17 0 24 -2 18 -5z m184 -139 c-3 -3 -12 -4 -19
-1 -8 3 -5 6 6 6 11 1 17 -2 13 -5z m-57 -14 c-14 -4 -36 -8 -50 -8 -22 0 -22
1 5 8 17 4 39 8 50 8 16 0 15 -2 -5 -8z m-105 -20 c-16 -4 -43 -8 -60 -8 -29
1 -29 1 5 8 19 4 46 7 60 8 22 0 22 -1 -5 -8z m-838 -6 c-3 -3 -12 -4 -19 -1
-8 3 -5 6 6 6 11 1 17 -2 13 -5z m86 -11 c-7 -2 -21 -2 -30 0 -10 3 -4 5 12 5
17 0 24 -2 18 -5z m640 0 c-13 -2 -33 -2 -45 0 -13 2 -3 4 22 4 25 0 35 -2 23
-4z m-535 -10 c-10 -2 -28 -2 -40 0 -13 2 -5 4 17 4 22 1 32 -1 23 -4z m440 0
c-16 -2 -40 -2 -55 0 -16 2 -3 4 27 4 30 0 43 -2 28 -4z m-165 -10 c-34 -2
-93 -2 -130 0 -37 2 -9 3 62 3 72 0 102 -1 68 -3z"/>
<path d="M3566 3559 c-67 -16 -151 -68 -207 -127 -32 -34 -37 -41 -12 -18 l41
39 84 -5 c88 -5 149 -26 221 -75 l38 -26 -28 -31 c-15 -17 5 0 44 38 82 79
101 113 83 146 -26 49 -173 82 -264 59z"/>
<path d="M3289 3353 c-13 -16 -12 -17 4 -4 16 13 21 21 13 21 -2 0 -10 -8 -17
-17z"/>
<path d="M3435 2558 c-31 -24 -55 -74 -55 -113 0 -36 36 -102 62 -116 75 -40
148 -25 174 37 18 43 12 82 -22 140 -42 74 -105 95 -159 52z"/>
<path d="M3744 2435 c-30 -40 -27 -61 12 -71 64 -16 103 30 70 82 -23 34 -50
30 -82 -11z"/>
<path d="M2255 2395 c-31 -30 -32 -65 -4 -122 49 -102 129 -102 129 -1 0 50
-22 108 -48 129 -32 25 -48 24 -77 -6z"/>
<path d="M3660 2274 c-77 -33 -87 -64 -42 -135 39 -60 55 -71 104 -73 83 -5
122 74 83 167 -24 58 -74 72 -145 41z"/>
<path d="M3346 2159 c-54 -43 -97 -184 -68 -224 4 -5 45 -12 92 -14 47 -2 90
-7 95 -11 6 -4 32 -12 60 -18 60 -13 65 -8 65 68 0 142 -155 269 -244 199z"/>
<path d="M3149 2073 c-13 -16 -12 -17 4 -4 16 13 21 21 13 21 -2 0 -10 -8 -17
-17z"/>
<path d="M3846 2045 c-32 -13 -74 -39 -93 -57 -68 -65 -106 -180 -89 -271 5
-29 10 -34 26 -30 11 3 20 0 20 -6 0 -6 11 -11 24 -11 13 0 26 -7 30 -15 3 -8
17 -15 31 -15 14 0 25 -4 25 -10 0 -5 17 -10 38 -10 67 0 114 -12 108 -26 -7
-18 8 -18 74 2 123 37 170 96 170 216 0 127 -33 197 -110 236 -63 32 -173 31
-254 -3z"/>
<path d="M2522 1938 c-30 -30 5 -155 50 -179 15 -8 19 -8 14 0 -6 10 17 15 61
14 18 -1 35 61 27 102 -8 47 -45 75 -98 75 -23 0 -47 -5 -54 -12z"/>
<path d="M2775 1896 c-29 -29 -49 -98 -40 -142 5 -30 8 -32 33 -24 30 9 171
24 215 22 32 -1 33 7 8 56 -49 96 -162 142 -216 88z"/>
<path d="M4035 1550 c-26 -10 -82 -67 -101 -102 -13 -24 -12 -28 18 -57 34
-33 86 -61 115 -61 69 0 105 114 58 186 -17 27 -63 44 -90 34z"/>
<path d="M3610 1481 c-46 -48 -50 -77 -19 -127 22 -36 32 -44 23 -19 -4 8 -2
15 2 15 21 0 90 -23 95 -31 3 -5 17 0 32 11 65 52 27 168 -61 186 -29 6 -37 2
-72 -35z"/>
<path d="M3826 1207 c-45 -28 -91 -93 -107 -151 -7 -23 -9 -79 -6 -128 6 -120
40 -192 104 -220 41 -18 46 -18 99 -3 45 13 68 28 119 81 86 86 129 174 123
245 -7 72 -48 125 -127 166 -79 42 -147 45 -205 10z"/>
<path d="M3934 604 c-18 -14 -18 -15 4 -4 12 6 22 13 22 15 0 8 -5 6 -26 -11z"/>
<path d="M3884 574 c-18 -14 -18 -15 4 -4 12 6 22 13 22 15 0 8 -5 6 -26 -11z"/>
<path d="M3834 544 c-18 -14 -18 -15 4 -4 12 6 22 13 22 15 0 8 -5 6 -26 -11z"/>
<path d="M3770 510 c-19 -11 -31 -19 -27 -20 11 0 67 29 67 35 0 7 -1 7 -40
-15z"/>
<path d="M3660 460 c-9 -6 -10 -10 -3 -10 6 0 15 5 18 10 8 12 4 12 -15 0z"/>
<path d="M3965 2560 c21 -22 41 -40 44 -40 3 0 -13 18 -34 40 -21 22 -41 40
-44 40 -3 0 13 -18 34 -40z"/>
<path d="M2146 1055 c-9 -26 -7 -32 5 -12 6 10 9 21 6 23 -2 3 -7 -2 -11 -11z"/>
<path d="M2120 1000 c-6 -11 -8 -20 -6 -20 3 0 10 9 16 20 6 11 8 20 6 20 -3
0 -10 -9 -16 -20z"/>
<path d="M2166 903 c-6 -14 -5 -15 5 -6 7 7 10 15 7 18 -3 3 -9 -2 -12 -12z"/>
<path d="M4288 333 c25 -5 26 -7 11 -36 -20 -39 -71 -86 -88 -81 -38 12 46
-30 96 -47 l54 -18 20 32 c13 21 19 46 17 72 -3 35 -8 42 -43 62 -22 13 -51
22 -65 21 -23 -1 -24 -1 -2 -5z"/>
</g>
</svg>
