<?xml version="1.0" standalone="no"?>
<!DOCTYPE svg PUBLIC "-//W3C//DTD SVG 20010904//EN"
 "http://www.w3.org/TR/2001/REC-SVG-20010904/DTD/svg10.dtd">
<svg version="1.0" xmlns="http://www.w3.org/2000/svg"
 width="640.000000pt" height="399.000000pt" viewBox="0 0 640.000000 399.000000"
 preserveAspectRatio="xMidYMid meet">

<g transform="translate(0.000000,399.000000) scale(0.100000,-0.100000)"
fill="#000000" stroke="none">
<path d="M5198 3978 c7 -7 12 -14 12 -17 0 -4 -51 -6 -113 -7 -118 -1 -202
-21 -276 -67 -33 -20 -33 -21 -12 -29 30 -11 21 -22 -36 -43 -76 -28 -221
-103 -305 -157 -71 -46 -168 -88 -202 -88 -31 0 -26 -21 8 -35 20 -9 36 -18
36 -21 0 -3 -34 -21 -76 -40 -101 -46 -208 -146 -229 -214 l-8 -25 21 25 c36
44 38 11 2 -58 -32 -63 -130 -174 -190 -216 l-25 -17 38 5 c44 6 46 -2 11 -35
-31 -29 -49 -62 -59 -109 l-7 -35 33 31 c19 18 44 37 57 44 22 11 23 10 20
-12 -2 -17 -19 -31 -66 -55 -34 -17 -118 -67 -185 -111 -252 -164 -414 -247
-582 -298 -87 -26 -100 -27 -440 -35 -404 -9 -552 -26 -743 -87 -81 -25 -86
-26 -191 -14 -156 18 -228 15 -354 -13 -153 -33 -207 -42 -386 -60 -84 -9
-177 -24 -207 -34 -156 -55 -236 -170 -233 -335 l1 -71 9 60 c26 180 104 263
254 273 72 4 156 -12 138 -28 -4 -4 -41 -12 -80 -19 -214 -34 -294 -126 -262
-305 14 -86 5 -147 -29 -188 -15 -18 -21 -29 -14 -24 6 4 12 3 12 -3 0 -5 -27
-30 -59 -55 -58 -45 -101 -109 -101 -151 0 -18 1 -18 15 1 21 31 165 88 165
66 0 -5 -13 -21 -30 -37 -33 -32 -33 -43 0 -25 29 16 34 8 17 -27 -18 -34 -83
-96 -149 -141 -46 -32 -88 -90 -103 -142 -7 -24 -7 -25 9 -5 16 19 16 18 9
-20 -14 -77 -8 -159 16 -207 30 -63 48 -77 43 -34 -9 76 75 169 246 275 156
95 239 179 310 313 16 31 32 63 35 70 10 25 27 -16 27 -67 0 -68 -14 -113 -47
-149 l-28 -30 27 17 c37 23 41 21 21 -9 -17 -26 -17 -27 3 -16 30 16 73 83 90
138 9 31 14 94 14 181 0 73 4 133 9 133 9 0 51 -197 51 -239 0 -20 2 -22 15
-11 45 37 27 -51 -26 -124 -43 -60 -40 -66 16 -39 53 25 55 6 3 -43 -46 -43
-48 -44 -117 -44 -111 0 -166 -16 -200 -57 -16 -20 -68 -119 -115 -220 -98
-211 -189 -357 -280 -449 -35 -35 -69 -78 -76 -94 -16 -37 -43 -45 -110 -31
-67 14 -121 -1 -159 -44 -27 -32 -87 -182 -76 -193 3 -3 47 2 98 12 50 11 110
22 132 27 103 20 216 49 242 62 43 23 90 75 137 153 36 60 45 68 66 64 14 -2
41 -4 60 -3 19 1 93 2 163 2 197 2 209 11 246 187 19 89 65 199 93 221 7 6 60
13 118 15 90 4 122 11 225 46 82 29 155 46 230 56 132 17 152 24 207 75 l43
39 141 15 c78 8 155 22 171 30 17 9 43 40 63 76 70 123 96 156 160 202 60 44
69 48 127 48 77 1 168 -11 403 -54 326 -59 415 -69 665 -69 286 -1 393 19 598
112 37 17 121 49 187 71 65 23 226 82 357 133 l238 92 101 0 c99 1 101 1 155
-35 30 -20 73 -60 96 -90 56 -73 203 -332 203 -356 0 -11 -14 -38 -31 -59 -39
-48 -79 -131 -79 -162 0 -39 26 -83 99 -164 l70 -77 25 77 c14 42 30 97 36
122 6 25 22 61 35 81 40 61 83 153 100 215 10 32 35 93 56 135 22 41 39 86 39
98 0 30 -18 63 -114 204 -45 67 -107 169 -136 227 -62 119 -118 183 -179 201
-52 15 -229 -2 -376 -37 -55 -13 -112 -24 -126 -24 l-25 0 1 268 c1 247 3 272
23 332 12 36 30 77 40 91 121 184 168 230 273 269 54 21 57 21 150 4 80 -14
111 -26 204 -77 146 -80 171 -99 200 -157 14 -27 35 -56 47 -64 29 -21 82 -20
99 0 10 12 23 14 51 10 67 -11 96 15 113 99 8 40 16 54 42 70 20 12 32 28 33
41 0 19 -84 134 -97 134 -3 0 0 -7 7 -15 7 -9 10 -18 7 -21 -2 -3 -18 14 -33
37 -16 24 -42 54 -58 68 -98 86 -134 132 -195 246 -35 66 -72 132 -82 147 -21
28 -23 38 -11 38 4 0 23 -25 41 -55 42 -69 52 -72 14 -5 -39 70 -165 237 -213
282 -32 29 -40 44 -40 71 0 34 -64 177 -79 177 -15 0 -43 -77 -36 -99 7 -24 5
-25 -57 -8 -37 9 -57 23 -93 65 -25 30 -46 59 -46 65 -1 7 -6 -12 -13 -42 -6
-30 -16 -56 -22 -58 -6 -2 -33 14 -60 35 -56 45 -105 72 -131 72 -13 0 -14 -3
-5 -12z m-3608 -1878 c0 -5 -24 -47 -54 -93 -30 -45 -60 -95 -67 -110 -17 -37
-32 -34 -24 6 18 81 49 162 70 183 24 24 75 33 75 14z m4027 -319 c65 -40 203
-259 232 -369 27 -97 -17 -67 -136 96 -66 90 -163 259 -163 283 0 15 34 10 67
-10z m-4237 -318 c-5 -240 -5 -242 -30 -268 -35 -38 -120 -85 -154 -85 l-28 0
35 39 c19 22 40 49 47 60 16 30 31 16 23 -22 -6 -29 -5 -31 11 -18 50 41 60
142 26 271 -20 76 -27 180 -12 180 5 0 17 -17 27 -37 l19 -38 6 60 c5 50 27
116 33 103 1 -1 0 -112 -3 -245z m4450 -172 c19 -36 -11 -68 -51 -56 -19 6
-27 35 -10 35 5 0 13 9 16 20 8 25 31 26 45 1z m30 -291 c0 -51 -3 -60 -21
-65 -24 -8 -75 11 -83 31 -7 18 13 29 27 15 19 -19 25 -13 32 32 9 52 12 58
30 50 11 -4 15 -21 15 -63z m-4830 -287 c0 -18 -128 -217 -148 -231 -21 -14
-29 -14 -78 2 -30 9 -54 21 -54 25 0 32 139 173 193 196 34 15 87 20 87 8z
m-300 -149 c0 -3 -27 -54 -61 -113 -60 -105 -84 -135 -100 -125 -12 7 4 44 48
106 21 30 47 74 57 97 12 26 26 41 38 41 10 0 18 -3 18 -6z"/>
<path d="M6025 3360 c27 -49 111 -165 166 -230 35 -41 74 -89 87 -105 l23 -30
-18 33 c-10 18 -35 54 -57 80 -21 26 -73 92 -114 147 -76 102 -102 133 -87
105z"/>
</g>
</svg>
