<?xml version="1.0" standalone="no"?>
<!DOCTYPE svg PUBLIC "-//W3C//DTD SVG 20010904//EN"
 "http://www.w3.org/TR/2001/REC-SVG-20010904/DTD/svg10.dtd">
<svg version="1.0" xmlns="http://www.w3.org/2000/svg"
 width="640.000000pt" height="332.000000pt" viewBox="0 0 640.000000 332.000000"
 preserveAspectRatio="xMidYMid meet">

<g transform="translate(0.000000,332.000000) scale(0.100000,-0.100000)"
fill="#000000" stroke="none">
<path d="M3717 3216 c-179 -102 -347 -248 -428 -370 l-41 -63 -24 23 c-25 26
-48 23 -65 -7 -9 -18 -15 -13 -56 41 -79 106 -243 230 -420 319 -120 60 -115
50 7 -15 189 -101 327 -209 414 -325 25 -34 46 -65 46 -69 0 -4 -11 -11 -25
-14 -14 -4 -32 -18 -41 -32 -19 -28 -22 -101 -5 -131 8 -17 1 -29 -47 -80
l-57 -60 -65 34 c-222 113 -526 154 -992 134 -391 -17 -759 -79 -1118 -188
-309 -93 -604 -249 -722 -381 -145 -161 -86 -278 188 -367 55 -18 89 -37 121
-66 25 -22 66 -50 91 -61 26 -12 64 -36 86 -55 41 -37 109 -72 139 -73 11 0
38 -17 62 -38 39 -34 99 -62 135 -62 6 0 37 -23 68 -50 32 -28 83 -64 115 -80
33 -16 76 -49 97 -73 38 -42 142 -107 173 -107 9 0 25 -13 37 -30 23 -32 96
-80 122 -80 9 0 30 -24 46 -52 31 -54 92 -123 148 -169 23 -19 32 -36 37 -70
13 -95 81 -202 147 -229 16 -7 32 -20 35 -30 8 -26 96 -105 145 -130 23 -12
72 -29 109 -38 46 -12 81 -29 112 -55 62 -50 130 -78 199 -82 31 -1 66 -7 76
-13 38 -20 100 -23 174 -8 41 8 101 17 132 19 72 7 139 39 185 90 38 43 89
143 99 195 6 31 7 32 24 17 17 -16 19 -15 31 6 11 22 13 20 26 -30 44 -173
140 -264 295 -281 46 -5 99 -14 118 -20 49 -14 113 -13 157 4 21 8 67 16 103
19 73 5 131 30 188 81 26 23 54 37 93 45 112 23 239 103 275 173 8 15 21 28
29 28 26 0 94 70 119 123 14 29 29 72 32 97 6 38 18 55 89 125 45 45 90 100
101 123 15 34 27 44 59 54 22 7 61 33 89 60 28 27 56 48 63 48 30 0 119 55
165 102 27 27 75 63 108 79 32 17 81 49 107 73 27 24 64 47 83 51 48 10 100
38 128 68 13 14 40 28 60 32 51 10 102 38 141 79 19 20 41 36 48 36 24 0 94
40 136 79 29 25 66 44 117 60 283 88 334 220 153 393 -225 214 -708 400 -1291
497 -276 46 -384 54 -712 55 -247 1 -326 -2 -418 -17 -138 -22 -261 -57 -360
-102 l-75 -35 -16 22 c-20 29 -50 59 -79 79 -19 14 -21 20 -12 43 23 61 -4
137 -55 156 -30 12 -30 10 -3 57 82 144 260 304 471 423 49 27 66 40 54 40 -1
0 -37 -20 -80 -44z m-490 -628 c-3 -7 -5 -2 -5 12 0 14 2 19 5 13 2 -7 2 -19
0 -25z m-40 0 c-3 -8 -6 -5 -6 6 -1 11 2 17 5 13 3 -3 4 -12 1 -19z m-176
-284 c-1 -50 5 -110 19 -175 23 -106 21 -145 -5 -118 -12 12 -16 56 -21 199
-3 102 -2 181 2 177 5 -4 7 -42 5 -83z m-1069 61 c37 -7 83 -21 102 -30 34
-16 36 -16 67 6 43 30 113 36 164 14 93 -41 105 -43 153 -29 25 8 66 13 91 13
31 -2 36 -3 16 -6 -94 -11 -95 -12 -95 -48 0 -18 -6 -36 -12 -39 -7 -3 8 -5
35 -3 26 1 47 -1 47 -5 0 -5 -19 -8 -42 -8 -64 0 -161 -26 -226 -60 -64 -33
-138 -50 -221 -50 -80 0 -171 -17 -226 -41 -29 -13 -84 -24 -144 -30 -53 -4
-121 -17 -151 -27 -62 -22 -191 -85 -232 -113 -42 -30 -54 -25 -50 21 3 28 -1
47 -12 59 -15 17 -10 22 81 83 54 36 170 102 258 146 88 45 180 100 205 122
52 45 81 49 192 25z m-302 -5 c-12 -8 -13 -12 -2 -19 10 -6 -17 -26 -91 -69
-131 -77 -304 -162 -329 -162 -19 0 -19 1 -1 31 54 93 173 172 315 209 82 21
133 26 108 10z m2601 -2 c19 -6 47 -20 62 -30 19 -14 31 -17 40 -10 19 16 125
44 145 39 14 -4 13 -5 -4 -6 -41 -2 -127 -33 -115 -40 9 -6 12 -34 9 -95 -3
-96 -7 -91 72 -99 26 -3 21 -4 -15 -5 -114 -2 -200 14 -278 53 -80 39 -202 64
-322 66 -67 1 -136 18 -142 36 -6 17 96 63 155 70 36 4 73 0 116 -11 60 -16
65 -16 102 0 109 47 124 50 175 32z m332 5 c-7 -2 -19 -2 -25 0 -7 3 -2 5 12
5 14 0 19 -2 13 -5z m-3705 -30 c-5 -25 -68 -64 -98 -61 -38 5 -37 34 2 58 42
26 101 28 96 3z m4015 1 c59 -15 157 -59 157 -70 0 -3 -4 -2 -10 1 -6 4 -10
-11 -10 -39 0 -32 5 -48 18 -56 15 -10 15 -11 -3 -5 -26 8 -215 115 -215 121
0 3 9 0 19 -6 27 -14 27 -14 26 18 0 21 -7 30 -30 39 -43 17 -23 16 48 -3z
m726 -8 c33 -18 36 -66 5 -66 -28 0 -88 41 -92 63 -3 13 4 17 30 17 18 -1 44
-7 57 -14z m-4469 -16 c0 -10 -10 -24 -21 -31 -17 -9 -20 -8 -13 3 12 18 12
32 -1 40 -5 4 0 8 13 8 15 0 22 -6 22 -20z m4195 0 c18 -8 17 -9 -7 -9 -16 -1
-28 -6 -28 -12 0 -5 -6 -7 -12 -3 -7 4 -6 -1 3 -10 9 -10 34 -24 55 -31 21 -8
31 -14 21 -15 -21 0 -93 35 -102 50 -20 32 23 50 70 30z m50 -20 c3 -6 -1 -7
-9 -4 -18 7 -21 14 -7 14 6 0 13 -4 16 -10z m-2818 -46 c-3 -3 -12 -4 -19 -1
-8 3 -5 6 6 6 11 1 17 -2 13 -5z m-1981 -32 c-17 -16 -18 -16 -5 5 7 12 15 20
18 17 3 -2 -3 -12 -13 -22z m5284 8 c12 -8 12 -10 1 -10 -9 0 -12 -8 -9 -25 3
-14 2 -25 -2 -25 -15 0 -60 42 -60 56 0 16 47 19 70 4z m-5393 -30 c-1 -11 -5
-20 -9 -20 -10 0 -10 4 -2 24 8 22 13 20 11 -4z m667 -29 c4 -5 -3 -7 -14 -4
-23 6 -26 13 -6 13 8 0 17 -4 20 -9z m1540 -1 c14 -5 26 -14 26 -19 0 -16
-129 -103 -143 -95 -6 4 -9 3 -4 -1 8 -9 -20 -45 -36 -45 -5 0 -3 8 4 18 11
15 11 15 -1 4 -8 -7 -15 -17 -15 -21 0 -5 -54 -55 -120 -111 -66 -56 -145
-126 -175 -154 -30 -28 -45 -40 -35 -27 11 13 85 82 164 153 l144 128 -2 66
c-2 47 2 69 11 75 19 13 -14 11 -97 -5 -38 -8 -72 -12 -74 -11 -9 10 157 40
259 48 25 2 50 4 57 5 6 1 23 -2 37 -8z m1191 -6 c104 -9 210 -39 260 -74 24
-17 102 -85 172 -153 71 -67 174 -165 229 -217 55 -52 89 -86 75 -74 -14 11
-35 27 -46 35 -18 13 -19 13 -7 -3 9 -12 12 -57 11 -168 l-1 -152 39 -41 c21
-23 -86 80 -237 228 -270 266 -465 438 -607 538 -40 28 -73 57 -73 64 0 19 39
33 80 28 19 -2 67 -7 105 -11z m1468 -35 c30 -32 36 -76 11 -86 -18 -7 -56 27
-86 75 -17 28 -19 36 -7 43 21 13 51 1 82 -32z m-4273 17 c-6 -8 -10 -32 -8
-53 2 -29 -1 -38 -12 -38 -24 0 -24 57 0 83 23 24 40 31 20 8z m56 -24 c-17
-16 -18 -16 -5 5 7 12 15 20 18 17 3 -2 -3 -12 -13 -22z m-772 9 c3 -5 -2 -19
-12 -30 l-17 -22 0 30 c0 29 17 42 29 22z m354 -13 c17 -17 15 -58 -5 -80 -25
-27 -28 -23 -28 37 0 55 9 67 33 43z m1612 -2 c0 -2 -7 -7 -16 -10 -8 -3 -12
-2 -9 4 6 10 25 14 25 6z m2207 -2 c-3 -3 -12 -4 -19 -1 -8 3 -5 6 6 6 11 1
17 -2 13 -5z m1282 -30 c40 -36 67 -93 57 -119 -8 -22 -47 -18 -95 8 l-43 22
-1 63 c-2 58 -1 62 20 62 13 0 41 -16 62 -36z m285 -2 c1 -39 -6 -40 -33 -6
-28 35 -26 46 6 42 22 -3 26 -8 27 -36z m-3844 -5 c0 -2 -12 -14 -27 -28 l-28
-24 24 28 c23 25 31 32 31 24z m-179 -34 c21 -21 -21 -70 -166 -196 -77 -67
-208 -190 -290 -274 -143 -145 -153 -153 -189 -153 -48 0 -97 30 -121 73 -17
33 -17 35 4 82 30 67 35 72 206 200 83 62 168 134 189 159 48 60 96 91 166
110 61 17 183 17 201 -1z m2511 -26 c39 -19 74 -49 118 -100 47 -53 52 -61 19
-30 l-44 42 2 -121 2 -121 38 -41 c23 -25 14 -19 -22 15 -33 31 -114 103 -180
161 -123 107 -195 181 -195 198 0 22 39 30 121 27 68 -2 97 -8 141 -30z
m-3727 -5 c-5 -4 -10 -35 -10 -70 0 -51 3 -61 15 -57 8 3 2 -7 -15 -21 -33
-29 -133 -79 -141 -71 -3 3 3 8 14 12 18 5 21 16 24 80 2 41 1 75 -1 75 -3 0
-14 -8 -25 -17 l-21 -18 20 24 c24 27 102 70 130 70 11 1 16 -3 10 -7z m1285
-37 c-24 -25 -46 -45 -49 -45 -3 0 15 20 39 45 24 25 46 45 49 45 3 0 -15 -20
-39 -45z m-473 19 c9 -24 -25 -62 -133 -147 -128 -101 -212 -157 -234 -157
-12 0 -20 10 -24 31 -3 17 -15 43 -26 59 -27 37 -18 54 46 95 167 107 352 167
371 119z m3964 -20 c51 -25 106 -82 115 -118 3 -13 4 -37 2 -52 -4 -38 -43
-43 -101 -15 -45 22 -114 75 -84 65 15 -5 17 2 17 63 0 62 -2 71 -22 82 -23
11 -23 11 2 5 14 -4 46 -17 71 -30z m-751 3 c36 -12 99 -41 140 -65 76 -44
137 -88 110 -79 -12 4 -15 -3 -12 -34 3 -24 8 -36 15 -32 7 4 8 0 2 -13 -4
-10 -10 -31 -13 -46 -3 -18 -11 -28 -21 -28 -44 0 -342 226 -372 282 -6 10 -7
23 -4 28 10 17 87 11 155 -13z m-4720 -57 c0 -50 -8 -64 -32 -55 -16 6 -12 96
5 107 20 12 27 -2 27 -52z m6145 -14 c7 -21 5 -30 -12 -47 -29 -30 -39 -19
-42 47 l-2 57 23 -15 c13 -8 27 -27 33 -42z m-5185 -9 c0 -13 -14 -43 -30 -65
-32 -45 -48 -56 -29 -21 6 12 9 41 7 65 -3 42 -2 44 24 44 23 0 28 -5 28 -23z
m1722 -17 c-4 -55 -130 -411 -153 -435 -5 -5 2 20 17 55 24 60 26 77 28 222 0
87 0 158 -2 158 -1 0 -15 -7 -30 -16 l-27 -16 25 21 c40 33 83 51 115 49 28
-3 30 -6 27 -38z m802 25 c18 -9 48 -29 67 -46 19 -17 28 -28 22 -24 -18 9
-23 -367 -5 -412 7 -18 10 -33 7 -33 -11 0 -61 114 -111 258 -59 168 -78 238
-70 259 7 18 51 17 90 -2z m1739 -16 c70 -36 137 -89 143 -115 8 -32 -18 -62
-62 -70 -42 -8 -85 22 -144 100 -37 49 -49 84 -33 99 12 13 54 7 96 -14z
m-4986 -51 c5 -7 10 -30 10 -52 1 -36 0 -37 -11 -15 -9 18 -20 24 -44 24 -39
0 -40 7 -6 34 31 24 38 26 51 9z m3113 -31 c0 -4 -4 -5 -10 -2 -7 4 -10 -157
-9 -477 1 -275 5 -472 9 -458 6 16 7 2 4 -40 -12 -157 -26 -256 -39 -269 -7
-7 -35 -15 -61 -17 -27 -2 -42 -1 -34 3 12 7 15 36 15 170 0 138 -2 159 -13
140 -12 -19 -13 -19 -7 -2 115 359 138 533 94 715 -43 177 -42 185 5 254 18
27 20 28 33 10 7 -10 13 -22 13 -27z m2552 -4 c24 -22 23 -34 -4 -24 -12 4
-22 15 -24 24 -3 21 5 21 28 0z m-3039 -197 c-25 -210 -22 -376 11 -546 38
-193 39 -204 10 -120 -54 158 -85 294 -91 398 -6 99 -4 113 38 285 24 99 46
170 47 157 2 -13 -4 -91 -15 -174z m-2883 164 c0 -5 -4 -10 -10 -10 -5 0 -10
5 -10 10 0 6 5 10 10 10 6 0 10 -4 10 -10z m1064 -16 c36 -36 32 -123 -8 -149
-23 -15 -56 -11 -56 7 0 5 6 6 13 2 8 -5 9 -4 2 4 -6 7 -8 38 -5 77 3 40 2 66
-5 69 -5 2 2 5 17 5 15 1 34 -6 42 -15z m5081 -3 c-3 -6 -11 -11 -17 -11 -6 0
-6 6 2 15 14 17 26 13 15 -4z m-1057 -2 c-14 -8 -18 -24 -18 -79 0 -55 4 -71
18 -79 14 -9 15 -10 1 -11 -26 0 -51 36 -56 84 -5 38 -2 48 20 70 14 14 32 26
39 26 8 0 6 -5 -4 -11z m92 -72 c0 -6 -6 -3 -12 8 -6 11 -18 29 -27 40 -9 12
-4 8 12 -7 15 -16 27 -34 27 -41z m-4716 36 c4 -9 2 -20 -5 -23 -8 -6 -8 -13
0 -28 6 -11 11 -27 11 -34 -1 -7 -10 4 -21 25 -19 36 -22 37 -57 31 l-37 -7
24 27 c28 30 75 35 85 9z m5254 -9 c29 -20 28 -34 -3 -34 -19 0 -29 -9 -42
-35 -18 -39 -33 -31 -33 18 0 61 33 83 78 51z m-531 -69 c-4 -8 -13 -15 -22
-15 -13 0 -12 3 3 18 19 21 27 20 19 -3z m732 22 c-2 -1 -15 -11 -28 -22 l-24
-20 12 23 c6 12 19 22 28 22 9 0 14 -1 12 -3z m-5241 -65 c2 -23 -1 -50 -7
-59 -11 -20 -11 -19 -15 69 -2 52 18 42 22 -10z m3168 23 c11 -9 13 -13 4 -10
-13 4 -15 -8 -13 -77 1 -46 5 -92 8 -103 l7 -20 -17 20 c-9 11 -30 48 -46 82
-27 53 -29 64 -18 85 21 41 43 47 75 23z m1614 0 c-8 -10 -11 -31 -6 -61 3
-29 2 -43 -4 -39 -14 9 -12 89 2 103 17 17 23 15 8 -3z m80 -20 c7 -9 8 -15 2
-15 -5 0 -12 7 -16 15 -3 8 -4 15 -2 15 2 0 9 -7 16 -15z m-989 -12 c13 -16
12 -17 -3 -4 -17 13 -22 21 -14 21 2 0 10 -8 17 -17z m-4136 -34 c11 -17 2
-18 -25 -4 -24 14 -24 14 -3 15 12 0 25 -5 28 -11z m5340 -9 c-3 -5 -11 -10
-17 -10 -6 0 -20 -7 -30 -17 -22 -20 -24 -1 -2 21 17 17 59 22 49 6z m-4835
-25 c16 -19 15 -77 -2 -108 -12 -21 -12 -21 -23 15 -13 48 -22 56 -65 60 l-35
3 35 22 c41 27 73 29 90 8z m4296 -70 c0 -36 -3 -65 -7 -65 -16 0 -31 82 -20
107 18 39 26 26 27 -42z m99 25 c3 -6 -1 -10 -9 -10 -8 0 -20 9 -26 21 -11 19
-10 20 9 10 11 -6 23 -16 26 -21z m-3175 -19 c-13 -25 -14 -284 -1 -276 6 3 1
-22 -10 -55 l-21 -60 -28 15 c-35 18 -80 71 -80 94 0 45 48 157 106 249 32 50
56 73 34 33z m2371 -18 c13 -16 12 -17 -3 -4 -17 13 -22 21 -14 21 2 0 10 -8
17 -17z m-3891 -8 c20 -24 6 -28 -15 -5 -10 11 -13 20 -8 20 6 0 16 -7 23 -15z
m4876 -33 c-18 -16 -18 -16 -6 6 6 13 14 21 18 18 3 -4 -2 -14 -12 -24z
m-1443 -59 c50 -99 71 -168 58 -191 -14 -26 -78 -82 -94 -82 -9 0 -8 3 1 9 17
10 19 280 2 311 -6 11 -8 20 -5 20 2 0 20 -30 38 -67z m115 -67 c-4 -44 -23
-42 -42 4 -9 22 -27 58 -41 80 -38 60 -31 60 30 0 46 -45 55 -60 53 -84z
m-2998 73 c12 -21 9 -46 -11 -96 l-12 -28 -11 45 c-12 44 -13 45 -56 50 l-45
5 29 23 c38 29 91 30 106 1z m835 -2 c-4 -33 -32 -97 -43 -97 -10 0 -22 23
-22 40 0 8 58 80 65 80 1 0 1 -10 0 -23z m-1186 -17 c15 -24 15 -24 -3 -10
-10 8 -31 20 -45 27 l-26 12 29 -2 c18 -1 35 -11 45 -27z m4187 8 c-1 -13 -7
-29 -13 -36 -7 -7 -13 -26 -13 -42 0 -41 -16 -46 -29 -8 -23 65 -9 108 34 108
16 0 21 -6 21 -22z m339 -8 c-28 -12 -37 -12 -30 0 3 6 16 10 28 9 21 0 21 -1
2 -9z m-2804 -66 c-20 -25 -20 -34 -14 -278 3 -138 10 -260 16 -271 8 -18 8
-18 -6 -5 -12 12 -16 63 -21 271 -6 249 -5 257 15 283 11 14 23 26 25 26 3 0
-4 -12 -15 -26z m1379 -111 c22 -56 40 -110 40 -120 0 -31 -77 -94 -112 -93
-7 1 0 6 15 13 l28 12 1 115 c0 84 -4 126 -16 154 -9 21 -16 41 -16 45 1 15
23 -32 60 -126z m-2012 46 c21 -39 7 -84 -54 -175 -56 -82 -94 -127 -57 -66
14 23 17 45 15 106 -3 55 -7 74 -15 69 -12 -7 9 21 52 70 29 31 41 31 59 -4z
m-494 -11 c7 -19 5 -40 -4 -70 l-13 -43 -11 35 c-18 56 -25 63 -62 55 -41 -7
-44 6 -7 35 38 30 85 24 97 -12z m2087 -19 c-6 -24 -11 -148 -11 -276 0 -217
1 -232 18 -227 9 3 -3 -6 -28 -20 -78 -44 -81 -41 -74 72 6 103 41 296 76 425
22 81 36 100 19 26z m794 -1 c107 -122 144 -201 113 -240 -38 -47 -76 -26
-144 79 -60 93 -77 151 -55 192 18 32 35 26 86 -31z m-3279 27 c18 -13 18 -14
-4 -8 -12 3 -25 9 -28 14 -8 14 10 11 32 -6z m3799 -25 c10 -11 13 -20 7 -20
-6 0 -16 9 -22 20 -6 11 -9 20 -7 20 2 0 12 -9 22 -20z m300 8 c-11 -6 -25
-19 -32 -27 -11 -14 -12 -14 -13 0 0 21 20 39 45 39 20 -1 20 -1 0 -12z
m-2652 -150 c7 -207 5 -238 -14 -238 -8 0 -31 12 -50 26 -19 15 -26 24 -16 21
15 -6 17 3 17 106 0 76 -3 107 -10 97 -18 -28 -10 -2 20 64 16 36 33 66 38 66
5 0 12 -64 15 -142z m1243 71 c39 -78 43 -105 5 -33 -13 24 -28 44 -34 44 -5
0 -4 -6 2 -14 8 -10 11 -57 9 -150 -2 -75 -2 -136 0 -136 2 0 13 5 25 11 19 9
18 7 -3 -10 -14 -11 -33 -22 -42 -25 -17 -4 -18 8 -18 152 0 142 6 232 16 232
2 0 20 -32 40 -71z m516 -98 c32 -48 62 -99 67 -113 25 -65 -49 -200 -108
-197 -14 1 -19 3 -11 5 13 4 15 30 13 172 -1 92 -3 170 -3 175 0 4 -9 16 -20
27 -12 12 -15 20 -7 20 6 -1 38 -40 69 -89z m-2968 36 c11 -8 17 -18 15 -23
-2 -5 -14 1 -26 14 -24 24 -17 30 11 9z m3631 -13 c-11 -8 -26 -22 -32 -31
-12 -15 -13 -15 -13 -1 0 22 27 48 48 48 15 -1 14 -3 -3 -16z m-2816 -53 c-6
-17 -13 -30 -15 -28 -3 2 0 17 6 32 8 20 7 32 -2 44 -11 15 -10 15 5 0 15 -13
16 -20 6 -48z m-221 -58 c-19 -44 -20 -49 -5 -101 8 -29 11 -50 7 -45 -5 4
-15 29 -21 55 -12 44 -11 52 9 93 29 59 37 58 10 -2z m347 -1 c57 -44 56 -32
31 -212 -25 -179 -23 -174 -74 -178 -38 -3 -47 1 -79 33 -35 35 -36 37 -30 98
4 52 59 264 74 290 9 14 29 6 78 -31z m1801 -5 c-2 -7 -5 -4 -5 6 -1 9 -4 17
-8 17 -5 0 -8 -89 -8 -197 0 -167 2 -199 15 -204 20 -9 -34 -23 -55 -15 -20 7
-35 48 -35 99 -1 23 -9 87 -19 142 -10 55 -17 105 -14 110 2 6 29 27 61 47 47
31 58 35 65 22 5 -8 6 -20 3 -27z m-2569 -9 c-3 -7 -5 -2 -5 12 0 14 2 19 5
13 2 -7 2 -19 0 -25z m1488 -88 c34 -107 59 -235 49 -252 -3 -4 -31 -7 -62 -7
-31 1 -49 3 -39 6 17 4 18 17 15 184 -2 98 -2 179 -1 179 1 0 18 -49 38 -110z
m1782 78 c-3 -8 -6 -5 -6 6 -1 11 2 17 5 13 3 -3 4 -12 1 -19z m-2010 -35 c-3
-10 -5 -4 -5 12 0 17 2 24 5 18 2 -7 2 -21 0 -30z m1093 14 c0 -2 -10 -12 -22
-23 l-23 -19 19 23 c18 21 26 27 26 19z m-1389 -95 l64 -47 1 -85 1 -85 -7 85
c-6 79 -6 74 -8 -58 -1 -93 1 -141 8 -137 6 3 10 2 10 -3 0 -15 -47 -20 -95
-10 -26 6 -58 22 -76 39 l-32 30 7 100 c5 89 18 169 31 207 8 21 31 13 96 -36z
m306 -64 c-2 -24 -4 -7 -4 37 0 44 2 63 4 43 2 -21 2 -57 0 -80z m1130 46 c12
-60 11 -264 -3 -285 -12 -20 -88 -49 -131 -49 -55 0 -57 9 -46 176 l8 129 70
48 c38 26 74 46 80 44 5 -2 15 -30 22 -63z m615 44 c-13 -13 -17 -32 -4 -25 4
3 8 -9 8 -26 1 -28 0 -29 -12 -12 -23 31 -17 75 10 75 6 0 5 -5 -2 -12z m55
-4 c-3 -3 -12 -4 -19 -1 -8 3 -5 6 6 6 11 1 17 -2 13 -5z m-2872 -125 c4 -11
4 -23 1 -26 -3 -4 -6 0 -6 7 0 8 -10 25 -22 38 l-23 25 22 -12 c12 -6 25 -20
28 -32z m2899 13 c-12 -9 -25 -26 -29 -37 -8 -19 -8 -19 -12 -2 -6 22 23 57
46 57 13 0 12 -4 -5 -18z m-1941 -165 c1 -69 -2 -116 -7 -114 -6 2 -18 15 -29
29 -15 20 -20 49 -25 134 l-5 108 32 -20 33 -19 1 -118z m127 128 c0 -9 -9
-15 -22 -14 -17 1 -19 2 -5 6 9 2 17 9 17 14 0 5 2 9 5 9 3 0 5 -7 5 -15z
m879 -84 c-4 -54 -11 -107 -17 -117 -17 -32 -47 -54 -78 -58 -16 -2 -23 -1
-16 1 8 3 12 34 12 109 0 76 -3 104 -12 104 -17 1 83 58 102 59 13 1 14 -13 9
-98z m-1689 -42 c0 -36 -16 -46 -24 -14 -5 18 -13 25 -32 25 -29 0 -24 17 10
30 28 10 46 -5 46 -41z m817 4 c-3 -10 -5 -4 -5 12 0 17 2 24 5 18 2 -7 2 -21
0 -30z m1558 17 c18 -20 17 -20 -8 -20 -20 0 -28 -6 -33 -25 -8 -32 -24 -23
-24 14 0 49 34 66 65 31z m-1428 -10 c7 0 9 -14 6 -41 -4 -29 -2 -44 8 -50 10
-6 6 -9 -13 -9 -28 0 -43 18 -58 71 -10 33 -3 42 25 35 11 -3 25 -6 32 -6z
m448 -46 c-1 -55 -16 -68 -67 -54 -40 12 -97 65 -82 79 8 9 39 13 124 19 23 2
25 -1 25 -44z m-572 -75 c-4 -4 -6 13 -3 39 l5 47 3 -39 c2 -21 0 -42 -5 -47z
m-922 -21 c6 -11 8 -22 5 -26 -3 -3 -6 0 -6 6 0 6 -10 21 -22 32 -18 16 -19
20 -5 14 10 -3 22 -15 28 -26z m372 -34 c4 -23 3 -24 -13 -9 -15 13 -23 14
-39 5 -28 -14 -28 3 0 31 24 24 44 14 52 -27z m2138 5 l-10 -24 0 26 c-1 14 2
29 6 33 12 12 14 -9 4 -35z m-312 4 c25 -31 21 -39 -10 -22 -20 10 -25 9 -40
-10 -23 -28 -27 -27 -21 7 10 57 39 67 71 25z m-1085 -9 c9 -4 21 -15 27 -25
8 -17 6 -18 -20 -13 -24 5 -30 2 -36 -17 -7 -20 -8 -21 -17 -5 -7 12 -7 26 1
42 11 25 19 28 45 18z m292 -13 c-4 -5 0 -12 6 -14 8 -4 7 -6 -4 -6 -9 -1 -25
-4 -35 -8 -17 -6 -17 -5 1 15 19 21 43 31 32 13z m-819 -38 c-2 -10 -8 -27
-15 -38 -10 -18 -11 -18 -12 -2 0 19 17 57 25 57 3 0 4 -8 2 -17z m57 -43 c-7
-6 -24 22 -23 40 0 9 6 5 14 -10 7 -14 11 -27 9 -30z m1249 30 c-5 -21 -33
-49 -33 -33 0 9 29 53 35 53 2 0 1 -9 -2 -20z m48 -6 c5 -15 8 -29 5 -31 -2
-2 -8 10 -14 26 -13 38 -5 41 9 5z m-1064 -19 c0 -8 -6 -16 -14 -19 -7 -3 -13
-12 -13 -21 0 -8 -4 -15 -10 -15 -11 0 -14 53 -3 63 12 13 40 7 40 -8z m794
-42 c-12 -20 -14 -14 -5 12 4 9 9 14 11 11 3 -2 0 -13 -6 -23z m-521 -2 c0 -6
-4 -13 -10 -16 -5 -3 -10 1 -10 9 0 9 5 16 10 16 6 0 10 -4 10 -9z m-806 -33
c22 -31 13 -33 -19 -4 -20 19 -24 26 -12 26 9 0 23 -10 31 -22z m1866 5 c-8
-3 -25 -15 -37 -26 -25 -22 -29 -17 -13 14 7 12 21 19 38 18 15 0 21 -3 12 -6z
m-1576 -119 c23 -23 20 -24 -14 -8 -16 9 -34 13 -40 9 -5 -3 -10 -1 -10 4 0
17 47 13 64 -5z m254 -1 c-10 -2 -26 -2 -35 0 -10 3 -2 5 17 5 19 0 27 -2 18
-5z m792 -8 c13 -16 0 -21 -15 -6 -6 5 -19 11 -30 14 -16 4 -14 5 6 6 15 0 32
-6 39 -14z m220 10 c0 -2 -10 -10 -22 -16 -21 -11 -22 -11 -9 4 13 16 31 23
31 12z"/>
<path d="M5270 2132 c0 -21 63 -91 83 -92 17 0 5 53 -18 75 -23 24 -65 34 -65
17z"/>
<path d="M2550 3210 c8 -5 20 -10 25 -10 6 0 3 5 -5 10 -8 5 -19 10 -25 10 -5
0 -3 -5 5 -10z"/>
</g>
</svg>
