<?xml version="1.0" standalone="no"?>
<!DOCTYPE svg PUBLIC "-//W3C//DTD SVG 20010904//EN"
 "http://www.w3.org/TR/2001/REC-SVG-20010904/DTD/svg10.dtd">
<svg version="1.0" xmlns="http://www.w3.org/2000/svg"
 width="572.000000pt" height="640.000000pt" viewBox="0 0 572.000000 640.000000"
 preserveAspectRatio="xMidYMid meet">

<g transform="translate(0.000000,640.000000) scale(0.100000,-0.100000)"
fill="#000000" stroke="none">
<path d="M2958 6303 c-120 -211 -136 -304 -72 -432 19 -39 39 -71 43 -71 5 0
11 35 14 78 3 42 16 136 29 207 l23 130 3 -142 c1 -78 -1 -173 -6 -212 l-8
-72 38 38 c22 21 51 62 65 91 23 47 25 60 20 140 -4 85 -35 209 -74 300 l-18
43 -57 -98z"/>
<path d="M3282 6118 c-105 -175 -135 -273 -113 -365 11 -45 68 -153 81 -153 3
0 11 46 18 103 7 56 24 154 37 217 l23 115 1 -145 c0 -80 -4 -179 -9 -220 -4
-41 -7 -77 -5 -78 8 -8 89 86 109 128 32 63 38 102 26 179 -11 73 -74 279 -93
306 -11 14 -21 2 -75 -87z"/>
<path d="M3711 5950 c-110 -229 -132 -341 -90 -457 19 -49 79 -157 85 -150 1
1 7 58 13 127 16 180 43 373 53 385 5 6 8 -99 6 -253 -2 -144 -2 -262 0 -262
13 0 69 79 99 139 34 68 38 82 37 150 -1 43 -11 113 -23 161 -21 79 -83 255
-102 290 -5 11 -28 -26 -78 -130z"/>
<path d="M1796 6057 c-3 -12 -9 -85 -12 -162 -13 -277 28 -389 180 -487 33
-21 63 -38 67 -38 5 0 -4 30 -18 68 -34 87 -134 414 -130 426 4 11 169 -334
198 -412 25 -71 29 -69 53 24 31 119 17 209 -48 307 -41 62 -187 220 -245 267
-39 30 -39 30 -45 7z"/>
<path d="M2185 5998 c-14 -46 -29 -110 -32 -143 -4 -52 -2 -65 19 -95 21 -31
123 -98 133 -88 2 2 -2 26 -10 52 -18 58 -48 227 -42 232 5 5 86 -186 99 -234
11 -41 23 -34 54 32 30 65 30 99 -1 153 -24 39 -167 173 -186 173 -5 0 -20
-37 -34 -82z"/>
<path d="M2647 6009 c-66 -112 -158 -339 -187 -462 -33 -135 -24 -222 35 -337
22 -44 110 -170 118 -170 1 0 3 62 4 138 2 124 24 403 42 542 l7 55 7 -65 c16
-140 27 -352 27 -504 l0 -159 26 24 c39 36 108 146 133 212 53 144 8 356 -147
686 l-39 85 -26 -45z"/>
<path d="M1523 5793 c-4 -32 -8 -94 -8 -138 1 -66 5 -87 23 -117 21 -34 89
-94 97 -86 2 2 -2 26 -10 53 -20 66 -54 225 -49 225 6 0 33 -68 69 -175 l34
-100 16 37 c25 61 20 135 -14 193 -31 53 -127 165 -141 165 -5 0 -12 -26 -17
-57z"/>
<path d="M4275 5808 c-10 -31 -26 -142 -34 -245 -17 -211 11 -312 115 -417 30
-31 58 -56 62 -56 5 0 1 31 -9 68 -21 83 -82 433 -76 438 7 7 87 -254 144
-466 l9 -35 23 60 c14 36 26 91 29 136 5 89 -10 147 -66 249 -33 62 -180 280
-189 280 -2 0 -6 -6 -8 -12z"/>
<path d="M1352 5709 c-74 -101 -136 -208 -169 -291 -22 -54 -25 -73 -21 -147
3 -56 13 -107 28 -146 l23 -60 23 94 c27 109 126 423 131 417 6 -6 -56 -358
-77 -440 -10 -39 -16 -73 -13 -76 11 -11 127 127 152 179 22 48 26 73 29 171
4 111 -19 336 -37 368 -6 10 -25 -9 -69 -69z"/>
<path d="M4058 5743 c-74 -77 -98 -119 -98 -172 1 -40 38 -139 40 -103 0 17
81 224 85 220 5 -5 -32 -178 -44 -210 -13 -35 -4 -35 46 1 54 39 67 75 60 164
-7 77 -23 147 -35 147 -4 0 -29 -21 -54 -47z"/>
<path d="M882 5678 c-23 -158 -12 -212 54 -275 53 -52 66 -54 53 -10 -15 49
-58 242 -54 245 4 4 54 -122 81 -203 l23 -70 15 37 c22 51 20 123 -4 173 -21
43 -135 185 -149 185 -4 0 -13 -37 -19 -82z"/>
<path d="M4750 5688 c-33 -39 -69 -90 -80 -113 -24 -50 -26 -122 -4 -173 l15
-37 23 70 c27 81 77 207 81 203 4 -3 -39 -196 -54 -245 -13 -44 0 -42 53 10
46 44 66 92 66 157 0 56 -22 200 -31 200 -4 0 -35 -32 -69 -72z"/>
<path d="M3050 5613 c-43 -119 -49 -188 -21 -245 12 -25 31 -54 44 -66 l22
-21 -3 147 c-2 81 -1 144 3 141 9 -9 35 -185 35 -236 0 -24 4 -43 9 -43 5 0
22 25 36 55 39 79 33 134 -29 259 -26 53 -52 96 -56 96 -4 0 -22 -39 -40 -87z"/>
<path d="M3400 5523 c-12 -27 -39 -100 -61 -163 -85 -253 -70 -353 72 -484 34
-31 63 -55 65 -53 2 2 -1 30 -6 63 -11 65 -26 482 -17 474 9 -9 78 -341 91
-440 l12 -95 33 45 c63 85 86 147 86 230 0 64 -5 85 -33 145 -49 102 -194 324
-214 325 -4 0 -17 -21 -28 -47z"/>
<path d="M2213 5403 c-62 -115 -118 -252 -134 -330 -16 -78 -2 -162 42 -252
34 -68 49 -68 49 1 0 41 67 449 75 457 10 10 -6 -373 -20 -489 l-6 -45 41 45
c55 60 99 154 106 227 3 34 0 96 -9 150 -18 110 -76 323 -88 323 -4 0 -29 -39
-56 -87z"/>
<path d="M638 5371 c-154 -160 -169 -240 -66 -357 l31 -36 33 129 c18 70 40
146 48 168 16 39 16 36 11 -95 -3 -74 -9 -152 -14 -172 -11 -48 -2 -49 65 -3
32 22 61 53 75 80 22 41 23 47 10 107 -12 62 -97 258 -111 258 -4 0 -41 -35
-82 -79z"/>
<path d="M4947 5352 c-93 -198 -87 -265 30 -349 62 -44 73 -43 62 5 -5 20 -11
98 -14 172 -5 131 -5 134 11 95 8 -22 30 -98 48 -168 l33 -129 31 36 c73 83
84 152 37 231 -27 46 -170 205 -185 205 -4 0 -28 -44 -53 -98z"/>
<path d="M1668 5322 c-159 -248 -198 -393 -138 -513 25 -49 98 -149 110 -149
4 0 10 51 13 113 5 102 49 402 60 414 9 8 20 -352 13 -447 l-6 -95 63 66 c86
89 112 144 110 234 -1 40 -11 99 -23 140 -24 77 -96 242 -126 292 l-20 31 -56
-86z"/>
<path d="M3941 5307 c-112 -231 -140 -380 -91 -481 13 -27 52 -79 86 -115 l63
-66 -6 95 c-6 95 5 455 14 447 11 -12 55 -312 60 -414 3 -62 9 -113 13 -113
16 0 93 112 116 167 28 68 30 119 8 194 -21 71 -89 204 -157 308 l-54 83 -52
-105z"/>
<path d="M941 5145 c-24 -164 -33 -360 -22 -467 14 -130 48 -205 128 -289 48
-51 171 -144 179 -136 2 1 -11 40 -27 86 -32 90 -162 602 -155 609 3 2 11 -11
19 -29 109 -255 173 -416 206 -513 21 -65 41 -119 43 -122 3 -2 18 33 34 79
26 72 29 95 29 198 0 113 -1 116 -37 190 -21 40 -64 110 -97 153 -66 87 -269
316 -281 316 -4 0 -13 -34 -19 -75z"/>
<path d="M4646 5102 c-138 -152 -217 -258 -264 -351 -36 -74 -37 -77 -37 -190
0 -103 3 -126 29 -198 16 -46 31 -81 33 -79 2 2 24 63 49 134 24 72 76 207
115 299 40 92 78 183 86 202 8 18 16 31 19 29 7 -8 -125 -524 -156 -610 -16
-45 -29 -83 -27 -84 9 -9 130 83 180 135 116 122 149 260 128 537 -13 170 -30
294 -41 294 -4 0 -55 -53 -114 -118z"/>
<path d="M2936 5108 c-107 -145 -176 -285 -183 -369 -5 -63 9 -144 38 -214
l12 -30 14 50 c28 102 145 457 149 453 6 -6 -62 -361 -85 -443 -11 -38 -18
-71 -16 -73 2 -2 26 17 54 43 101 94 141 192 141 341 0 92 -27 324 -40 337 -4
5 -42 -38 -84 -95z"/>
<path d="M2425 4849 c-88 -173 -165 -395 -179 -511 -14 -111 38 -257 128 -365
l43 -51 6 186 c4 103 14 259 22 347 8 88 15 166 15 174 0 8 2 12 4 10 9 -8 38
-364 44 -542 l7 -179 52 69 c61 81 99 158 115 238 15 76 0 172 -52 328 -37
111 -152 367 -164 367 -3 0 -22 -32 -41 -71z"/>
<path d="M3189 4796 c-70 -148 -134 -333 -150 -438 -20 -128 14 -240 114 -371
l52 -69 7 179 c6 178 35 534 44 542 2 2 4 -2 4 -10 0 -8 7 -86 15 -174 8 -88
18 -244 22 -347 l6 -186 43 51 c55 65 109 175 124 250 20 100 -10 240 -95 448
-48 117 -112 249 -121 249 -3 0 -32 -56 -65 -124z"/>
<path d="M284 4828 c-68 -87 -114 -180 -114 -228 0 -38 28 -107 58 -145 l19
-24 16 82 c9 45 28 120 42 167 l25 85 -6 -119 c-3 -65 -9 -141 -15 -169 -5
-28 -8 -52 -6 -54 9 -8 100 83 117 118 24 45 25 83 5 166 -17 74 -64 193 -75
193 -5 0 -35 -33 -66 -72z"/>
<path d="M5336 4834 c-31 -77 -56 -175 -56 -222 0 -47 32 -103 86 -151 26 -23
49 -40 51 -38 2 2 -1 26 -6 54 -6 28 -12 104 -15 169 l-6 119 25 -85 c14 -47
33 -122 42 -167 l16 -82 19 24 c30 38 58 107 58 145 0 19 -13 62 -29 95 -28
60 -135 205 -151 205 -4 0 -20 -30 -34 -66z"/>
<path d="M610 4728 c-19 -166 -11 -281 24 -351 25 -51 92 -124 138 -148 15 -8
15 -4 -2 47 -23 65 -93 374 -87 380 5 6 122 -308 138 -369 14 -56 21 -52 43
22 34 117 16 203 -67 324 -54 79 -157 205 -168 206 -4 1 -12 -50 -19 -111z"/>
<path d="M5030 4774 c-81 -96 -157 -209 -174 -262 -20 -58 -20 -134 0 -203 22
-74 29 -78 43 -22 16 61 133 375 138 369 6 -6 -64 -315 -87 -380 -22 -66 -17
-66 62 3 70 62 101 133 106 245 5 91 -15 317 -27 315 -3 0 -31 -29 -61 -65z"/>
<path d="M1946 4633 c-22 -101 -30 -191 -22 -237 9 -45 65 -110 119 -137 36
-19 38 -19 33 -2 -26 84 -71 302 -63 309 5 5 107 -250 107 -268 0 -7 4 -20 10
-28 7 -11 15 -2 34 40 52 112 27 186 -109 323 -43 42 -81 77 -85 77 -4 0 -15
-35 -24 -77z"/>
<path d="M3666 4633 c-136 -135 -162 -211 -110 -323 19 -42 27 -51 34 -40 6 8
10 21 10 28 0 18 102 273 107 268 8 -7 -37 -225 -63 -309 -5 -17 -3 -17 33 2
54 27 110 92 119 137 4 20 4 64 1 98 -7 76 -38 216 -47 216 -4 0 -42 -34 -84
-77z"/>
<path d="M1650 4500 c-7 -39 -10 -105 -8 -145 3 -63 8 -80 33 -115 17 -23 44
-50 60 -60 l31 -19 -27 107 c-54 215 -47 224 22 30 23 -65 45 -116 49 -113 15
9 32 97 27 137 -6 46 -73 150 -135 211 l-40 39 -12 -72z"/>
<path d="M4009 4523 c-68 -73 -120 -156 -126 -202 -5 -40 12 -127 27 -136 4
-3 24 43 45 102 20 59 43 119 51 133 15 25 15 25 8 -10 -3 -19 -18 -83 -33
-142 l-27 -107 31 19 c16 10 44 37 60 60 29 41 30 44 29 158 -1 65 -6 130 -11
145 l-9 29 -45 -49z"/>
<path d="M1419 4298 c-8 -51 -14 -160 -14 -243 0 -142 1 -153 27 -208 25 -53
113 -158 148 -177 13 -7 12 5 -7 80 -27 107 -85 421 -79 427 7 7 108 -308 146
-457 l12 -45 14 27 c19 35 44 144 44 189 0 60 -36 160 -92 252 -63 103 -166
247 -177 247 -4 0 -14 -42 -22 -92z"/>
<path d="M4222 4323 c-180 -247 -227 -360 -204 -494 12 -67 41 -154 49 -146 2
3 15 46 28 97 33 120 125 403 131 397 6 -6 -52 -320 -79 -427 -19 -75 -20 -87
-7 -80 35 19 123 124 148 177 26 55 27 66 27 208 0 146 -20 335 -36 335 -4 0
-29 -30 -57 -67z"/>
<path d="M20 4293 c0 -28 164 -294 245 -398 129 -166 244 -225 435 -225 115 0
124 9 59 51 -97 62 -513 398 -504 407 9 10 463 -267 563 -344 25 -19 47 -33
49 -30 9 8 -49 166 -82 221 -68 116 -173 186 -357 239 -122 35 -408 90 -408
79z"/>
<path d="M5585 4279 c-302 -52 -500 -124 -587 -216 -45 -47 -97 -144 -124
-227 -13 -43 -23 -80 -21 -82 2 -3 24 11 49 30 100 77 554 354 563 344 9 -9
-407 -345 -504 -407 -65 -42 -56 -51 59 -51 191 0 306 59 435 225 88 112 256
389 243 400 -2 1 -52 -6 -113 -16z"/>
<path d="M1011 4238 c-21 -65 -43 -222 -36 -264 3 -23 16 -57 28 -76 20 -30
108 -98 127 -98 4 0 2 17 -5 38 -17 48 -67 284 -61 289 5 5 71 -153 98 -238
13 -38 26 -69 29 -69 4 0 16 22 28 49 31 73 28 145 -8 202 -36 57 -101 130
-151 169 l-38 30 -11 -32z"/>
<path d="M4618 4200 c-104 -103 -138 -159 -138 -228 0 -49 33 -152 49 -152 3
0 16 31 29 69 27 85 93 243 98 238 6 -5 -44 -241 -61 -289 -7 -21 -9 -38 -5
-38 19 0 107 68 127 98 12 19 25 52 28 76 7 44 -18 220 -39 271 l-12 29 -76
-74z"/>
<path d="M2761 4154 c-21 -71 -41 -228 -35 -264 13 -68 61 -127 136 -166 29
-15 31 -15 23 2 -20 50 -79 314 -71 321 5 5 67 -146 96 -235 20 -61 30 -79 37
-70 24 29 45 96 46 144 2 65 -32 119 -142 228 l-79 79 -11 -39z"/>
<path d="M1922 4078 c-74 -214 -93 -373 -55 -459 12 -26 38 -66 59 -89 38 -42
110 -100 124 -100 4 0 1 26 -6 58 -20 85 -56 478 -42 464 10 -11 95 -329 113
-421 8 -47 17 -86 18 -87 7 -7 71 104 88 152 40 112 18 204 -84 356 -59 88
-164 218 -176 218 -3 0 -21 -42 -39 -92z"/>
<path d="M3695 4103 c-78 -94 -163 -224 -191 -291 -42 -102 -27 -209 46 -319
19 -29 35 -51 37 -49 1 1 10 40 18 87 18 93 103 410 114 421 8 9 6 -21 -15
-244 -9 -93 -22 -193 -29 -223 -7 -30 -9 -55 -5 -55 14 0 86 58 124 100 82 91
98 190 57 366 -24 102 -82 274 -92 274 -4 0 -33 -30 -64 -67z"/>
<path d="M2536 3777 c-41 -54 -124 -298 -167 -490 -11 -52 -17 -61 -48 -77
-67 -33 -207 -78 -283 -90 -95 -14 -288 1 -401 31 -84 23 -136 56 -451 288
-76 55 -146 101 -155 101 -23 0 -41 -20 -41 -46 0 -17 69 -76 298 -256 163
-128 362 -277 442 -330 299 -199 486 -386 537 -536 28 -80 12 -339 -98 -1655
-28 -334 -48 -614 -46 -621 8 -20 290 -70 510 -90 l67 -7 -2 1443 -3 1443 -47
60 c-78 100 -79 108 -48 435 26 268 26 398 3 416 -27 20 -40 17 -67 -19z"/>
<path d="M3178 3796 c-25 -18 -23 -154 6 -461 26 -280 24 -292 -51 -388 l-48
-62 -3 -1443 -2 -1444 82 7 c175 14 479 63 495 79 4 3 -4 124 -16 268 -139
1646 -157 1940 -127 2026 25 70 85 153 175 243 108 108 200 180 371 294 75 50
270 195 433 323 303 239 320 255 285 290 -22 22 -45 13 -125 -46 -354 -263
-422 -307 -512 -331 -108 -30 -305 -45 -399 -31 -76 12 -216 57 -283 90 -31
16 -37 25 -48 77 -22 99 -89 325 -117 393 -28 71 -68 130 -87 130 -7 0 -20 -7
-29 -14z"/>
<path d="M1322 3738 c-7 -7 -12 -21 -12 -32 0 -21 212 -441 238 -469 16 -18
149 -63 158 -54 3 3 -15 31 -39 64 -111 146 -211 320 -241 422 -9 29 -21 60
-27 67 -14 17 -61 18 -77 2z"/>
<path d="M4388 3740 c-9 -6 -24 -36 -33 -67 -30 -104 -129 -277 -242 -426 -24
-33 -42 -61 -39 -64 9 -9 142 36 158 54 26 28 238 448 238 469 0 39 -43 56
-82 34z"/>
<path d="M1081 3721 c-10 -6 -12 -19 -7 -45 6 -34 47 -87 156 -207 25 -27 202
-159 214 -159 19 0 -69 140 -160 254 -125 156 -161 184 -203 157z"/>
<path d="M4633 3712 c-42 -22 -232 -260 -272 -341 -17 -33 -28 -61 -25 -61 12
0 189 132 214 159 109 120 150 173 156 207 5 26 3 39 -7 45 -20 12 -30 11 -66
-9z"/>
<path d="M225 3616 c-49 -16 -125 -55 -184 -95 l-44 -29 84 -28 c58 -18 107
-27 159 -28 70 -1 78 1 122 33 54 39 72 67 36 57 -13 -3 -77 -8 -143 -11 -119
-4 -120 -4 -65 10 30 8 89 20 130 26 41 7 79 16 84 21 11 8 -62 43 -109 51
-16 3 -48 0 -70 -7z"/>
<path d="M5382 3611 c-60 -21 -84 -38 -61 -44 8 -3 70 -15 139 -28 116 -22
121 -24 73 -27 -29 -2 -92 1 -140 7 -49 5 -90 8 -92 6 -6 -7 63 -65 98 -81 45
-22 128 -14 240 21 l83 27 -52 35 c-61 41 -162 89 -205 97 -17 3 -52 -2 -83
-13z"/>
<path d="M1793 3554 c-3 -9 7 -101 23 -203 l29 -186 57 -3 56 -3 -50 193 c-27
106 -55 199 -60 206 -15 17 -47 15 -55 -4z"/>
<path d="M3933 3558 c-6 -7 -33 -100 -61 -206 l-50 -193 56 3 57 3 27 170 c32
196 32 229 2 233 -11 2 -26 -3 -31 -10z"/>
<path d="M466 3344 c32 -36 91 -96 131 -134 145 -135 237 -177 373 -167 121 9
122 13 7 69 -100 49 -367 197 -367 204 0 8 355 -134 433 -173 27 -13 51 -22
54 -19 9 8 -48 95 -92 140 -54 56 -119 89 -215 110 -92 20 -234 36 -318 36
l-64 0 58 -66z"/>
<path d="M5080 3399 c-189 -21 -292 -59 -365 -135 -44 -45 -101 -132 -92 -140
3 -3 27 6 54 19 78 39 433 181 433 173 0 -7 -267 -155 -367 -204 -115 -56
-114 -60 7 -69 136 -10 228 32 373 167 40 38 99 98 131 134 l58 66 -79 -1
c-43 -1 -112 -5 -153 -10z"/>
<path d="M904 2940 c-63 -31 -273 -256 -274 -294 0 -13 329 0 373 15 70 24
143 103 176 192 l11 27 -43 -21 c-53 -28 -349 -140 -354 -135 -5 5 202 125
290 167 37 18 67 36 67 40 0 12 -87 29 -147 29 -38 0 -72 -7 -99 -20z"/>
<path d="M4608 2948 c-21 -6 -38 -13 -38 -17 0 -4 30 -22 68 -40 87 -42 294
-162 289 -167 -5 -5 -301 107 -354 135 l-43 21 11 -27 c33 -89 106 -168 176
-192 41 -14 373 -28 373 -16 0 4 -22 37 -49 74 -64 86 -190 207 -235 226 -40
17 -141 18 -198 3z"/>
<path d="M1377 2839 c-115 -27 -179 -97 -248 -271 -25 -64 -80 -270 -74 -277
16 -16 285 68 388 121 126 65 164 131 174 293 l5 90 -73 -71 c-115 -110 -362
-314 -344 -283 33 54 247 304 314 366 l46 42 -75 0 c-41 -1 -92 -5 -113 -10z"/>
<path d="M4201 2808 c70 -65 282 -314 314 -367 18 -31 -229 173 -344 283 l-73
71 5 -90 c10 -162 48 -228 174 -293 103 -53 372 -137 388 -121 6 7 -49 213
-74 277 -84 211 -157 271 -341 279 l-95 4 46 -43z"/>
<path d="M1713 2561 c-54 -34 -193 -227 -179 -249 9 -15 191 -34 250 -27 65 8
109 33 136 77 24 38 46 106 38 114 -4 3 -24 -4 -45 -14 -43 -22 -238 -92 -256
-92 -16 0 154 105 227 141 l60 28 -40 17 c-62 27 -152 29 -191 5z"/>
<path d="M3860 2573 c-8 -3 -30 -12 -49 -20 l-35 -14 60 -28 c73 -36 243 -141
227 -141 -18 0 -213 70 -256 92 -21 10 -41 17 -45 14 -8 -8 14 -76 38 -114 27
-44 71 -69 136 -77 59 -7 241 12 250 27 14 22 -126 216 -179 248 -31 19 -111
26 -147 13z"/>
</g>
</svg>
