<?xml version="1.0" standalone="no"?>
<!DOCTYPE svg PUBLIC "-//W3C//DTD SVG 20010904//EN"
 "http://www.w3.org/TR/2001/REC-SVG-20010904/DTD/svg10.dtd">
<svg version="1.0" xmlns="http://www.w3.org/2000/svg"
 width="640.000000pt" height="640.000000pt" viewBox="0 0 640.000000 640.000000"
 preserveAspectRatio="xMidYMid meet">

<g transform="translate(0.000000,640.000000) scale(0.100000,-0.100000)"
fill="#000000" stroke="none">
<path d="M2753 6385 c-157 -48 -321 -253 -331 -411 -3 -35 -6 -64 -7 -64 -1 0
-21 18 -43 40 -33 34 -46 40 -81 40 -32 0 -44 -5 -57 -25 -31 -47 17 -101 66
-75 22 12 23 31 2 38 -7 2 -12 -3 -12 -12 0 -20 -14 -20 -34 0 -22 21 -20 31
8 49 50 33 114 -27 167 -157 44 -110 91 -183 162 -256 83 -84 134 -115 258
-156 57 -19 92 -35 78 -36 -41 0 -82 -37 -77 -69 4 -24 1 -27 -22 -23 -31 4
-59 -24 -69 -70 -7 -33 -8 -33 -19 20 -7 30 -27 88 -44 130 -27 66 -45 91
-123 169 -87 88 -98 96 -231 159 -76 36 -150 75 -163 87 -35 33 -44 65 -26 93
18 28 28 30 49 8 21 -20 21 -38 0 -30 -11 4 -14 1 -12 -11 5 -27 27 -27 39 1
10 20 9 30 -5 51 -19 29 -42 32 -74 9 -40 -28 -22 -109 33 -152 30 -24 32 -32
5 -32 -12 0 -31 -7 -43 -15 -22 -14 -22 -14 -19 33 5 62 -29 116 -75 120 -25
3 -35 -2 -49 -22 -15 -24 -15 -28 0 -51 23 -35 73 -34 59 1 -4 12 -8 11 -18
-3 -13 -17 -14 -17 -20 -1 -18 46 20 74 60 44 34 -25 26 -112 -22 -231 -22
-55 -46 -124 -52 -153 -16 -75 -14 -217 4 -285 15 -60 62 -161 99 -212 l21
-30 -29 23 c-36 28 -90 29 -108 3 -14 -20 -14 -20 -26 0 -16 25 -71 25 -104 0
-21 -17 -16 -3 29 87 63 125 78 195 69 325 -7 84 -18 128 -85 307 -36 98 -21
180 34 180 31 0 44 -36 21 -58 -15 -15 -16 -15 -16 1 0 10 -4 15 -10 12 -19
-12 -10 -35 13 -35 31 0 47 18 47 52 0 20 -7 32 -24 39 -59 27 -106 -22 -106
-111 l0 -52 -41 37 c-86 77 -196 109 -353 103 -116 -4 -184 -29 -253 -92 -86
-77 -136 -223 -116 -338 6 -35 10 -64 9 -64 0 -1 -29 3 -64 9 -115 20 -261
-30 -338 -116 -63 -69 -88 -137 -92 -253 -6 -157 26 -267 103 -353 l37 -41
-52 0 c-89 0 -138 -47 -111 -106 9 -20 17 -25 42 -22 18 2 38 12 45 23 17 26
3 51 -22 40 -18 -7 -18 -7 -1 -14 17 -6 17 -8 3 -20 -22 -19 -56 -4 -56 24 0
55 82 70 180 34 182 -68 226 -80 309 -85 128 -9 199 6 323 69 90 45 104 50 87
29 -25 -32 -25 -87 0 -104 20 -14 20 -14 0 -26 -27 -17 -25 -72 4 -108 l22
-29 -30 21 c-51 37 -152 84 -212 99 -68 18 -210 20 -285 4 -29 -6 -98 -30
-153 -52 -119 -48 -206 -56 -231 -22 -30 40 -2 78 44 60 16 -6 16 -7 -1 -20
-14 -10 -15 -14 -4 -18 22 -8 38 13 26 34 -29 55 -103 37 -97 -24 4 -46 58
-80 120 -75 47 3 47 3 33 -19 -8 -12 -15 -31 -15 -43 0 -27 -8 -25 -32 5 -43
55 -124 73 -152 33 -23 -32 -20 -55 9 -74 21 -14 31 -15 51 -5 28 12 28 34 1
39 -12 2 -15 -1 -11 -12 8 -21 -10 -21 -30 0 -22 21 -20 31 8 49 28 18 60 9
93 -26 12 -13 51 -87 87 -163 63 -133 71 -144 159 -231 78 -78 103 -96 169
-123 42 -17 100 -37 130 -44 53 -11 53 -12 20 -19 -46 -10 -74 -38 -70 -69 4
-23 1 -26 -23 -22 -31 5 -69 -36 -69 -76 0 -35 -10 -22 -21 28 -5 23 -23 78
-40 121 -25 64 -44 93 -102 155 -84 91 -155 139 -276 189 -141 58 -200 120
-166 171 18 28 28 30 49 8 20 -20 20 -34 0 -34 -9 0 -14 -5 -12 -12 8 -22 28
-20 39 5 23 50 -30 93 -76 63 -20 -13 -25 -25 -25 -56 0 -33 7 -48 40 -84 l40
-44 -64 -4 c-138 -9 -323 -142 -392 -283 -26 -53 -29 -71 -29 -150 1 -80 4
-97 32 -156 32 -66 118 -163 154 -174 24 -8 24 -22 0 -30 -37 -12 -120 -105
-153 -173 -29 -60 -32 -76 -33 -157 0 -79 3 -97 29 -150 69 -141 254 -274 392
-283 l64 -4 -40 -44 c-33 -36 -40 -51 -40 -84 0 -31 5 -43 25 -56 47 -31 101
17 75 66 -12 22 -31 23 -38 2 -2 -7 3 -12 12 -12 20 0 20 -14 0 -34 -21 -22
-31 -20 -49 8 -34 51 25 113 166 171 121 50 192 98 276 189 58 62 77 91 102
155 17 43 35 98 40 121 11 50 21 63 21 28 0 -40 38 -81 69 -76 24 4 27 1 23
-22 -4 -31 24 -59 70 -69 33 -7 33 -8 -20 -19 -30 -7 -88 -27 -130 -44 -66
-27 -91 -45 -169 -123 -88 -87 -96 -98 -159 -231 -36 -76 -75 -150 -87 -163
-33 -35 -65 -44 -93 -26 -28 18 -30 28 -8 49 20 21 38 21 30 0 -4 -11 -1 -14
11 -12 27 5 27 27 -1 39 -20 10 -30 9 -51 -5 -29 -19 -32 -42 -9 -74 28 -40
109 -22 152 33 24 30 32 32 32 5 0 -12 7 -31 15 -43 14 -22 14 -22 -33 -19
-62 5 -116 -29 -120 -75 -6 -61 68 -79 97 -24 12 21 -4 42 -26 34 -11 -4 -10
-8 4 -18 17 -13 17 -14 1 -20 -46 -18 -74 20 -44 60 25 34 112 26 231 -22 55
-22 124 -46 153 -52 75 -16 217 -14 285 4 60 15 161 62 212 99 l30 21 -22 -29
c-29 -36 -30 -90 -4 -108 20 -14 20 -14 0 -26 -25 -16 -25 -71 0 -104 17 -21
3 -16 -87 29 -124 63 -195 78 -323 69 -83 -5 -127 -17 -309 -85 -98 -36 -180
-21 -180 34 0 28 34 43 56 24 14 -12 14 -14 -3 -20 -17 -7 -17 -7 1 -14 25
-11 39 14 22 40 -7 11 -27 21 -45 23 -25 3 -33 -2 -42 -22 -27 -59 22 -106
111 -106 l52 0 -37 -41 c-77 -86 -109 -196 -103 -353 4 -116 29 -184 92 -253
77 -86 223 -136 338 -116 35 6 64 10 64 9 1 0 -3 -29 -9 -64 -20 -115 30 -261
116 -338 69 -63 137 -88 253 -92 157 -6 267 26 353 103 l41 37 0 -52 c0 -89
47 -138 106 -111 17 7 24 19 24 39 0 34 -16 52 -47 52 -23 0 -32 -23 -13 -35
5 -3 10 2 10 12 0 16 1 16 16 1 23 -22 10 -58 -21 -58 -55 0 -70 82 -34 180
67 179 78 223 85 307 9 130 -6 200 -69 325 -45 90 -50 104 -29 87 32 -25 87
-25 104 0 14 20 14 20 26 0 17 -27 72 -25 108 3 l29 23 -21 -30 c-37 -51 -84
-152 -99 -212 -18 -68 -20 -210 -4 -285 6 -29 30 -98 52 -153 48 -119 56 -206
22 -231 -40 -30 -78 -2 -60 44 6 16 7 16 20 -1 10 -14 14 -15 18 -3 14 35 -36
36 -59 1 -15 -23 -15 -27 0 -51 14 -20 24 -25 49 -22 46 4 80 58 75 120 -3 47
-3 47 19 33 12 -8 31 -15 43 -15 27 0 25 -8 -5 -32 -55 -43 -73 -124 -33 -152
32 -23 55 -20 74 9 14 21 15 31 5 51 -12 28 -34 28 -39 1 -2 -12 1 -15 12 -11
21 8 21 -10 0 -30 -21 -22 -31 -20 -49 8 -18 28 -9 60 26 93 13 12 87 51 164
88 133 63 143 70 230 158 78 78 96 103 123 169 17 42 37 100 44 130 11 53 12
53 19 20 10 -46 38 -74 69 -70 23 4 26 1 22 -23 -5 -32 36 -69 77 -69 14 -1
-21 -17 -78 -36 -124 -41 -175 -72 -258 -156 -71 -73 -118 -146 -162 -256 -53
-130 -117 -190 -167 -157 -28 18 -30 28 -8 49 20 20 34 20 34 0 0 -9 5 -14 12
-12 21 7 20 26 -2 38 -49 26 -97 -28 -66 -75 13 -20 25 -25 57 -25 35 0 48 6
81 40 22 22 42 40 43 40 1 0 4 -29 7 -64 8 -137 143 -324 280 -390 117 -57
267 -40 376 42 46 34 102 94 116 125 5 9 7 9 12 0 14 -31 70 -91 116 -125 109
-82 259 -99 376 -42 137 66 272 253 280 390 3 35 6 64 7 64 1 0 21 -18 43 -40
33 -34 46 -40 81 -40 32 0 44 5 57 25 31 47 -17 101 -66 75 -22 -12 -23 -31
-2 -38 7 -2 12 3 12 12 0 20 14 20 34 0 22 -21 20 -31 -8 -49 -51 -34 -113 25
-171 166 -49 118 -98 191 -182 270 -74 69 -137 105 -238 134 -33 10 -69 21
-80 25 -18 8 -17 9 6 9 41 1 82 39 77 70 -4 24 -1 27 22 23 31 -4 59 24 69 70
7 33 8 33 19 -20 7 -30 27 -88 44 -130 27 -66 45 -91 123 -169 87 -88 98 -96
231 -159 76 -36 150 -75 163 -87 35 -33 44 -65 26 -93 -18 -28 -28 -30 -49 -8
-21 20 -21 38 0 30 11 -4 14 -1 12 11 -5 27 -27 27 -39 -1 -10 -20 -9 -30 5
-51 19 -29 42 -32 74 -9 40 28 22 109 -33 152 -30 24 -32 32 -5 32 12 0 31 7
43 15 22 14 22 14 19 -33 -5 -62 29 -116 75 -120 25 -3 35 2 49 22 15 24 15
28 0 51 -23 35 -73 34 -59 -1 4 -12 8 -11 18 3 13 17 14 17 20 1 18 -46 -20
-74 -60 -44 -34 25 -26 112 22 231 22 55 46 124 52 153 16 75 14 217 -4 285
-15 60 -62 161 -99 212 l-21 30 29 -22 c36 -29 90 -30 108 -4 14 20 14 20 26
0 16 -25 71 -25 104 0 21 17 16 3 -29 -87 -63 -125 -78 -195 -69 -325 7 -84
18 -128 85 -307 36 -98 21 -180 -34 -180 -31 0 -44 36 -21 58 15 15 16 15 16
-1 0 -10 5 -15 10 -12 19 12 10 35 -13 35 -31 0 -47 -18 -47 -52 0 -20 7 -32
24 -39 59 -27 106 22 106 111 l0 52 41 -37 c86 -77 196 -109 353 -103 116 4
184 29 253 92 86 77 136 223 116 338 -6 35 -10 64 -9 64 0 1 29 -3 64 -9 115
-20 261 30 338 116 63 69 88 137 92 253 6 157 -26 267 -103 353 l-37 41 52 0
c89 0 138 47 111 106 -9 20 -17 25 -42 22 -18 -2 -38 -12 -45 -23 -17 -26 -3
-51 22 -40 18 7 18 7 1 14 -17 6 -17 8 -3 20 22 19 56 4 56 -24 0 -55 -82 -70
-180 -34 -182 68 -226 80 -309 85 -128 9 -199 -6 -323 -69 -90 -45 -104 -50
-87 -29 25 32 25 87 0 104 -20 14 -20 14 0 26 27 17 25 72 -3 108 l-23 29 30
-21 c51 -37 152 -84 212 -99 68 -18 210 -20 285 -4 29 6 98 30 153 52 119 48
206 56 231 22 30 -40 2 -78 -44 -60 -16 6 -16 7 1 20 14 10 15 14 4 18 -22 8
-38 -13 -26 -34 29 -55 103 -37 97 24 -4 46 -58 80 -120 75 -47 -3 -47 -3 -33
19 8 12 15 31 15 43 0 27 8 25 32 -5 43 -55 124 -73 152 -33 23 32 20 55 -9
74 -21 14 -31 15 -51 5 -28 -12 -28 -34 -1 -39 12 -2 15 1 11 12 -8 21 10 21
30 0 22 -21 20 -31 -8 -49 -28 -18 -60 -9 -93 26 -12 13 -51 87 -88 164 -63
133 -70 143 -158 230 -78 78 -103 96 -169 123 -42 17 -100 37 -130 44 -53 11
-53 12 -20 19 46 10 74 38 70 69 -4 23 -1 26 23 22 31 -5 68 36 70 77 1 19 5
12 16 -24 40 -139 74 -204 147 -282 83 -90 154 -138 275 -188 141 -58 200
-120 166 -171 -18 -28 -28 -30 -49 -8 -20 20 -20 34 0 34 9 0 14 5 12 12 -7
21 -26 20 -38 -2 -26 -49 28 -97 75 -66 20 13 25 25 25 56 0 33 -7 48 -40 84
l-40 43 66 6 c139 11 322 142 388 279 56 115 41 262 -38 373 -31 43 -96 104
-129 119 -9 5 -9 7 0 12 31 14 91 70 125 116 82 109 99 259 42 376 -66 137
-253 272 -390 280 l-64 4 40 44 c33 36 40 51 40 84 0 31 -5 43 -25 56 -47 31
-101 -17 -75 -66 12 -22 31 -23 38 -2 2 7 -3 12 -12 12 -20 0 -20 14 0 34 21
22 31 20 49 -8 34 -51 -25 -113 -166 -171 -121 -50 -192 -98 -275 -188 -73
-78 -107 -143 -147 -282 -11 -36 -15 -43 -16 -24 -2 41 -39 82 -70 77 -24 -4
-27 -1 -23 22 4 31 -24 59 -70 69 -33 7 -33 8 20 19 30 7 88 27 130 44 66 27
91 45 169 123 88 87 96 98 159 231 36 76 75 150 87 163 33 35 65 44 93 26 28
-18 30 -28 8 -49 -20 -21 -38 -21 -30 0 4 11 1 14 -11 12 -27 -5 -27 -27 1
-39 20 -10 30 -9 51 5 29 19 32 42 9 74 -28 40 -109 22 -152 -33 -24 -30 -32
-32 -32 -5 0 12 -7 31 -15 43 -14 22 -14 22 33 19 62 -5 116 29 120 75 6 61
-68 79 -97 24 -12 -21 4 -42 26 -34 11 4 10 8 -4 18 -17 13 -17 14 -1 20 46
18 74 -20 44 -60 -25 -34 -112 -26 -231 22 -55 22 -124 46 -153 52 -75 16
-217 14 -285 -4 -60 -15 -161 -62 -212 -99 l-30 -21 23 29 c28 36 29 90 3 108
-20 14 -20 14 0 26 25 16 25 71 0 104 -17 21 -3 16 87 -29 125 -63 195 -78
325 -69 84 7 128 18 307 85 98 36 180 21 180 -34 0 -28 -34 -43 -56 -24 -14
12 -14 14 3 20 17 7 17 7 -1 14 -25 11 -39 -14 -22 -40 7 -11 27 -21 45 -23
25 -3 33 2 42 22 27 59 -22 106 -111 106 l-52 0 37 41 c77 86 109 196 103 353
-4 116 -29 184 -92 253 -77 86 -223 136 -338 116 -35 -6 -64 -10 -64 -9 -1 0
3 29 9 64 20 115 -30 261 -116 338 -69 63 -137 88 -253 92 -157 6 -267 -26
-353 -103 l-41 -37 0 52 c0 89 -47 138 -106 111 -17 -7 -24 -19 -24 -39 0 -34
16 -52 47 -52 23 0 32 23 13 35 -5 3 -10 -2 -10 -12 0 -16 -1 -16 -16 -1 -23
22 -10 58 21 58 55 0 70 -82 34 -180 -67 -179 -78 -223 -85 -307 -9 -130 6
-200 69 -325 45 -90 50 -104 29 -87 -32 25 -87 25 -104 0 -14 -20 -14 -20 -26
0 -17 27 -72 25 -108 -3 l-29 -23 21 30 c37 51 84 152 99 212 18 68 20 210 4
285 -6 29 -30 98 -52 153 -48 119 -56 206 -22 231 40 30 78 2 60 -44 -6 -16
-7 -16 -20 1 -10 14 -14 15 -18 3 -14 -35 36 -36 59 -1 15 23 15 27 0 51 -14
20 -24 25 -49 22 -46 -4 -80 -58 -75 -120 3 -47 3 -47 -19 -33 -12 8 -31 15
-43 15 -27 0 -25 8 5 32 55 43 73 124 33 152 -32 23 -55 20 -74 -9 -14 -21
-15 -31 -5 -51 12 -28 34 -28 39 -1 2 12 -1 15 -12 11 -21 -8 -21 10 0 30 21
22 31 20 49 -8 18 -28 9 -60 -26 -93 -13 -12 -87 -51 -164 -88 -133 -63 -143
-70 -230 -158 -78 -78 -96 -103 -123 -169 -17 -42 -37 -100 -44 -130 -11 -53
-12 -53 -19 -20 -10 46 -38 74 -69 70 -23 -4 -26 -1 -22 23 5 31 -36 69 -77
70 -23 0 -24 1 -6 9 11 4 47 15 80 25 101 29 164 65 238 134 84 79 133 152
182 270 58 141 120 200 171 166 28 -18 30 -28 8 -49 -20 -20 -34 -20 -34 0 0
9 -5 14 -12 12 -22 -8 -20 -28 5 -39 50 -23 93 30 63 76 -13 20 -25 25 -57 25
-35 0 -48 -6 -81 -40 -22 -22 -42 -40 -43 -40 -1 0 -4 29 -7 64 -8 137 -143
324 -280 390 -115 56 -262 41 -373 -38 -43 -31 -104 -96 -119 -129 -5 -9 -7
-9 -12 0 -3 6 -20 30 -38 53 -93 118 -270 177 -403 135z m152 -6 c108 -20 225
-100 271 -184 10 -19 21 -35 24 -35 3 0 14 16 24 35 65 119 239 206 372 185
202 -33 394 -291 368 -494 -9 -68 -46 -166 -83 -219 -63 -88 -70 -89 -26 -2
100 199 97 392 -7 510 -57 65 -90 79 -170 76 -15 -1 -42 -13 -58 -28 -57 -51
-35 -133 37 -133 35 0 73 28 73 54 0 15 -40 49 -49 41 -2 -3 4 -14 13 -24 17
-18 17 -20 -3 -40 -25 -25 -39 -26 -69 -5 -54 38 3 124 83 124 39 0 99 -35
138 -80 52 -61 71 -133 64 -244 -8 -111 -26 -175 -75 -260 -84 -147 -132 -192
-250 -236 -60 -23 -231 -55 -240 -45 -3 3 2 19 12 36 18 30 18 32 -3 60 -11
15 -21 37 -21 49 0 25 -11 25 -38 3 -37 -32 -38 -66 -1 -108 38 -43 33 -49
-45 -59 -50 -5 -150 5 -163 17 -3 4 9 23 26 43 37 41 36 75 -1 107 -27 22 -38
22 -38 -3 0 -12 -10 -34 -21 -49 -21 -28 -21 -30 -3 -60 10 -17 15 -33 12 -36
-9 -10 -180 22 -240 45 -118 44 -166 89 -250 236 -49 85 -67 149 -75 260 -7
111 12 183 64 244 39 45 99 80 138 80 80 0 137 -86 83 -124 -30 -21 -44 -20
-69 5 -20 20 -20 22 -3 40 9 10 15 21 13 24 -9 8 -49 -26 -49 -41 0 -26 38
-54 73 -54 43 0 70 29 69 72 -2 76 -110 116 -193 72 -42 -21 -106 -100 -124
-152 -42 -123 -25 -267 50 -417 44 -87 37 -86 -26 2 -37 53 -74 151 -83 219
-25 200 166 460 363 494 25 4 46 8 47 9 0 0 27 -4 59 -10z m-1323 -593 c150
-32 252 -110 314 -239 31 -66 54 -158 54 -212 -1 -11 -13 18 -29 65 -39 120
-65 165 -135 238 -143 149 -325 172 -409 52 -26 -37 -22 -96 8 -125 30 -30 54
-31 89 -4 48 38 28 121 -26 103 l-23 -8 25 -6 c21 -5 25 -12 25 -40 0 -64 -73
-74 -96 -13 -15 39 -2 78 36 112 88 77 247 43 352 -74 62 -67 109 -140 127
-195 78 -237 60 -354 -85 -547 -22 -29 -43 -53 -47 -53 -4 0 -12 14 -17 32 -8
25 -18 34 -45 41 -19 5 -40 13 -47 19 -29 23 -44 -23 -22 -65 16 -30 28 -37
71 -37 20 0 39 -4 42 -9 14 -23 -143 -179 -166 -165 -4 3 -8 23 -8 44 0 30 -6
43 -26 59 -41 33 -100 24 -77 -11 4 -7 13 -29 18 -48 8 -27 18 -37 43 -45 17
-5 32 -13 32 -17 0 -4 -24 -25 -52 -47 -194 -145 -311 -163 -548 -85 -55 18
-128 65 -195 127 -117 105 -151 264 -74 352 34 38 73 51 112 36 61 -23 51 -96
-13 -96 -28 0 -35 4 -40 25 l-6 25 -8 -23 c-18 -54 65 -74 103 -26 27 35 26
59 -4 89 -17 18 -35 25 -62 25 -95 0 -159 -105 -134 -220 17 -78 53 -140 123
-206 73 -70 118 -96 238 -135 91 -30 76 -37 -31 -15 -192 41 -314 163 -355
356 -43 202 27 375 183 452 60 29 75 32 157 33 50 0 105 -3 123 -7 32 -7 32
-7 25 25 -4 18 -7 73 -7 122 1 75 5 99 27 146 77 167 248 239 460 195z m3510
-16 c78 -29 140 -87 180 -167 29 -60 32 -75 33 -157 0 -50 -3 -105 -7 -123 -7
-32 -7 -32 25 -25 18 4 73 7 123 7 82 -1 97 -4 157 -33 118 -58 181 -158 193
-305 7 -87 -13 -190 -52 -273 -53 -113 -172 -200 -313 -230 -107 -22 -122 -15
-30 15 119 39 179 74 249 147 109 114 145 246 91 340 -42 75 -127 99 -176 49
-30 -30 -31 -54 -4 -89 38 -48 121 -28 103 26 l-8 23 -6 -25 c-5 -21 -12 -25
-40 -25 -64 0 -74 73 -13 96 39 15 78 2 112 -36 77 -88 43 -247 -74 -352 -67
-62 -140 -109 -195 -127 -237 -78 -354 -60 -547 85 -29 22 -53 43 -53 47 0 4
15 12 32 17 25 8 35 18 43 45 5 19 14 41 18 48 23 35 -36 44 -77 11 -20 -16
-26 -29 -26 -59 0 -21 -4 -41 -9 -44 -23 -15 -180 142 -165 165 3 5 22 9 42 9
43 0 55 7 71 37 22 42 7 88 -22 65 -7 -6 -28 -14 -47 -19 -27 -7 -37 -16 -45
-41 -5 -18 -13 -32 -17 -32 -4 0 -25 24 -47 53 -145 193 -163 310 -85 547 18
55 65 128 127 195 105 117 264 151 352 74 38 -34 51 -73 36 -112 -23 -61 -96
-51 -96 13 0 28 4 35 25 40 l25 6 -23 8 c-54 18 -74 -65 -26 -103 35 -27 59
-26 89 4 18 17 25 35 25 62 0 95 -105 159 -220 134 -78 -17 -140 -53 -206
-123 -70 -73 -96 -118 -135 -238 -30 -91 -37 -76 -15 31 50 237 241 378 491
365 48 -3 104 -13 137 -26z m-2826 -91 c73 -13 186 -67 239 -114 l40 -36 -66
35 c-84 46 -164 73 -238 82 l-59 6 -45 -61 c-42 -56 -82 -144 -106 -231 l-9
-35 -1 35 c-2 85 51 219 116 290 39 44 43 45 129 29z m1997 -29 c64 -70 118
-203 117 -290 -1 -29 -6 -19 -29 52 -30 91 -61 150 -110 207 l-29 35 -78 -12
c-58 -9 -105 -25 -179 -62 -100 -49 -100 -49 -60 -15 51 45 166 101 230 113
90 17 100 15 138 -28z m-1958 -35 c55 -10 102 -28 163 -62 165 -93 225 -178
264 -373 12 -60 19 -113 15 -116 -7 -7 -22 -1 -49 18 -14 10 -22 8 -47 -10
-17 -12 -39 -22 -51 -22 -11 0 -20 -2 -20 -4 0 -32 56 -70 87 -59 10 3 30 17
45 31 14 13 31 21 36 18 6 -3 13 -39 17 -78 10 -110 51 -305 79 -375 13 -35
41 -90 62 -124 41 -68 150 -186 162 -175 4 4 -10 21 -31 38 -80 64 -167 216
-207 360 -17 62 -41 205 -54 316 -5 52 8 61 62 43 53 -18 88 -2 101 45 13 48
6 59 -22 33 -17 -16 -31 -20 -61 -16 -22 3 -48 1 -58 -4 -16 -9 -18 -4 -18 52
0 44 5 68 17 81 30 33 73 16 73 -29 0 -17 -6 -23 -21 -23 -15 0 -19 5 -15 15
6 17 -9 21 -19 5 -9 -15 14 -40 36 -40 23 0 42 34 34 61 -6 18 -4 20 14 14 11
-3 29 -1 41 5 24 13 27 55 4 64 -18 7 -34 0 -34 -15 0 -6 5 -7 10 -4 15 9 30
-4 23 -20 -11 -31 -73 -11 -73 24 0 34 31 51 96 51 62 0 63 -1 55 -22 -4 -13
-6 -39 -4 -58 3 -25 -1 -41 -16 -56 -25 -28 -19 -34 26 -24 57 13 60 21 51
129 l-3 34 125 0 125 0 -3 -34 c-9 -108 -6 -116 51 -129 45 -10 51 -4 26 24
-15 15 -19 31 -16 56 2 19 0 45 -4 58 -8 21 -7 22 53 22 65 0 98 -17 98 -50 0
-36 -61 -57 -73 -25 -7 16 8 29 23 20 6 -3 10 -2 10 4 0 15 -16 22 -34 15 -23
-9 -20 -51 4 -64 12 -6 30 -8 41 -5 18 6 20 4 14 -14 -8 -27 11 -61 34 -61 22
0 45 25 36 40 -10 16 -25 12 -19 -5 4 -10 0 -15 -15 -15 -15 0 -21 6 -21 23 0
44 38 61 72 30 14 -12 18 -31 18 -79 0 -62 -1 -63 -22 -55 -13 4 -39 6 -58 4
-26 -3 -41 1 -57 16 -28 26 -35 15 -22 -33 13 -47 48 -63 101 -45 54 18 67 9
62 -43 -13 -111 -37 -254 -54 -316 -40 -144 -127 -296 -207 -360 -21 -17 -35
-34 -31 -38 12 -11 121 107 162 175 21 34 49 89 62 124 28 70 69 265 79 375 4
39 11 75 17 78 5 3 22 -5 36 -18 38 -35 59 -40 93 -23 16 9 29 17 29 19 0 3 3
11 6 20 4 12 0 16 -15 16 -12 0 -35 10 -51 21 -28 21 -39 21 -72 -3 -9 -7 -20
-9 -24 -5 -4 4 2 57 14 117 39 195 99 280 265 373 69 39 105 52 176 65 105 18
100 21 165 -76 59 -87 98 -215 99 -327 1 -100 -22 -162 -105 -286 -59 -89 -88
-110 -88 -65 0 28 -15 42 -55 52 -17 4 -36 11 -43 17 -17 14 -25 3 -25 -35 0
-39 33 -68 79 -68 18 0 36 -5 39 -10 4 -6 -13 -36 -37 -66 -80 -102 -160 -219
-194 -286 -59 -117 -96 -293 -78 -375 7 -32 9 -19 15 72 8 133 43 240 123 371
63 104 186 264 203 264 7 0 24 -18 38 -40 36 -57 58 -66 102 -43 48 25 54 43
14 43 -22 0 -39 9 -57 30 -15 16 -35 32 -46 36 -16 5 -13 11 24 50 33 35 49
44 75 44 27 0 34 -5 39 -26 8 -30 -16 -60 -40 -51 -21 8 -20 27 1 27 14 0 15
2 4 13 -10 10 -15 8 -26 -6 -32 -43 25 -76 60 -35 l22 25 21 -24 c24 -27 49
-27 66 -1 8 14 7 22 -6 35 -10 9 -21 13 -25 9 -4 -4 -1 -11 6 -15 16 -10 6
-31 -15 -31 -20 0 -34 40 -22 63 17 33 65 21 112 -28 27 -27 38 -45 29 -45 -8
0 -29 -16 -46 -35 -22 -25 -39 -35 -60 -35 -36 0 -32 -18 10 -43 41 -23 77 -8
104 45 11 21 24 38 29 38 13 0 180 -167 180 -180 0 -5 -17 -18 -38 -29 -53
-27 -68 -63 -45 -104 24 -40 38 -44 41 -10 1 17 16 41 37 60 19 18 35 39 35
47 0 8 19 -4 45 -30 49 -47 61 -95 28 -112 -26 -14 -63 3 -63 28 0 22 26 28
33 8 2 -7 8 -10 13 -5 4 4 0 15 -9 25 -13 13 -21 14 -35 6 -26 -17 -26 -42 1
-66 l24 -21 -25 -22 c-41 -35 -8 -92 35 -60 14 11 16 16 6 26 -11 11 -13 10
-13 -4 0 -21 -19 -22 -27 -1 -9 24 21 48 51 40 21 -5 26 -12 26 -39 0 -26 -9
-42 -44 -75 -39 -37 -45 -40 -50 -24 -4 11 -20 31 -36 46 -28 24 -35 42 -31
75 4 25 -23 5 -42 -32 -23 -44 -14 -66 43 -102 22 -14 40 -31 40 -38 0 -17
-160 -140 -264 -203 -131 -80 -238 -115 -371 -123 -91 -6 -104 -8 -72 -15 47
-10 149 0 239 25 118 33 225 94 395 226 46 36 87 62 93 58 5 -3 10 -21 10 -39
0 -46 29 -79 68 -79 38 0 49 8 35 25 -6 7 -13 26 -17 43 -10 40 -24 55 -52 55
-14 0 -24 6 -24 14 0 20 164 128 237 157 124 48 330 15 465 -77 97 -65 94 -60
76 -165 -29 -162 -141 -326 -265 -388 -62 -31 -276 -81 -289 -68 -7 7 -1 22
18 49 10 14 8 22 -10 47 -12 17 -22 39 -22 51 0 11 -2 20 -4 20 -32 0 -70 -56
-59 -87 3 -10 17 -30 31 -45 13 -14 21 -31 18 -36 -3 -6 -39 -13 -78 -17 -110
-10 -305 -51 -375 -79 -35 -13 -90 -41 -124 -62 -68 -41 -186 -150 -175 -162
4 -4 21 10 38 31 64 80 216 167 360 207 62 17 205 41 316 54 52 5 61 -8 43
-62 -18 -53 -2 -88 45 -101 48 -13 59 -6 33 22 -16 17 -20 31 -16 61 3 22 1
48 -4 58 -9 16 -4 18 52 18 44 0 68 -5 81 -17 33 -30 16 -73 -29 -73 -17 0
-23 6 -23 21 0 15 5 19 15 15 17 -6 21 9 5 19 -15 9 -40 -14 -40 -36 0 -23 34
-42 61 -34 18 6 20 4 14 -14 -3 -11 -1 -29 5 -41 13 -24 55 -27 64 -4 7 18 0
34 -15 34 -6 0 -7 -4 -4 -10 9 -15 -4 -30 -20 -23 -31 11 -11 73 24 73 34 0
51 -31 51 -96 0 -62 -1 -63 -22 -55 -13 4 -39 6 -58 4 -25 -3 -41 1 -56 16
-28 25 -34 19 -24 -26 13 -57 21 -60 129 -51 l34 3 0 -125 0 -125 -34 3 c-108
9 -116 6 -129 -51 -10 -45 -4 -51 24 -26 15 15 31 19 56 16 19 -2 45 0 58 4
21 8 22 7 22 -53 0 -65 -17 -98 -50 -98 -36 0 -57 61 -25 73 16 7 29 -8 20
-23 -3 -5 -2 -10 4 -10 15 0 22 16 15 34 -9 23 -51 20 -64 -4 -6 -12 -8 -30
-5 -41 6 -18 4 -20 -14 -14 -27 8 -61 -11 -61 -34 0 -22 25 -45 40 -36 16 10
12 25 -5 19 -10 -4 -15 0 -15 15 0 15 6 21 23 21 44 0 61 -38 30 -72 -12 -14
-31 -18 -80 -18 -58 0 -63 2 -54 18 5 10 7 36 4 58 -4 30 0 44 16 61 26 28 15
35 -33 22 -47 -13 -63 -48 -45 -101 18 -54 9 -67 -43 -62 -111 13 -254 37
-316 54 -144 40 -296 127 -360 207 -17 21 -34 35 -38 31 -11 -12 107 -121 175
-162 34 -21 89 -49 124 -62 70 -28 265 -69 375 -79 39 -4 75 -11 78 -17 3 -5
-5 -22 -18 -36 -35 -38 -40 -59 -23 -93 9 -16 17 -29 19 -29 3 0 11 -3 20 -6
12 -4 16 0 16 15 0 12 10 35 21 51 21 28 21 39 -3 72 -7 9 -9 20 -5 24 4 4 57
-2 117 -14 195 -39 280 -99 373 -265 39 -69 52 -105 65 -176 18 -105 20 -101
-77 -166 -88 -58 -216 -97 -326 -98 -100 -1 -162 22 -286 105 -89 59 -110 88
-65 88 28 0 42 15 52 55 4 17 11 36 17 43 14 17 3 25 -35 25 -39 0 -68 -33
-68 -79 0 -18 -4 -36 -10 -39 -5 -3 -47 23 -92 58 -226 174 -364 238 -550 253
-42 3 -84 2 -98 -4 -20 -9 -8 -11 60 -11 145 -1 285 -50 443 -154 115 -77 217
-158 217 -174 0 -7 -18 -24 -40 -38 -57 -36 -66 -58 -43 -102 19 -37 46 -57
42 -32 -4 33 3 51 31 75 16 15 32 35 36 46 5 16 11 13 50 -24 35 -33 44 -49
44 -75 0 -27 -5 -34 -26 -39 -30 -8 -60 16 -51 40 8 21 27 20 27 -1 0 -14 2
-15 13 -4 10 10 8 15 -6 26 -43 32 -76 -25 -35 -60 l25 -22 -24 -21 c-27 -24
-27 -49 -1 -66 14 -8 22 -7 35 6 9 10 13 21 9 25 -4 4 -11 1 -15 -6 -10 -16
-31 -6 -31 15 0 20 40 34 63 22 33 -17 21 -65 -28 -112 -26 -26 -45 -38 -45
-30 0 8 -16 29 -35 47 -21 19 -36 43 -37 60 -3 34 -17 30 -41 -10 -23 -41 -8
-77 45 -104 21 -11 38 -24 38 -29 0 -13 -167 -180 -180 -180 -5 0 -18 17 -29
38 -27 53 -63 68 -104 45 -42 -25 -46 -43 -10 -43 21 0 38 -10 60 -35 17 -19
38 -35 46 -35 9 0 -2 -18 -29 -45 -47 -49 -95 -61 -112 -27 -14 25 3 62 28 62
22 0 28 -26 8 -33 -7 -2 -10 -8 -5 -13 4 -4 15 0 25 9 13 13 14 21 6 35 -17
26 -42 26 -66 -1 l-21 -24 -22 25 c-35 41 -92 8 -60 -35 11 -14 16 -16 26 -6
11 11 10 13 -4 13 -21 0 -22 19 -1 27 24 9 48 -21 40 -51 -5 -21 -12 -26 -39
-26 -26 0 -42 9 -75 44 -37 39 -40 45 -24 50 11 4 31 20 46 36 18 21 35 30 57
30 40 0 34 18 -14 43 -44 23 -66 14 -102 -43 -14 -22 -31 -40 -38 -40 -17 0
-140 160 -203 264 -80 131 -115 238 -123 371 -6 91 -8 104 -15 72 -10 -47 0
-149 25 -239 33 -118 94 -225 226 -395 36 -46 62 -87 58 -93 -3 -5 -21 -10
-39 -10 -46 0 -79 -29 -79 -68 0 -38 8 -49 25 -35 7 6 26 13 43 17 40 10 55
24 55 52 0 14 6 24 14 24 20 0 128 -164 157 -237 48 -124 15 -330 -77 -465
-65 -97 -60 -94 -165 -76 -162 29 -326 141 -388 265 -31 63 -81 276 -67 290 3
4 20 -1 37 -11 30 -18 32 -18 60 3 15 11 37 21 49 21 11 0 20 2 20 4 0 32 -56
70 -87 59 -10 -3 -30 -17 -45 -31 -14 -13 -31 -21 -36 -18 -6 3 -13 39 -17 78
-10 110 -51 305 -79 375 -13 35 -41 90 -62 124 -41 68 -150 186 -162 175 -4
-4 10 -21 31 -38 80 -64 167 -216 207 -360 17 -62 41 -205 54 -316 5 -52 -8
-61 -62 -43 -53 18 -88 2 -101 -45 -13 -48 -6 -59 22 -33 17 16 31 20 61 16
22 -3 48 -1 58 4 16 9 18 4 18 -52 0 -44 -5 -68 -17 -81 -30 -33 -73 -16 -73
29 0 17 6 23 21 23 15 0 19 -5 15 -15 -6 -17 9 -21 19 -5 9 15 -14 40 -36 40
-23 0 -42 -34 -34 -61 6 -18 4 -20 -14 -14 -11 3 -29 1 -41 -5 -24 -13 -27
-55 -4 -64 18 -7 34 0 34 15 0 6 -5 7 -10 4 -15 -9 -30 4 -23 20 11 31 73 11
73 -24 0 -34 -31 -51 -96 -51 -62 0 -63 1 -55 23 4 12 6 38 4 57 -3 25 1 41
16 56 25 28 19 34 -26 24 -57 -13 -60 -21 -51 -129 l3 -34 -125 0 -125 0 3 34
c9 108 6 116 -51 129 -45 10 -51 4 -26 -24 15 -15 19 -31 16 -56 -2 -19 0 -45
4 -57 8 -22 7 -23 -53 -23 -65 0 -98 17 -98 50 0 36 61 57 73 25 7 -16 -8 -29
-23 -20 -5 3 -10 2 -10 -4 0 -15 16 -22 34 -15 23 9 20 51 -4 64 -12 6 -30 8
-41 5 -18 -6 -20 -4 -14 14 8 27 -11 61 -34 61 -22 0 -45 -25 -36 -40 10 -16
25 -12 19 5 -4 10 0 15 15 15 15 0 21 -6 21 -23 0 -44 -38 -61 -72 -30 -14 12
-18 31 -18 80 0 58 2 63 18 54 10 -5 36 -7 58 -4 30 4 44 0 61 -16 28 -26 35
-15 22 33 -13 47 -48 63 -101 45 -54 -18 -67 -9 -62 43 13 111 37 254 54 316
40 144 127 296 207 360 21 17 35 34 31 38 -12 11 -121 -107 -162 -175 -21 -34
-49 -89 -62 -124 -28 -70 -69 -265 -79 -375 -4 -39 -11 -75 -17 -78 -5 -3 -22
5 -36 18 -38 35 -59 40 -93 23 -16 -9 -29 -17 -29 -19 0 -3 -3 -11 -6 -20 -4
-12 0 -16 15 -16 12 0 35 -10 50 -21 28 -21 30 -21 60 -3 17 10 34 15 37 11 4
-4 -2 -57 -14 -117 -39 -195 -99 -280 -266 -373 -70 -40 -104 -52 -176 -64
-105 -18 -99 -20 -164 75 -92 135 -125 341 -77 465 29 73 137 237 157 237 8 0
14 -10 14 -24 0 -28 15 -42 55 -52 17 -4 36 -11 43 -17 17 -14 25 -3 25 35 0
39 -33 68 -79 68 -18 0 -36 5 -39 10 -4 6 22 47 58 93 132 170 193 277 226
395 25 90 35 192 25 239 -7 32 -9 19 -15 -72 -8 -133 -43 -240 -123 -371 -63
-104 -186 -264 -203 -264 -7 0 -24 18 -38 40 -36 57 -58 66 -102 43 -48 -25
-54 -43 -14 -43 22 0 39 -9 57 -30 15 -16 35 -32 46 -36 16 -5 13 -11 -24 -50
-33 -35 -49 -44 -75 -44 -27 0 -34 5 -39 26 -8 30 16 60 40 51 21 -8 20 -27
-1 -27 -14 0 -15 -2 -4 -13 10 -10 15 -8 26 6 32 43 -25 76 -60 35 l-22 -25
-21 24 c-24 27 -49 27 -66 1 -8 -14 -7 -22 6 -35 10 -9 21 -13 25 -9 5 5 2 11
-4 13 -21 7 -15 33 7 33 25 0 42 -37 28 -62 -17 -34 -65 -22 -112 27 -27 27
-38 45 -29 45 8 0 29 16 46 35 22 25 39 35 60 35 36 0 32 18 -10 43 -41 23
-77 8 -104 -45 -11 -21 -24 -38 -29 -38 -13 0 -180 167 -180 180 0 5 17 18 38
29 53 27 68 63 45 104 -25 42 -43 46 -43 10 0 -21 -10 -38 -35 -60 -19 -17
-35 -38 -35 -46 0 -9 -18 2 -45 29 -49 47 -61 95 -27 112 25 14 62 -3 62 -28
0 -22 -26 -28 -33 -7 -2 6 -8 9 -13 4 -4 -4 0 -15 9 -25 13 -13 21 -14 35 -6
26 17 26 42 -1 66 l-24 21 25 22 c41 35 8 92 -35 60 -14 -11 -16 -16 -5 -26
10 -11 12 -10 12 4 0 21 19 22 27 1 9 -24 -21 -48 -51 -40 -21 5 -26 12 -26
39 0 26 9 42 44 75 39 37 45 40 50 24 4 -11 20 -31 36 -46 28 -24 35 -42 31
-75 -4 -25 23 -5 42 32 23 44 14 66 -43 102 -22 14 -40 31 -40 38 0 16 102 97
217 174 158 104 298 153 443 154 68 0 80 2 60 11 -34 14 -159 3 -249 -22 -121
-34 -227 -94 -398 -227 -46 -36 -87 -62 -93 -58 -5 3 -10 21 -10 39 0 46 -29
79 -68 79 -38 0 -49 -8 -35 -25 6 -7 13 -26 17 -43 10 -40 24 -55 52 -55 45 0
24 -29 -65 -88 -124 -83 -186 -106 -286 -105 -112 1 -240 40 -327 99 -97 65
-94 60 -76 165 29 162 141 326 265 388 62 31 276 81 289 68 7 -7 1 -22 -18
-49 -10 -14 -8 -22 10 -47 12 -17 22 -39 22 -51 0 -11 2 -20 4 -20 32 0 70 56
59 87 -3 10 -17 30 -31 45 -13 14 -21 31 -18 36 3 6 39 13 78 17 110 10 305
51 375 79 35 13 90 41 124 62 68 41 186 150 175 162 -4 4 -21 -10 -38 -31 -64
-80 -216 -167 -360 -207 -62 -17 -205 -41 -316 -54 -52 -5 -61 8 -43 62 18 53
2 88 -45 101 -48 13 -59 6 -33 -22 16 -17 20 -31 16 -61 -3 -22 -1 -48 4 -58
9 -16 4 -18 -52 -18 -44 0 -68 5 -81 17 -33 30 -16 73 29 73 17 0 23 -6 23
-21 0 -15 -5 -19 -15 -15 -17 6 -21 -9 -5 -19 15 -9 40 14 40 36 0 23 -34 42
-61 34 -18 -6 -20 -4 -14 14 3 11 1 29 -5 41 -13 24 -55 27 -64 4 -7 -18 0
-34 15 -34 6 0 7 5 4 10 -9 15 4 30 20 23 31 -11 11 -73 -24 -73 -34 0 -51 31
-51 96 0 62 1 63 23 55 12 -4 38 -6 57 -4 25 3 41 -1 56 -16 28 -25 34 -19 24
26 -13 57 -21 60 -129 51 l-34 -3 0 125 0 125 34 -3 c108 -9 116 -6 129 51 10
45 4 51 -24 26 -15 -15 -31 -19 -56 -16 -19 2 -45 0 -57 -4 -22 -8 -23 -7 -23
53 0 65 17 98 50 98 36 0 57 -61 25 -73 -16 -7 -29 8 -20 23 3 6 2 10 -4 10
-15 0 -22 -16 -15 -34 9 -23 51 -20 64 4 6 12 8 30 5 41 -6 18 -4 20 14 14 27
-8 61 11 61 34 0 22 -25 45 -40 36 -16 -10 -12 -25 5 -19 10 4 15 0 15 -15 0
-15 -6 -21 -23 -21 -44 0 -61 38 -30 72 12 14 31 18 80 18 58 0 63 -2 54 -18
-5 -10 -7 -36 -4 -58 4 -30 0 -44 -16 -61 -26 -28 -15 -35 33 -22 47 13 63 48
45 101 -18 54 -9 67 43 62 111 -13 254 -37 316 -54 144 -40 296 -127 360 -207
17 -21 34 -35 38 -31 11 12 -107 121 -175 162 -34 21 -89 49 -124 62 -70 28
-265 69 -375 79 -39 4 -75 11 -78 17 -3 5 5 22 18 36 35 38 40 59 23 93 -9 16
-17 29 -19 29 -3 0 -11 3 -20 6 -12 4 -16 0 -16 -15 0 -12 -10 -35 -21 -51
-21 -28 -21 -39 3 -72 7 -9 9 -20 5 -24 -4 -4 -57 2 -117 14 -195 39 -280 99
-373 265 -39 69 -52 105 -65 176 -18 105 -21 100 76 165 135 92 341 125 465
77 73 -29 237 -137 237 -157 0 -8 -10 -14 -24 -14 -28 0 -42 -15 -52 -55 -4
-17 -11 -36 -17 -43 -14 -17 -3 -25 35 -25 39 0 68 33 68 79 0 18 4 36 10 39
5 3 47 -23 92 -58 171 -132 278 -193 396 -226 90 -25 192 -35 239 -25 32 7 19
9 -72 15 -133 8 -240 43 -371 123 -104 63 -264 186 -264 203 0 7 18 24 40 38
57 36 66 58 43 102 -19 37 -46 57 -42 32 4 -33 -3 -51 -31 -75 -16 -15 -32
-35 -36 -46 -5 -16 -11 -13 -50 24 -35 33 -44 49 -44 75 0 27 5 34 26 39 30 8
60 -16 51 -40 -8 -21 -27 -20 -27 1 0 14 -2 15 -12 4 -11 -10 -9 -15 5 -26 43
-32 76 25 35 60 l-25 22 24 21 c27 24 27 49 1 66 -14 8 -22 7 -35 -6 -9 -10
-13 -21 -9 -25 5 -5 11 -2 13 5 7 20 33 14 33 -8 0 -25 -37 -42 -62 -28 -34
17 -22 65 27 112 27 27 45 38 45 29 0 -8 16 -29 35 -46 25 -22 35 -39 35 -60
0 -36 18 -32 43 10 23 41 8 77 -45 104 -21 11 -38 24 -38 29 0 13 167 180 180
180 5 0 18 -17 29 -38 27 -53 63 -68 104 -45 42 25 46 43 10 43 -21 0 -38 10
-60 35 -17 19 -38 35 -46 35 -9 0 2 18 29 45 47 49 95 61 112 28 14 -26 -3
-63 -28 -63 -22 0 -28 26 -7 33 6 2 9 8 4 13 -4 4 -15 0 -25 -9 -13 -13 -14
-21 -6 -35 17 -26 42 -26 66 1 l21 24 22 -25 c35 -41 92 -8 60 35 -11 14 -16
16 -26 6 -11 -11 -10 -13 4 -13 21 0 22 -19 2 -26 -19 -8 -45 13 -45 35 1 60
58 59 117 -2 38 -40 42 -46 25 -51 -11 -4 -31 -20 -46 -36 -18 -21 -35 -30
-57 -30 -40 0 -34 -18 14 -43 44 -23 66 -14 102 43 14 22 31 40 38 40 17 0
140 -160 203 -264 80 -131 115 -238 123 -371 6 -91 8 -104 15 -72 10 47 0 149
-25 239 -33 118 -94 225 -226 395 -36 46 -62 87 -58 93 3 5 21 10 39 10 46 0
79 29 79 68 0 38 -8 49 -25 35 -7 -6 -26 -13 -43 -17 -40 -10 -55 -24 -55 -52
0 -45 -29 -24 -88 65 -122 182 -135 277 -66 491 28 87 112 210 143 210 11 0
54 -7 96 -15z m-1265 -1246 c-87 -24 -175 -64 -231 -106 l-61 -45 6 -59 c9
-74 36 -154 82 -238 l35 -66 -36 40 c-51 58 -102 168 -116 253 l-12 73 33 34
c62 64 205 124 295 123 l40 0 -35 -9z m4415 -4 c75 -20 164 -67 205 -110 l33
-34 -12 -73 c-14 -85 -65 -195 -116 -253 l-36 -40 35 66 c46 84 73 164 82 238
l6 59 -61 45 c-56 42 -144 82 -231 106 l-35 9 35 1 c20 1 62 -6 95 -14z
m-4817 -435 c60 -23 116 -59 177 -112 5 -5 -31 12 -80 37 -198 100 -392 97
-510 -7 -65 -57 -79 -90 -76 -170 1 -15 13 -42 29 -58 50 -57 132 -35 132 37
0 35 -28 73 -54 73 -15 0 -49 -40 -41 -49 3 -2 14 4 24 13 18 17 20 17 40 -3
25 -25 26 -39 5 -69 -38 -54 -124 3 -124 83 0 39 35 99 80 138 61 52 133 71
244 64 111 -8 175 -26 260 -75 147 -84 192 -132 236 -250 23 -60 55 -231 45
-240 -3 -3 -19 2 -36 12 -30 18 -32 18 -60 -3 -15 -11 -37 -21 -49 -21 -25 0
-25 -11 -2 -38 31 -37 65 -38 107 -1 43 38 49 33 59 -45 5 -50 -5 -150 -17
-163 -4 -3 -23 9 -43 26 -41 37 -75 36 -106 -1 -23 -27 -23 -38 2 -38 12 0 34
-10 49 -21 28 -21 30 -21 60 -3 17 10 33 15 36 12 10 -9 -22 -180 -45 -240
-44 -118 -89 -166 -236 -250 -85 -49 -149 -67 -260 -75 -111 -7 -183 12 -244
64 -45 39 -80 99 -80 138 0 80 86 137 124 83 21 -30 20 -44 -5 -69 -20 -20
-22 -20 -40 -3 -10 9 -21 15 -24 13 -8 -9 26 -49 41 -49 26 0 54 38 54 73 0
43 -29 70 -72 69 -76 -2 -116 -110 -72 -193 21 -42 100 -106 152 -124 123 -43
268 -25 417 50 49 25 85 42 80 37 -129 -113 -277 -165 -403 -142 -145 26 -303
145 -363 274 -26 56 -31 79 -31 141 0 62 5 85 30 139 34 73 103 153 157 182
19 10 35 21 35 24 0 3 -16 14 -35 24 -54 29 -123 109 -157 182 -25 54 -30 77
-30 139 0 62 5 85 31 141 58 123 215 246 351 273 66 14 155 3 238 -29z m5429
8 c159 -59 291 -203 313 -342 21 -133 -66 -307 -185 -372 -19 -10 -35 -21 -35
-24 0 -3 16 -14 35 -24 119 -65 206 -239 185 -372 -26 -162 -208 -331 -392
-364 -126 -23 -274 29 -403 142 -5 5 31 -12 80 -37 198 -100 392 -97 510 7 65
57 79 90 76 170 -1 15 -13 42 -28 58 -51 57 -133 35 -133 -37 0 -35 28 -73 54
-73 15 0 49 40 41 49 -3 2 -14 -4 -24 -13 -18 -17 -20 -17 -40 3 -25 25 -26
39 -5 69 38 54 124 -3 124 -83 0 -39 -35 -99 -80 -138 -61 -52 -133 -71 -244
-64 -111 8 -175 26 -260 75 -147 84 -192 132 -236 250 -23 60 -55 231 -45 240
3 3 19 -2 36 -12 30 -18 32 -18 60 3 15 11 37 21 49 21 25 0 25 11 3 38 -32
37 -66 38 -108 1 -43 -38 -49 -33 -59 45 -5 50 5 150 17 163 4 3 23 -9 43 -26
41 -37 75 -36 107 1 22 27 22 38 -3 38 -12 0 -34 10 -49 21 -28 21 -30 21 -60
3 -17 -10 -33 -15 -36 -12 -10 9 22 180 45 240 44 118 89 166 236 250 85 49
149 67 260 75 111 7 183 -12 244 -64 45 -39 80 -99 80 -138 0 -80 -86 -137
-124 -83 -21 30 -20 44 5 69 20 20 22 20 40 3 10 -9 21 -15 24 -13 8 9 -26 49
-41 49 -26 0 -54 -38 -54 -73 0 -43 29 -70 72 -69 76 2 116 110 72 193 -21 42
-100 106 -152 124 -123 43 -268 25 -417 -50 -49 -25 -85 -42 -80 -37 158 138
323 180 482 120z m-5232 -1461 c-45 -81 -72 -162 -81 -236 l-6 -59 61 -45 c56
-42 144 -82 231 -106 l35 -9 -35 -1 c-88 -2 -238 60 -300 124 l-33 34 12 70
c14 88 49 169 103 238 22 29 42 53 44 53 2 0 -12 -28 -31 -63z m4800 -82 c19
-40 39 -101 46 -143 l12 -73 -33 -34 c-62 -64 -212 -126 -300 -124 l-35 1 35
9 c87 24 175 64 231 106 l61 45 -6 59 c-9 74 -36 154 -82 238 l-35 66 36 -40
c19 -22 51 -71 70 -110z m-4635 -474 c-120 -39 -165 -65 -238 -135 -149 -143
-172 -325 -52 -409 37 -26 96 -22 125 8 30 30 31 54 4 89 -38 48 -121 28 -103
-26 l8 -23 6 25 c5 21 12 25 40 25 64 0 74 -73 13 -96 -39 -15 -78 -2 -112 36
-77 88 -43 247 74 352 67 62 140 109 195 127 237 78 354 60 548 -85 28 -22 52
-43 52 -47 0 -4 -15 -12 -32 -17 -25 -8 -35 -18 -43 -45 -5 -19 -14 -41 -18
-47 -23 -36 36 -45 77 -12 20 16 26 29 26 59 0 21 4 41 8 44 23 14 180 -142
166 -165 -3 -5 -23 -9 -44 -9 -30 0 -43 -6 -59 -26 -33 -41 -22 -104 12 -76 7
6 28 14 47 19 27 7 37 16 45 41 5 18 13 32 17 32 4 0 25 -24 47 -52 145 -194
163 -311 85 -548 -18 -55 -65 -128 -127 -195 -105 -117 -264 -151 -352 -74
-38 34 -51 73 -36 112 23 61 96 51 96 -13 0 -28 -4 -35 -25 -40 l-25 -6 23 -8
c54 -18 74 65 26 103 -35 27 -59 26 -89 -4 -50 -49 -26 -134 49 -176 94 -54
226 -18 340 91 73 70 108 130 147 249 30 90 35 86 19 -13 -14 -85 -70 -197
-127 -254 -118 -118 -342 -163 -506 -102 -77 29 -140 88 -179 167 -29 60 -32
75 -33 157 0 50 3 105 7 123 7 32 7 32 -25 25 -18 -4 -73 -7 -123 -7 -82 1
-97 4 -157 33 -118 58 -181 158 -193 305 -7 87 14 197 53 277 53 108 173 196
307 225 108 24 127 16 36 -14z m4431 15 c141 -30 260 -117 313 -230 39 -83 59
-186 52 -273 -12 -147 -75 -247 -193 -305 -60 -29 -75 -32 -157 -33 -50 0
-105 3 -123 7 -32 7 -32 7 -25 -25 4 -18 7 -73 7 -123 -1 -82 -4 -97 -33 -157
-58 -118 -158 -181 -305 -193 -87 -7 -190 13 -273 52 -113 53 -200 172 -230
313 -22 107 -15 122 15 30 39 -119 74 -179 147 -249 114 -109 246 -145 340
-91 75 42 99 127 49 176 -30 30 -54 31 -89 4 -48 -38 -28 -121 26 -103 l23 8
-25 6 c-21 5 -25 12 -25 40 0 64 73 74 96 13 15 -39 2 -78 -36 -112 -88 -77
-247 -43 -352 74 -62 67 -109 140 -127 195 -78 237 -60 354 85 548 22 28 43
52 47 52 4 0 12 -14 17 -32 8 -25 18 -34 45 -41 19 -5 40 -13 47 -19 29 -23
44 23 22 65 -16 30 -28 37 -71 37 -20 0 -39 4 -42 9 -15 23 142 180 165 165 5
-3 9 -23 9 -44 0 -30 6 -43 26 -59 41 -33 100 -24 77 12 -4 6 -13 28 -18 47
-8 27 -18 37 -43 45 -17 5 -32 13 -32 17 0 4 24 25 53 47 193 145 310 163 547
85 55 -18 128 -65 195 -127 117 -105 151 -264 74 -352 -34 -38 -73 -51 -112
-36 -61 23 -51 96 13 96 28 0 35 -4 40 -25 l6 -25 8 23 c18 54 -65 74 -103 26
-27 -35 -26 -59 4 -89 49 -50 134 -26 176 49 54 94 18 226 -91 340 -70 73
-130 108 -249 147 -92 30 -77 37 30 15z m-3365 -999 c14 -37 46 -95 71 -128
l45 -61 59 6 c74 9 154 36 238 82 l66 35 -40 -36 c-58 -51 -168 -102 -253
-116 l-73 -12 -34 33 c-64 62 -126 212 -124 300 l1 35 9 -35 c6 -19 21 -65 35
-103z m2304 28 c-15 -73 -70 -182 -114 -224 l-35 -34 -73 12 c-85 14 -195 65
-253 116 l-40 36 66 -35 c84 -46 164 -73 238 -82 l58 -6 46 61 c45 60 76 128
100 220 10 40 12 42 15 18 2 -15 -2 -52 -8 -82z m-1091 75 c9 0 22 -4 30 -9
12 -8 8 -16 -18 -46 -37 -42 -36 -76 1 -107 27 -23 38 -23 38 2 0 12 10 34 21
49 21 28 21 30 3 60 -10 17 -15 33 -12 36 9 10 180 -22 240 -45 118 -44 166
-89 250 -236 49 -85 67 -149 75 -260 7 -111 -12 -183 -64 -244 -39 -45 -99
-80 -138 -80 -80 0 -137 86 -83 124 30 21 44 20 69 -5 20 -20 20 -22 3 -40 -9
-10 -15 -21 -13 -24 9 -8 49 26 49 41 0 26 -38 54 -73 54 -43 0 -70 -29 -69
-72 2 -76 110 -116 193 -72 42 21 106 100 124 152 42 123 25 267 -50 417 -44
87 -37 86 26 -2 37 -53 74 -151 83 -219 26 -203 -166 -461 -368 -494 -133 -21
-307 66 -372 185 -10 19 -21 35 -24 35 -3 0 -14 -16 -24 -35 -65 -119 -239
-206 -372 -185 -162 26 -331 208 -364 392 -23 126 29 274 142 403 5 5 -12 -31
-37 -80 -100 -198 -97 -392 7 -510 57 -65 90 -79 170 -76 15 1 42 13 58 29 57
50 35 132 -37 132 -35 0 -73 -28 -73 -54 0 -15 40 -49 49 -41 2 3 -4 14 -13
24 -17 18 -17 20 3 40 25 25 39 26 69 5 54 -38 -3 -124 -83 -124 -39 0 -99 35
-138 80 -52 61 -71 133 -64 244 8 111 26 175 75 260 84 147 132 192 250 236
60 23 231 55 240 45 3 -3 -2 -19 -12 -36 -18 -30 -18 -32 3 -60 11 -15 21 -37
21 -49 0 -25 11 -25 38 -2 37 31 38 65 1 106 -17 20 -29 40 -25 43 11 12 90
22 135 17 24 -2 51 -4 60 -4z"/>
<path d="M2985 6121 c-84 -49 -115 -113 -115 -241 0 -41 -5 -82 -10 -90 -7
-10 -10 10 -10 67 0 74 -3 84 -27 114 -32 38 -66 53 -153 69 -44 8 -73 19 -91
36 -24 23 -27 24 -33 7 -4 -10 -10 -65 -13 -123 -4 -96 -3 -109 19 -149 12
-25 35 -53 49 -64 38 -27 108 -33 165 -13 64 22 68 20 14 -7 -30 -15 -52 -35
-67 -62 -45 -80 -21 -134 79 -184 74 -37 94 -40 76 -11 -10 16 -10 24 1 43 49
77 52 106 16 159 -14 20 -25 43 -25 49 0 24 22 -8 64 -93 35 -70 45 -83 68
-86 30 -4 30 -14 -6 98 -8 24 -22 40 -45 52 -19 9 -41 24 -50 33 -23 23 6 20
44 -5 59 -39 154 -16 228 56 l37 36 38 -36 c75 -73 167 -96 227 -56 38 25 67
28 44 5 -9 -9 -31 -24 -50 -33 -23 -12 -37 -28 -45 -52 -36 -112 -36 -102 -6
-98 21 2 32 14 51 53 38 79 72 137 78 131 3 -3 -7 -26 -22 -52 -31 -53 -30
-95 4 -143 24 -33 26 -52 9 -69 -22 -22 16 -13 80 19 100 50 124 104 79 184
-15 27 -37 47 -67 62 -54 27 -50 29 14 7 57 -20 127 -14 165 13 14 11 37 39
49 64 22 40 23 53 19 149 -3 58 -9 113 -13 123 -6 17 -9 16 -33 -7 -18 -17
-47 -28 -91 -36 -87 -16 -121 -31 -153 -69 -24 -30 -27 -40 -27 -114 0 -57 -3
-77 -10 -67 -5 8 -10 49 -10 90 0 129 -34 197 -122 245 l-51 28 7 -26 c4 -16
-4 -57 -20 -108 -29 -93 -28 -141 4 -187 19 -26 40 -38 122 -69 25 -10 24 -10
-19 -32 -25 -11 -52 -21 -61 -21 -30 0 -139 60 -165 91 l-25 30 -33 -35 c-33
-35 -127 -86 -158 -86 -8 0 -35 10 -60 21 -43 22 -44 22 -19 32 82 31 103 43
122 69 32 46 33 94 4 187 -15 49 -24 92 -20 107 3 13 5 24 3 24 -2 0 -26 -13
-54 -29z m-19 -235 c-9 -28 -27 -63 -41 -76 -32 -30 -32 -21 -1 25 27 39 45
109 48 183 2 39 2 36 5 -16 3 -38 -2 -85 -11 -116z m489 -11 c9 -24 23 -49 31
-55 7 -7 14 -17 14 -23 0 -6 -11 0 -25 13 -34 32 -55 108 -54 189 l2 66 7 -74
c5 -40 16 -93 25 -116z m-802 24 c12 -11 55 -38 94 -61 84 -48 89 -65 8 -24
-65 33 -140 97 -160 137 -23 44 -18 46 11 4 14 -21 35 -46 47 -56z m1153 53
c-21 -41 -95 -104 -161 -138 -82 -41 -76 -24 8 24 76 43 142 101 153 134 3 11
8 17 11 15 2 -3 -2 -19 -11 -35z m-997 -263 c-23 -44 -28 -91 -15 -131 8 -21
12 -38 9 -38 -8 0 -33 70 -33 92 0 27 38 113 46 105 3 -3 0 -16 -7 -28z m806
-24 c19 -48 15 -98 -10 -131 -12 -17 -12 -14 0 22 14 42 9 88 -13 131 -14 26
-15 36 -3 28 5 -3 17 -25 26 -50z"/>
<path d="M1604 5672 c0 -27 -12 -55 -46 -103 -25 -37 -48 -83 -52 -103 -10
-51 22 -115 74 -151 22 -15 40 -32 40 -36 0 -21 -26 -5 -83 50 -34 32 -78 67
-97 77 -41 21 -139 24 -184 5 l-29 -12 22 -15 c12 -9 35 -43 52 -77 70 -140
143 -172 258 -113 18 10 34 16 36 14 8 -7 -21 -77 -40 -98 -23 -26 -104 -50
-167 -50 l-48 0 0 -48 c0 -63 -24 -144 -50 -167 -21 -19 -91 -48 -98 -40 -2 2
4 18 14 36 59 115 27 188 -113 258 -34 17 -68 40 -77 52 l-15 22 -12 -29 c-19
-45 -16 -143 5 -184 10 -19 45 -63 77 -97 55 -57 71 -83 50 -83 -4 0 -21 18
-36 40 -36 52 -100 84 -151 74 -20 -4 -66 -27 -103 -52 -48 -34 -76 -46 -103
-46 -21 -1 -38 -3 -38 -5 0 -18 121 -158 156 -181 68 -43 106 -46 170 -15 46
23 59 36 85 83 16 32 27 48 24 37 -19 -55 -21 -73 -13 -111 13 -65 47 -94 106
-94 50 0 124 21 149 42 11 9 10 13 -8 22 -13 7 -27 29 -35 55 -16 56 -48 89
-93 97 -20 4 -43 11 -51 16 -27 16 71 -3 114 -23 48 -22 99 -24 114 -6 9 10
-3 20 -53 46 l-65 34 -46 -18 c-32 -12 -49 -14 -56 -7 -8 8 3 14 36 23 80 20
127 95 128 208 l0 48 48 1 c115 2 189 48 209 128 9 33 15 44 23 36 7 -7 5 -24
-7 -56 l-18 -46 34 -65 c26 -50 36 -62 46 -53 18 15 16 66 -6 114 -20 43 -39
141 -23 114 5 -8 12 -31 16 -51 8 -45 41 -77 97 -93 26 -8 48 -22 55 -35 9
-18 13 -19 22 -8 21 25 42 99 42 149 0 59 -29 93 -94 106 -38 8 -56 6 -111
-13 -11 -3 5 8 37 24 47 26 60 39 83 85 31 64 28 102 -15 170 -23 35 -163 156
-181 156 -2 0 -4 -17 -5 -38z m85 -172 c0 -41 -9 -91 -24 -135 -29 -88 -33
-49 -4 47 15 48 20 86 17 124 -3 31 -1 49 3 42 5 -7 9 -42 8 -78z m-301 -161
c57 -50 92 -69 157 -85 l50 -12 -39 -1 c-51 -1 -108 28 -175 89 -66 60 -59 67
7 9z m380 -109 c34 -21 72 -74 72 -100 -1 -8 -7 -1 -14 15 -18 40 -54 72 -101
89 -33 12 -36 15 -15 15 14 1 40 -8 58 -19z m-628 -306 c11 -22 20 -58 19 -80
l-1 -39 -12 50 c-16 65 -35 100 -85 157 -23 25 -41 50 -41 54 0 16 100 -102
120 -142z m-105 -189 c-70 -24 -187 -33 -213 -17 -7 5 14 7 45 4 40 -2 77 3
118 16 33 11 74 20 90 20 22 0 11 -6 -40 -23z m168 -123 c12 -14 36 -31 52
-38 17 -7 23 -13 15 -14 -47 -1 -121 80 -119 130 0 21 3 18 15 -15 8 -21 24
-50 37 -63z"/>
<path d="M4712 5654 c-78 -60 -126 -122 -137 -180 -5 -28 0 -48 20 -90 23 -46
36 -59 83 -85 32 -16 48 -27 37 -24 -55 19 -73 21 -111 13 -65 -13 -94 -47
-94 -106 0 -50 21 -124 42 -149 9 -11 13 -10 22 8 7 13 29 27 55 35 56 16 89
48 97 93 4 20 11 43 16 51 16 27 -3 -71 -23 -114 -22 -48 -24 -99 -6 -114 10
-9 20 3 46 53 l34 65 -18 46 c-12 32 -14 49 -7 56 8 8 14 -3 23 -36 20 -79 86
-121 204 -129 l50 -3 3 -49 c6 -117 49 -184 128 -204 33 -9 44 -15 36 -23 -7
-7 -24 -5 -56 7 l-46 18 -65 -34 c-50 -26 -62 -36 -53 -46 15 -18 66 -16 114
6 43 20 141 39 114 23 -8 -5 -31 -12 -51 -16 -45 -8 -77 -41 -93 -97 -8 -26
-22 -48 -35 -55 -18 -9 -19 -13 -8 -22 25 -21 99 -42 149 -42 59 0 93 29 106
94 8 38 6 56 -13 111 -3 11 8 -5 24 -37 26 -47 39 -60 85 -83 64 -31 102 -28
170 15 35 23 156 163 156 181 0 2 -17 4 -38 5 -27 0 -55 12 -103 46 -37 25
-83 48 -103 52 -51 10 -115 -22 -151 -74 -15 -22 -32 -40 -36 -40 -21 0 -5 26
50 83 32 34 67 78 77 97 21 41 24 139 5 184 l-12 29 -15 -22 c-9 -12 -43 -35
-77 -52 -140 -70 -172 -143 -113 -258 10 -18 16 -34 14 -36 -7 -7 -77 21 -97
39 -28 25 -51 100 -51 163 l0 53 -53 0 c-63 0 -138 23 -163 51 -18 20 -46 90
-39 97 2 2 18 -4 36 -14 115 -59 188 -27 258 113 17 34 40 68 52 77 l22 15
-29 12 c-45 19 -143 16 -184 -5 -19 -10 -63 -45 -97 -77 -57 -55 -83 -71 -83
-50 0 4 18 21 40 36 52 36 84 100 74 151 -4 20 -27 66 -52 103 -34 48 -46 76
-46 103 -1 21 -3 38 -6 38 -3 0 -38 -25 -78 -56z m10 -118 c-3 -38 2 -76 17
-124 29 -96 25 -135 -4 -47 -23 67 -33 174 -19 209 10 26 11 19 6 -38z m297
-206 c-67 -61 -124 -90 -175 -89 l-39 1 50 12 c66 16 101 35 155 85 25 22 49
40 54 41 6 0 -15 -22 -45 -50z m-344 -96 c-47 -17 -83 -49 -101 -89 -7 -16
-13 -23 -14 -15 -1 47 80 121 130 119 21 0 18 -3 -15 -15z m667 -218 c-49 -53
-72 -95 -88 -161 l-12 -50 -1 40 c-1 23 7 57 17 77 20 38 114 150 121 143 2
-3 -14 -24 -37 -49z m70 -277 c48 -15 86 -20 124 -17 31 3 49 1 42 -3 -26 -17
-142 -8 -213 16 -88 29 -49 33 47 4z m-179 -102 c-21 -35 -77 -77 -102 -77 -9
1 -2 7 14 14 40 17 81 67 91 108 7 28 9 30 12 10 2 -12 -5 -37 -15 -55z"/>
<path d="M2175 5551 c-63 -95 -34 -194 73 -252 31 -16 48 -27 37 -24 -60 20
-77 22 -110 15 -103 -23 -128 -95 -75 -217 20 -46 35 -54 43 -24 3 13 18 21
48 26 56 10 94 47 102 102 4 23 11 45 17 48 14 9 2 -50 -26 -123 -28 -74 -29
-80 -8 -103 15 -17 18 -15 46 38 30 57 31 60 12 152 -10 48 12 31 26 -20 6
-22 21 -50 33 -62 l22 -22 3 36 c2 24 -4 49 -17 70 -23 38 -26 49 -11 49 5 0
21 -22 35 -50 21 -42 31 -51 67 -61 24 -6 53 -15 66 -20 21 -8 23 -7 20 18 -2
23 -15 34 -73 63 -80 40 -125 70 -107 70 7 0 30 -11 50 -25 47 -32 72 -31 134
2 41 22 53 25 69 15 16 -10 19 -9 19 5 -1 31 -36 97 -72 136 -27 29 -43 37
-69 37 -52 0 -109 -38 -135 -90 -28 -54 -30 -50 -8 14 40 118 -20 223 -134
234 -49 4 -51 4 -77 -37z m149 -218 c9 -18 12 -33 7 -33 -5 0 -14 14 -20 31
-19 54 -14 54 13 2z m265 -7 c15 -16 13 -16 -23 -1 -41 17 -79 14 -129 -12
-16 -8 -31 -12 -34 -9 -3 3 14 15 38 26 51 24 122 22 148 -4z m-329 -85 c-59
-18 -92 -43 -111 -84 -13 -29 -19 -35 -19 -21 0 45 80 115 130 113 l25 -1 -25
-7z m146 -118 c-3 -4 -13 10 -21 30 -21 51 -18 59 6 14 11 -22 18 -41 15 -44z"/>
<path d="M4083 5569 c-73 -36 -101 -126 -68 -219 21 -59 18 -63 -9 -10 -26 52
-83 90 -135 90 -26 0 -42 -8 -69 -37 -36 -39 -71 -105 -72 -136 0 -14 3 -15
19 -5 16 10 28 7 69 -15 62 -33 87 -34 134 -2 20 14 43 25 50 25 18 0 -27 -30
-107 -70 -58 -29 -71 -40 -73 -63 -3 -25 -1 -26 20 -18 13 5 42 14 66 20 36
10 46 19 67 61 14 28 30 50 35 50 15 0 12 -11 -11 -49 -13 -21 -19 -46 -17
-70 l3 -36 22 22 c12 12 27 40 33 62 14 51 36 68 26 20 -19 -92 -18 -95 12
-152 28 -53 31 -55 46 -38 21 23 20 29 -8 103 -28 73 -40 132 -26 123 6 -3 13
-25 17 -48 8 -55 46 -92 102 -102 30 -5 45 -13 48 -26 8 -30 23 -22 43 24 53
122 28 194 -75 217 -33 7 -50 5 -110 -15 -11 -3 6 8 37 24 107 57 136 157 74
251 -23 35 -31 40 -64 40 -20 0 -56 -9 -79 -21z m6 -237 c-6 -18 -15 -32 -20
-32 -5 0 -1 16 8 35 20 42 27 40 12 -3z m-130 -2 c24 -11 41 -23 38 -26 -3 -3
-18 1 -34 9 -49 25 -88 29 -127 13 -20 -8 -34 -11 -30 -5 19 32 92 36 153 9z
m230 -95 c38 -19 81 -72 81 -98 0 -16 -6 -10 -19 20 -19 41 -52 66 -111 84
-24 7 -24 7 -2 8 13 1 36 -6 51 -14z m-174 -80 c-8 -21 -18 -36 -21 -33 -2 3
3 22 12 42 10 19 19 34 21 32 2 -2 -3 -21 -12 -41z"/>
<path d="M3090 5106 c0 -16 73 -145 91 -162 18 -16 20 -16 38 0 18 17 91 146
91 162 0 4 -8 0 -18 -9 -10 -9 -34 -23 -55 -32 -33 -14 -41 -14 -74 0 -21 9
-45 23 -55 32 -10 9 -18 13 -18 9z"/>
<path d="M3023 5012 c31 -34 48 -94 58 -204 10 -123 27 -170 83 -233 l36 -40
36 40 c56 63 73 110 83 233 10 110 27 170 58 204 39 44 -82 -10 -142 -63 l-35
-31 -35 31 c-60 53 -181 107 -142 63z m167 -179 c0 -7 5 -13 10 -13 6 0 10 6
10 13 0 7 7 22 15 33 12 15 11 11 -2 -23 -9 -24 -19 -43 -23 -43 -4 0 -14 19
-23 43 -13 34 -14 38 -2 23 8 -11 15 -26 15 -33z"/>
<path d="M2530 4856 c-14 -7 -38 -19 -55 -27 -43 -21 -67 -73 -60 -129 4 -25
35 -117 70 -205 69 -173 92 -282 82 -381 -5 -48 -4 -53 11 -45 9 5 44 12 77
15 33 4 77 9 98 12 l37 6 0 -54 c0 -29 -6 -81 -14 -115 l-13 -63 79 0 78 0 61
60 61 60 65 -35 c36 -19 78 -35 93 -35 15 0 57 16 93 35 l65 35 61 -60 61 -60
78 0 79 0 -13 63 c-8 34 -14 86 -14 115 l0 54 38 -6 c20 -3 64 -8 97 -12 33
-3 68 -10 77 -15 15 -8 16 -3 11 45 -10 99 13 208 82 381 35 88 66 180 70 205
7 56 -17 108 -60 129 -16 8 -42 20 -57 28 -34 17 -82 17 -117 -2 -37 -19 -83
-92 -127 -201 -64 -158 -114 -243 -189 -321 l-71 -74 41 -23 c46 -28 135 -104
135 -116 0 -14 -153 -130 -170 -129 -10 0 -6 6 10 17 14 9 49 39 78 66 l52 49
-22 24 c-31 34 -128 107 -133 101 -3 -2 17 -20 43 -40 26 -20 58 -48 72 -63
l24 -26 -44 -39 c-25 -22 -72 -58 -106 -80 l-61 -40 -41 22 -42 23 -42 -23
-41 -22 -61 40 c-34 22 -81 58 -106 80 l-44 39 24 26 c14 15 46 43 72 63 26
20 46 38 43 40 -5 6 -102 -67 -133 -101 l-22 -24 52 -49 c29 -27 64 -57 78
-66 16 -11 20 -17 10 -17 -17 -1 -170 115 -170 129 0 12 89 88 135 116 l41 23
-71 74 c-75 78 -125 163 -189 321 -44 109 -90 182 -127 201 -35 18 -86 19
-119 1z m124 -27 c48 -42 68 -77 126 -220 54 -135 98 -207 174 -288 l51 -53
-35 -27 c-50 -37 -130 -112 -130 -122 0 -7 99 -93 143 -124 20 -14 20 -15 -19
-59 -39 -44 -39 -44 -108 -45 l-68 -1 5 43 c4 23 9 73 13 111 l7 69 -94 -6
c-52 -4 -104 -10 -116 -13 -22 -6 -23 -4 -23 73 0 96 -26 205 -76 317 -71 161
-88 242 -61 296 12 24 121 79 159 80 10 0 33 -14 52 -31z m1244 -6 c50 -24 58
-33 66 -66 13 -52 -3 -126 -52 -235 -63 -139 -84 -215 -89 -330 -5 -100 -7
-103 -27 -98 -11 4 -63 9 -115 13 l-94 6 7 -69 c4 -38 9 -88 13 -111 l5 -43
-68 1 c-69 1 -69 1 -108 45 -39 44 -39 45 -19 59 44 31 143 117 143 124 0 10
-80 85 -130 122 l-35 27 51 53 c76 81 120 153 174 288 58 143 78 178 127 221
42 37 61 36 151 -7z m-658 -857 l33 -13 -36 -13 c-29 -9 -45 -9 -74 1 l-36 12
29 13 c38 16 46 17 84 0z"/>
<path d="M2625 4737 c5 -19 0 -29 -21 -46 -34 -27 -52 -27 -82 2 l-24 22 4
-25 c5 -38 46 -54 90 -36 19 8 40 22 47 30 15 18 11 68 -7 74 -9 3 -11 -3 -7
-21z"/>
<path d="M3757 4753 c-4 -3 -7 -18 -7 -33 0 -29 19 -49 63 -68 38 -16 81 3 85
38 l4 25 -24 -22 c-30 -29 -48 -29 -82 -2 -21 17 -26 27 -22 45 6 23 -3 32
-17 17z"/>
<path d="M2956 4659 c-20 -23 -26 -41 -26 -77 1 -85 65 -205 141 -261 52 -39
43 -16 -16 40 -75 71 -120 163 -111 227 7 51 26 77 62 86 36 9 84 -19 84 -49
0 -22 -23 -55 -39 -55 -15 0 -29 23 -24 38 4 10 2 13 -5 8 -32 -20 3 -62 43
-52 35 9 49 49 30 85 -16 33 -33 41 -80 41 -25 0 -40 -8 -59 -31z"/>
<path d="M3332 4683 c-7 -3 -19 -18 -27 -33 -19 -37 -5 -77 30 -86 40 -10 75
32 43 52 -7 5 -9 2 -5 -8 5 -15 -9 -38 -24 -38 -16 0 -39 33 -39 55 0 30 48
58 84 49 36 -9 55 -35 62 -86 9 -64 -36 -156 -111 -227 -59 -56 -68 -79 -16
-40 76 56 140 176 141 261 0 64 -36 108 -88 107 -21 0 -43 -3 -50 -6z"/>
<path d="M1920 4607 c0 -15 -7 -43 -15 -63 -15 -37 -62 -64 -112 -64 -17 0
-24 -3 -17 -10 15 -15 133 -50 170 -50 32 0 34 2 34 34 0 37 -35 155 -50 170
-7 7 -10 0 -10 -17z"/>
<path d="M2011 4565 c-11 -38 -21 -88 -21 -112 l0 -43 -43 0 c-24 0 -74 -10
-112 -21 l-68 -22 57 -17 c41 -13 82 -39 152 -95 105 -86 144 -104 222 -105
l52 0 0 53 c-1 77 -19 116 -105 221 -56 70 -82 111 -95 152 l-17 57 -22 -68z
m56 -232 c-3 -2 -20 3 -38 12 -31 14 -31 15 -6 10 26 -5 27 -4 22 22 -5 25 -4
25 10 -6 9 -18 14 -35 12 -38z"/>
<path d="M4351 4579 c-10 -38 -34 -77 -97 -155 -87 -109 -104 -146 -104 -226
l0 -48 53 0 c77 1 116 19 221 105 70 56 111 82 152 95 l57 17 -68 22 c-38 11
-88 21 -112 21 l-43 0 0 43 c0 35 -35 177 -44 177 -1 0 -8 -23 -15 -51z m5
-204 c-6 -23 -4 -25 21 -20 25 5 25 4 -6 -10 -18 -9 -35 -14 -37 -12 -5 5 16
67 23 67 3 0 2 -11 -1 -25z"/>
<path d="M4467 4623 c-16 -26 -47 -137 -47 -169 0 -32 2 -34 35 -34 36 0 152
35 170 51 5 5 -2 9 -18 9 -40 0 -94 25 -107 50 -6 11 -14 40 -18 63 -5 24 -11
37 -15 30z"/>
<path d="M2289 4395 c-52 -28 -57 -109 -9 -135 29 -15 67 -5 75 21 7 20 -9 49
-28 49 -5 0 -3 -8 6 -18 20 -22 6 -42 -28 -42 -48 0 -61 61 -22 98 31 29 73
28 113 -3 53 -40 76 -103 83 -227 l6 -107 -25 -6 c-43 -11 -69 -34 -80 -72
l-12 -38 -106 6 c-78 5 -120 12 -154 28 -88 40 -124 123 -75 169 41 39 97 24
97 -25 0 -28 -24 -40 -45 -23 -8 7 -15 8 -15 2 0 -18 29 -34 49 -27 26 8 36
46 21 75 -28 52 -115 41 -139 -19 -26 -62 14 -122 111 -167 55 -25 75 -29 155
-29 51 0 93 -2 93 -5 -1 -3 -7 -34 -15 -70 -8 -36 -14 -96 -15 -134 l0 -69 82
7 c97 8 199 30 248 54 56 27 92 128 106 300 l7 82 -61 0 c-33 0 -96 -7 -139
-15 -43 -8 -78 -15 -78 -15 0 0 0 42 0 93 0 86 -3 98 -35 162 -51 101 -108
134 -171 100z m461 -402 c0 -70 -19 -167 -46 -240 -13 -33 -24 -44 -57 -57
-73 -27 -170 -46 -241 -46 l-69 0 7 82 c7 85 12 102 26 93 5 -3 6 -37 3 -75
l-6 -70 71 0 c39 0 77 -3 85 -6 11 -4 16 5 22 32 14 76 34 112 74 127 21 9 54
19 75 22 27 6 36 11 32 22 -3 8 -6 46 -6 85 l0 70 -70 -3 c-42 -3 -70 0 -70 6
-1 11 52 21 123 24 l47 1 0 -67z m-195 15 c-4 -18 -15 -53 -24 -78 -16 -44
-19 -46 -89 -69 -40 -13 -75 -21 -78 -18 -9 8 35 133 50 146 15 13 113 49 134
50 10 1 12 -7 7 -31z m154 -35 c-2 -85 -8 -94 -79 -118 l-64 -21 -21 -64 c-24
-71 -33 -77 -118 -79 l-49 -1 7 53 c10 83 11 84 80 107 l64 21 21 65 c22 66
23 67 90 77 69 11 70 11 69 -40z"/>
<path d="M2655 3815 c-22 -8 -41 -15 -42 -15 -7 0 -32 -60 -38 -90 -10 -48 5
-31 24 28 15 43 20 48 63 63 26 8 51 19 55 22 11 11 -19 7 -62 -8z"/>
<path d="M2658 3779 c-18 -7 -31 -22 -38 -45 -16 -48 -4 -56 15 -11 8 21 21
37 28 37 7 0 22 7 33 15 23 17 4 19 -38 4z"/>
<path d="M2500 3975 c-15 -52 -21 -59 -77 -76 -24 -6 -43 -16 -43 -20 0 -11
91 17 107 34 17 17 45 107 34 107 -5 0 -14 -20 -21 -45z"/>
<path d="M2460 3981 c-6 -16 -25 -35 -41 -41 -42 -18 -36 -31 8 -16 28 10 39
21 49 49 15 44 2 50 -16 8z"/>
<path d="M4009 4388 c-22 -15 -46 -47 -69 -93 -32 -64 -35 -76 -35 -162 0 -51
0 -93 0 -93 0 0 -35 7 -78 15 -43 8 -106 15 -139 15 l-61 0 7 -82 c14 -172 50
-273 106 -300 49 -24 151 -46 248 -54 l82 -7 0 61 c0 33 -7 96 -15 139 -8 43
-15 78 -15 78 186 0 184 0 248 29 97 45 137 105 111 167 -24 60 -111 71 -139
19 -15 -29 -5 -67 21 -75 20 -7 49 9 49 27 0 6 -7 5 -15 -2 -21 -17 -45 -5
-45 23 0 50 60 65 98 24 29 -31 28 -73 -3 -113 -40 -53 -103 -76 -227 -83
l-106 -6 -12 38 c-11 38 -37 61 -80 72 l-25 6 6 107 c5 79 12 120 28 154 40
88 123 124 169 75 38 -40 24 -97 -23 -97 -34 0 -48 20 -28 42 9 10 11 18 6 18
-19 0 -35 -29 -28 -49 8 -26 46 -36 75 -21 49 26 43 108 -11 135 -39 20 -60
19 -100 -7z m-187 -344 c23 -15 -10 -22 -72 -17 l-70 6 0 -71 c0 -39 -3 -77
-6 -85 -4 -11 5 -16 32 -22 76 -14 112 -34 127 -74 9 -21 19 -54 22 -75 6 -27
11 -36 22 -32 8 3 46 6 85 6 l71 0 -6 70 c-3 38 -2 72 3 75 14 9 19 -8 26 -93
l7 -82 -69 0 c-71 0 -168 19 -241 46 -33 13 -44 24 -57 57 -27 73 -46 170 -46
241 l0 69 82 -7 c44 -4 85 -9 90 -12z m93 -24 c32 -11 64 -25 71 -31 15 -13
59 -138 50 -146 -3 -3 -38 5 -78 18 -70 23 -73 25 -89 69 -23 64 -32 110 -21
110 5 0 35 -9 67 -20z m-103 -16 c10 -3 25 -30 38 -69 l21 -64 64 -21 c69 -23
70 -24 80 -107 l7 -53 -49 1 c-85 2 -94 8 -118 79 l-21 64 -64 21 c-71 24 -77
33 -79 118 l-1 49 53 -7 c28 -3 60 -9 69 -11z"/>
<path d="M3683 3824 c4 -4 29 -15 55 -23 43 -15 48 -20 63 -63 18 -55 35 -77
25 -33 -13 57 -29 86 -55 99 -31 16 -99 32 -88 20z"/>
<path d="M3704 3775 c11 -8 26 -15 33 -15 7 0 20 -16 28 -37 19 -45 31 -37 15
11 -8 25 -20 37 -42 45 -43 15 -57 13 -34 -4z"/>
<path d="M3885 3973 c8 -25 20 -53 28 -60 17 -17 107 -45 107 -34 0 5 -20 14
-45 21 -52 15 -59 21 -76 78 -6 23 -16 42 -20 42 -4 0 -2 -21 6 -47z"/>
<path d="M3924 3973 c10 -28 21 -39 49 -49 44 -15 50 -2 8 16 -16 6 -35 25
-41 41 -18 42 -31 36 -16 -8z"/>
<path d="M1173 4320 c-51 -21 -79 -111 -57 -177 20 -56 16 -54 -16 9 -56 107
-156 136 -251 73 -41 -26 -41 -28 -37 -77 11 -114 116 -174 234 -134 64 22 68
20 14 -8 -52 -26 -90 -83 -90 -135 0 -26 8 -42 37 -69 39 -36 105 -71 136 -72
14 0 15 3 5 19 -10 16 -7 28 15 69 33 62 34 87 2 134 -14 20 -25 43 -25 50 0
18 30 -27 70 -107 29 -58 40 -71 63 -73 25 -3 26 -1 18 20 -5 13 -14 42 -20
66 -10 36 -19 46 -61 67 -28 14 -50 30 -50 35 0 15 11 12 49 -11 21 -13 46
-19 70 -17 l36 3 -22 22 c-12 12 -40 27 -62 33 -51 14 -68 36 -20 26 92 -19
95 -18 152 12 53 28 55 31 38 46 -23 21 -29 20 -103 -8 -73 -28 -132 -40 -123
-26 3 6 25 13 48 17 55 8 92 46 102 102 5 30 13 45 26 48 30 8 22 23 -23 43
-53 23 -126 33 -155 20z m70 -69 c-41 -19 -66 -52 -84 -111 -7 -24 -7 -24 -8
-2 -2 51 67 132 112 132 16 0 10 -6 -20 -19z m-174 -162 c17 -6 31 -15 31 -20
0 -5 -15 -2 -32 7 -53 27 -53 32 1 13z m178 -74 c20 -8 34 -18 30 -21 -3 -3
-22 4 -44 15 -45 24 -37 27 14 6z m-160 -52 c-26 -50 -29 -88 -12 -129 15 -36
15 -38 0 -23 -28 27 -30 90 -6 144 12 26 24 46 27 42 3 -3 -1 -18 -9 -34z"/>
<path d="M3135 4306 c-27 -13 -59 -31 -70 -41 -26 -21 -15 -17 68 23 l67 33
68 -33 c82 -40 93 -44 67 -23 -24 20 -120 65 -138 64 -7 0 -34 -11 -62 -23z"/>
<path d="M5127 4319 c-45 -11 -97 -36 -97 -48 0 -5 9 -11 19 -14 13 -3 21 -18
26 -48 10 -56 47 -94 102 -102 23 -4 45 -11 48 -17 9 -14 -50 -2 -123 26 -74
28 -80 29 -103 8 -17 -15 -15 -18 38 -46 57 -30 60 -31 152 -12 48 10 31 -12
-20 -26 -22 -6 -50 -21 -62 -33 l-22 -22 36 -3 c24 -2 49 4 70 17 38 23 49 26
49 11 0 -5 -22 -21 -50 -35 -42 -21 -51 -31 -61 -67 -6 -24 -15 -53 -20 -66
-8 -21 -7 -23 18 -20 23 2 34 15 63 73 40 80 70 125 70 107 0 -7 -11 -30 -25
-50 -32 -47 -31 -72 2 -134 22 -41 25 -53 15 -69 -10 -16 -9 -19 5 -19 31 1
97 36 136 72 29 27 37 43 37 69 0 52 -38 109 -90 135 -54 28 -50 30 14 8 118
-40 223 20 234 134 4 49 4 51 -37 77 -95 63 -195 34 -251 -73 -32 -63 -36 -65
-16 -9 23 68 -7 157 -60 177 -29 12 -45 11 -97 -1z m63 -75 c36 -31 60 -74 59
-106 -1 -22 -1 -22 -8 2 -18 59 -43 92 -84 111 -30 13 -36 19 -20 19 12 0 35
-12 53 -26z m179 -148 c-15 -13 -69 -35 -69 -27 0 5 12 14 28 19 28 11 48 15
41 8z m-202 -87 c-22 -11 -41 -18 -44 -15 -4 3 9 12 28 20 50 22 60 18 16 -5z
m175 -80 c12 -43 4 -102 -17 -119 -11 -9 -11 -4 2 29 16 42 16 42 -21 146 -8
20 -8 20 8 0 9 -11 22 -36 28 -56z"/>
<path d="M3163 4260 l37 -20 38 20 c35 20 36 21 7 15 -16 -4 -37 -6 -45 -6 -8
0 -28 2 -45 6 -29 6 -28 5 8 -15z"/>
<path d="M3100 4255 c0 -2 23 -16 50 -30 l50 -25 51 26 c28 14 49 27 46 30 -2
3 -25 -5 -51 -18 l-46 -22 -45 22 c-47 23 -55 25 -55 17z"/>
<path d="M3050 4226 c0 -8 -23 -34 -51 -57 l-52 -43 54 -50 c30 -27 55 -53 55
-58 1 -4 2 -10 3 -13 0 -2 25 10 54 27 32 19 65 32 87 32 22 0 55 -13 88 -32
28 -17 53 -29 53 -27 1 3 2 9 3 13 0 5 25 31 55 58 l54 50 -52 43 c-28 23 -51
49 -51 57 0 20 -15 18 -58 -9 -83 -51 -87 -51 -163 -12 -79 40 -79 40 -79 21z
m90 -46 l60 -30 61 30 60 31 32 -20 c18 -11 43 -31 56 -45 l23 -24 -33 -31
c-63 -56 -72 -58 -139 -26 l-60 29 -60 -29 c-67 -32 -76 -30 -138 26 -29 26
-32 32 -20 46 13 16 87 73 95 73 2 0 30 -14 63 -30z"/>
<path d="M3145 4018 c-48 -24 -50 -26 -43 -34 3 -3 21 4 39 15 43 26 75 26
117 1 36 -22 42 -24 42 -12 0 9 -85 52 -103 52 -6 -1 -30 -10 -52 -22z"/>
<path d="M1620 3973 c-19 -10 -41 -31 -49 -48 -8 -16 -20 -42 -28 -57 -17 -34
-17 -82 2 -117 19 -37 92 -83 201 -127 158 -64 243 -114 321 -189 l74 -71 23
41 c28 46 104 135 116 135 14 0 130 -153 129 -170 0 -10 -6 -6 -17 10 -9 14
-39 49 -66 78 l-49 52 -24 -22 c-34 -31 -107 -128 -101 -133 2 -3 20 17 40 43
20 26 48 58 63 72 l26 24 39 -44 c22 -25 58 -72 80 -106 l40 -61 -22 -41 -23
-42 23 -42 22 -41 -40 -61 c-22 -34 -58 -81 -80 -106 l-39 -44 -26 24 c-15 14
-43 46 -63 72 -20 26 -38 46 -40 43 -6 -5 67 -102 101 -133 l24 -22 49 52 c27
29 57 64 66 78 11 16 17 20 17 10 1 -17 -115 -170 -129 -170 -12 0 -88 89
-116 135 l-23 41 -74 -71 c-78 -75 -163 -125 -321 -189 -109 -44 -182 -90
-201 -127 -19 -35 -19 -83 -2 -117 8 -15 20 -40 28 -57 21 -43 73 -67 129 -60
25 4 117 35 205 70 173 69 282 92 381 82 48 -5 53 -4 45 11 -5 9 -12 44 -15
77 -4 33 -9 77 -12 98 l-6 37 54 0 c29 0 81 -6 116 -14 l62 -13 0 79 0 78 -60
60 -59 61 40 79 41 80 -41 80 -40 79 59 61 60 60 0 78 0 79 -62 -13 c-35 -8
-87 -14 -116 -14 l-54 0 6 38 c3 20 8 64 12 97 3 33 10 68 15 77 8 15 3 16
-45 11 -99 -10 -208 13 -381 82 -186 74 -235 84 -285 58z m157 -22 c32 -11 94
-35 139 -55 112 -50 221 -76 317 -76 77 0 79 -1 73 -22 -3 -13 -9 -65 -13
-117 l-6 -94 69 7 c38 4 88 9 112 13 l42 5 -1 -68 c-1 -69 -1 -69 -45 -108
-44 -39 -45 -39 -59 -19 -31 44 -117 143 -124 143 -10 0 -85 -80 -122 -130
l-27 -35 -53 51 c-81 76 -153 120 -288 174 -143 58 -178 78 -221 127 -36 41
-36 56 4 147 36 80 87 95 203 57z m683 -785 l-12 -40 -15 34 c-12 29 -12 41
-2 74 l13 39 14 -34 c11 -27 12 -41 2 -73z m-295 -203 c34 -47 107 -123 116
-123 7 0 95 101 124 143 14 20 15 20 59 -19 44 -39 44 -39 45 -108 l1 -68 -42
5 c-24 4 -74 9 -112 13 l-69 7 6 -94 c4 -52 10 -104 13 -116 6 -22 4 -23 -73
-23 -95 0 -205 -26 -317 -76 -228 -100 -297 -99 -342 3 -40 90 -40 105 -4 146
43 49 78 69 222 127 130 53 227 112 293 179 21 23 42 41 46 41 4 0 19 -17 34
-37z"/>
<path d="M1708 3878 c28 -30 28 -48 1 -82 -17 -21 -27 -26 -46 -21 -18 4 -24
2 -21 -7 6 -18 56 -22 74 -7 8 7 22 28 30 47 18 44 2 85 -36 90 l-25 4 23 -24z"/>
<path d="M1647 2643 c-15 -14 -6 -23 17 -17 18 4 28 -1 45 -22 27 -34 27 -52
-1 -82 l-23 -24 25 4 c35 4 54 47 38 85 -19 44 -39 63 -68 63 -15 0 -30 -3
-33 -7z"/>
<path d="M4680 3983 c-14 -2 -97 -33 -185 -68 -173 -69 -282 -92 -381 -82 -48
5 -53 4 -45 -11 5 -9 12 -44 15 -77 4 -33 9 -77 12 -97 l6 -38 -54 0 c-29 0
-81 6 -115 14 l-63 13 0 -79 0 -78 60 -60 59 -61 -40 -79 -41 -80 41 -80 40
-79 -59 -61 -60 -60 0 -78 0 -79 63 13 c34 8 86 14 115 14 l54 0 -6 -37 c-3
-21 -8 -65 -12 -98 -3 -33 -10 -68 -15 -77 -8 -15 -3 -16 45 -11 99 10 208
-13 381 -82 88 -35 180 -66 205 -70 56 -7 108 17 129 60 8 17 20 42 28 57 17
34 17 82 -2 117 -19 37 -92 83 -201 127 -158 64 -243 114 -321 189 l-74 71
-23 -41 c-28 -46 -104 -135 -116 -135 -14 0 -130 153 -129 170 0 10 6 6 17
-10 9 -14 39 -49 66 -78 l49 -52 24 22 c36 33 107 128 101 134 -3 3 -21 -17
-41 -43 -19 -26 -47 -59 -61 -73 l-27 -24 -39 44 c-22 25 -58 72 -80 106 l-40
61 22 41 23 42 -23 42 -22 41 40 61 c22 34 58 81 80 106 l39 44 27 -24 c14
-14 42 -47 61 -73 20 -26 38 -46 41 -43 6 6 -65 101 -101 134 l-24 22 -49 -52
c-27 -29 -57 -64 -66 -78 -11 -16 -17 -20 -17 -10 -1 17 115 170 129 170 12 0
88 -89 116 -135 l23 -41 74 71 c78 75 163 125 321 189 109 44 182 90 201 127
19 35 19 83 1 117 -8 15 -19 39 -24 54 -19 48 -85 74 -152 61z m95 -23 c18 -7
34 -27 51 -67 40 -90 40 -105 4 -146 -43 -49 -74 -67 -219 -126 -137 -55 -209
-99 -290 -175 l-53 -51 -27 35 c-37 50 -112 130 -122 130 -7 0 -93 -99 -124
-143 -14 -20 -15 -20 -59 19 -44 39 -44 39 -45 108 l-1 68 43 -5 c23 -4 73 -9
111 -13 l69 -7 -6 94 c-4 52 -10 104 -13 117 -6 21 -4 22 73 22 93 0 201 25
305 71 172 75 244 91 303 69z m-808 -797 l-14 -37 -12 37 c-10 29 -10 45 0 74
l12 37 14 -37 c13 -33 13 -41 0 -74z m41 -196 c12 -17 42 -54 67 -82 l44 -50
48 50 c27 28 60 66 74 85 l27 35 55 -52 c80 -76 158 -123 296 -177 124 -49
187 -88 225 -139 20 -27 20 -28 1 -82 -10 -30 -26 -68 -36 -85 -35 -57 -131
-51 -287 18 -139 63 -215 84 -330 89 -100 5 -103 7 -98 27 4 11 9 63 13 115
l6 94 -69 -7 c-38 -4 -88 -9 -111 -13 l-43 -5 0 66 c0 64 1 66 43 105 23 22
44 41 47 41 3 0 15 -15 28 -33z"/>
<path d="M4663 3888 c-27 -34 -16 -96 21 -127 18 -15 68 -11 74 7 3 9 -3 11
-21 7 -19 -5 -29 0 -46 21 -27 34 -27 52 1 81 21 23 21 23 1 23 -11 0 -25 -6
-30 -12z"/>
<path d="M4679 2633 c-8 -10 -21 -31 -27 -46 -16 -38 3 -81 38 -85 l25 -4 -22
24 c-29 30 -29 48 -2 82 17 21 27 26 46 21 18 -4 24 -2 21 7 -7 21 -62 22 -79
1z"/>
<path d="M2995 3899 l-59 -62 -87 2 c-48 1 -89 -1 -92 -6 -3 -4 38 -8 91 -8
l97 0 64 68 c35 37 60 67 54 67 -5 0 -36 -28 -68 -61z"/>
<path d="M3391 3893 l64 -68 97 0 c53 0 94 4 91 8 -3 5 -44 7 -92 6 l-87 -2
-59 62 c-32 33 -63 61 -68 61 -6 0 19 -30 54 -67z"/>
<path d="M3038 3893 c-25 -27 -53 -62 -63 -80 -10 -18 -22 -30 -27 -27 -19 12
-127 24 -165 18 -67 -10 -50 -19 35 -19 42 0 93 -3 113 -8 36 -7 38 -6 63 37
14 24 47 63 73 85 27 23 41 41 33 41 -9 0 -36 -21 -62 -47z"/>
<path d="M3333 3899 c26 -22 59 -61 73 -85 25 -43 27 -44 63 -37 20 5 71 8
114 8 84 0 101 9 35 19 -39 6 -147 -6 -166 -18 -5 -3 -17 9 -27 27 -25 45
-106 127 -125 127 -8 0 6 -18 33 -41z"/>
<path d="M3161 3665 c-39 -45 -71 -107 -71 -139 0 -36 -12 -38 -54 -9 -46 30
-169 54 -188 35 -19 -19 5 -142 35 -188 30 -43 27 -54 -11 -54 -32 0 -117 -47
-151 -84 l-24 -26 24 -26 c34 -37 119 -84 151 -84 38 0 41 -11 11 -54 -30 -46
-54 -169 -35 -188 19 -19 142 5 188 35 43 30 54 27 54 -11 0 -32 47 -117 84
-151 l26 -24 26 24 c37 34 84 119 84 151 0 38 11 41 54 11 46 -30 169 -54 188
-35 19 19 -5 142 -35 188 -30 43 -27 54 11 54 32 0 117 47 151 84 l24 26 -24
26 c-34 37 -119 84 -151 84 -38 0 -41 11 -11 54 30 46 54 169 35 188 -19 19
-142 -5 -188 -35 -42 -29 -54 -27 -54 9 0 44 -82 174 -110 174 -4 0 -22 -16
-39 -35z m57 -247 c6 -17 10 -33 8 -36 -2 -2 -7 6 -11 17 -3 12 -10 21 -15 21
-5 0 -12 -9 -15 -21 -4 -11 -9 -19 -11 -17 -5 6 19 68 26 68 3 0 11 -14 18
-32z m-117 -76 c-5 -2 -20 2 -31 8 -27 15 -35 8 -21 -18 6 -12 11 -27 11 -34
0 -7 -9 7 -20 31 -11 24 -20 45 -20 47 0 1 20 -5 45 -14 26 -9 42 -18 36 -20z
m261 -7 c-9 -26 -18 -42 -20 -36 -2 5 2 20 8 31 15 27 8 35 -18 21 -12 -6 -27
-11 -34 -10 -9 0 56 32 79 38 1 1 -6 -19 -15 -44z m-137 -25 c10 -11 29 -20
42 -20 17 0 23 -6 23 -22 0 -12 10 -32 22 -45 l21 -23 -21 -23 c-12 -13 -22
-33 -22 -45 0 -16 -6 -22 -22 -22 -12 0 -32 -10 -45 -22 l-23 -21 -23 21 c-13
12 -33 22 -45 22 -16 0 -22 6 -22 22 0 12 -10 32 -22 45 l-21 23 21 23 c12 13
22 33 22 45 0 16 6 22 23 22 13 0 32 9 42 20 10 11 21 20 25 20 4 0 15 -9 25
-20z m-201 -85 c-10 -8 -25 -15 -31 -15 -21 0 -14 -17 9 -23 12 -4 20 -9 17
-11 -6 -6 -69 16 -69 24 0 5 69 37 84 39 6 1 1 -6 -10 -14z m389 -5 c20 -8 37
-17 37 -20 0 -8 -63 -31 -69 -24 -3 2 5 7 17 11 23 6 30 23 10 23 -7 0 -22 8
-33 16 -11 9 -15 15 -10 13 6 -2 27 -11 48 -19z m-363 -150 c-15 -27 -8 -35
18 -21 12 6 27 11 34 10 7 0 -7 -8 -32 -18 -25 -11 -46 -18 -47 -17 -2 2 5 21
15 44 9 23 18 37 20 32 2 -5 -2 -19 -8 -30z m313 -7 l16 -42 -45 17 c-25 9
-41 18 -35 20 5 2 20 -2 31 -8 27 -15 35 -8 21 18 -6 12 -11 26 -11 33 0 17 4
10 23 -38z m-173 -69 c0 -22 17 -17 23 8 4 12 9 20 11 17 7 -7 -16 -69 -25
-69 -4 0 -9 8 -12 18 -2 9 -8 26 -13 36 -5 14 -4 17 4 12 7 -4 12 -14 12 -22z"/>
<path d="M3180 3295 c-7 -8 -23 -15 -36 -15 -18 0 -24 -6 -24 -22 0 -12 -7
-30 -17 -40 -15 -17 -15 -19 0 -36 10 -10 17 -28 17 -40 0 -16 6 -22 22 -22
12 0 30 -7 40 -17 17 -15 19 -15 36 0 10 10 28 17 40 17 16 0 22 6 22 22 0 12
7 30 17 40 15 17 15 19 0 36 -10 10 -17 28 -17 40 0 16 -6 22 -24 22 -13 0
-29 7 -36 15 -7 8 -16 15 -20 15 -4 0 -13 -7 -20 -15z"/>
<path d="M3015 3673 c-16 -9 -37 -19 -45 -23 -26 -12 -25 -66 2 -84 73 -51
171 40 113 104 -22 24 -31 24 -70 3z m63 -15 c33 -33 -3 -89 -59 -91 -26 -2
-36 4 -48 25 -15 25 -14 29 2 45 13 13 20 15 29 5 14 -14 32 -16 23 -2 -16 26
30 41 53 18z"/>
<path d="M3311 3663 c-51 -64 48 -146 117 -97 27 18 28 72 2 84 -8 4 -29 15
-47 24 -42 21 -48 21 -72 -11z m63 -16 c-2 -20 7 -22 24 -5 10 10 16 8 29 -5
16 -16 17 -20 2 -45 -12 -21 -22 -27 -48 -25 -57 2 -92 58 -59 91 18 18 53 11
52 -11z"/>
<path d="M2597 3616 c-6 -42 5 -146 18 -166 3 -5 -9 -17 -27 -26 -43 -21 -128
-104 -128 -124 0 -8 18 6 41 33 22 26 61 59 85 73 43 25 44 27 37 63 -5 20 -8
71 -8 114 0 85 -9 101 -18 33z"/>
<path d="M3785 3583 c0 -43 -3 -94 -8 -114 -7 -36 -6 -38 37 -63 24 -14 63
-47 85 -73 23 -27 41 -41 41 -33 0 20 -85 103 -128 124 -18 9 -30 21 -27 26
21 34 26 210 6 210 -3 0 -6 -35 -6 -77z"/>
<path d="M2565 3640 c-3 -6 -5 -47 -4 -93 l2 -83 -62 -59 c-33 -32 -61 -63
-61 -68 0 -6 30 19 67 54 l68 64 0 97 c0 54 -1 98 -2 98 -1 0 -5 -5 -8 -10z"/>
<path d="M3825 3552 l0 -97 68 -64 c37 -35 67 -60 67 -54 0 5 -28 36 -61 68
l-62 59 2 87 c1 48 -1 89 -6 92 -4 3 -8 -38 -8 -91z"/>
<path d="M1741 3444 c-50 -42 -41 -122 16 -142 37 -13 71 1 79 33 10 40 -32
75 -52 43 -5 -7 -2 -9 8 -5 15 5 38 -9 38 -24 0 -16 -33 -39 -55 -39 -25 0
-55 41 -55 74 0 31 44 66 91 72 65 9 157 -36 228 -111 56 -59 79 -68 40 -16
-56 76 -176 140 -261 141 -36 0 -54 -6 -77 -26z"/>
<path d="M4479 3447 c-62 -26 -124 -72 -158 -118 -39 -52 -16 -43 40 16 71 75
163 120 228 111 47 -6 91 -41 91 -72 0 -33 -30 -74 -55 -74 -23 0 -55 23 -55
39 0 13 26 32 33 24 4 -3 7 -1 7 5 0 17 -25 15 -40 -3 -17 -21 -4 -64 23 -74
28 -10 74 5 87 29 21 39 12 87 -21 114 -39 33 -103 34 -180 3z"/>
<path d="M2231 3401 c-24 -28 -49 -51 -57 -51 -20 0 -18 -15 9 -58 42 -68 48
-89 35 -119 -7 -16 -23 -45 -35 -65 -27 -43 -29 -58 -9 -58 8 0 33 -23 57 -51
l43 -51 50 53 c28 30 54 54 59 55 4 1 9 2 12 3 2 0 -10 25 -27 54 -19 32 -32
65 -32 87 0 22 13 55 32 88 17 28 29 53 27 53 -3 1 -8 2 -12 3 -5 1 -31 25
-59 55 l-50 53 -43 -51z m84 -8 c49 -54 51 -68 19 -134 l-28 -59 28 -59 c32
-67 30 -80 -20 -134 l-36 -39 -25 23 c-13 13 -33 38 -44 56 l-20 32 31 60 30
61 -30 61 c-30 59 -31 62 -14 87 16 26 65 82 71 82 1 0 18 -17 38 -37z"/>
<path d="M2752 3438 c-7 -7 -12 -17 -12 -24 0 -7 -8 -26 -17 -43 -18 -30 -17
-31 4 -52 63 -64 160 34 107 109 -17 24 -62 30 -82 10z m67 -14 c19 -13 22
-22 17 -47 -12 -58 -66 -88 -96 -52 -16 19 -8 50 13 49 20 -2 22 7 5 24 -8 8
-8 15 2 27 16 19 30 19 59 -1z"/>
<path d="M3566 3428 c-23 -32 -20 -72 7 -104 28 -33 70 -35 100 -5 23 23 25
14 -23 111 -12 26 -66 25 -84 -2z m74 -3 c10 -12 10 -19 2 -27 -17 -17 -15
-26 5 -24 21 1 29 -30 13 -49 -30 -36 -84 -6 -96 52 -5 25 -2 34 17 47 29 20
43 20 59 1z"/>
<path d="M4075 3399 c-28 -30 -53 -54 -57 -55 -5 -1 -10 -2 -13 -3 -2 0 10
-25 27 -53 19 -33 32 -66 32 -88 0 -22 -13 -55 -32 -87 -17 -29 -29 -54 -27
-54 3 -1 8 -2 13 -3 4 -1 30 -25 58 -55 l50 -53 43 51 c24 28 49 51 57 51 19
0 19 0 -22 80 l-35 70 35 70 c40 79 41 80 24 80 -7 0 -33 23 -58 51 l-46 51
-49 -53z m88 -11 c50 -63 50 -61 17 -127 l-31 -61 31 -62 31 -61 -26 -38 c-15
-20 -35 -45 -45 -54 -17 -16 -20 -14 -54 22 -50 54 -52 67 -20 135 l28 59 -27
54 c-15 31 -27 62 -27 70 0 14 70 103 82 104 4 1 22 -18 41 -41z"/>
<path d="M1370 3381 c0 -21 49 -109 81 -146 l31 -35 -31 -35 c-53 -60 -107
-181 -63 -142 34 31 94 48 204 58 123 10 170 27 233 83 l40 36 -40 36 c-63 56
-110 73 -233 83 -110 10 -170 27 -204 58 -12 10 -18 12 -18 4z m230 -181 c0
-4 -19 -14 -42 -23 -35 -13 -39 -14 -24 -2 11 8 26 15 33 15 7 0 13 5 13 10 0
6 -6 10 -13 10 -7 0 -22 7 -33 15 -15 12 -11 11 24 -2 23 -9 42 -19 42 -23z"/>
<path d="M5016 3381 c-18 -28 -97 -52 -207 -62 -124 -10 -171 -27 -234 -83
l-40 -36 40 -36 c63 -56 110 -73 233 -83 110 -10 170 -27 204 -58 44 -39 -10
82 -63 142 l-31 35 31 35 c36 41 84 131 78 148 -2 7 -6 7 -11 -2z m-150 -156
c-11 -8 -26 -15 -33 -15 -7 0 -13 -4 -13 -10 0 -5 6 -10 13 -10 7 0 22 -7 33
-15 15 -12 11 -11 -23 2 -24 9 -43 19 -43 23 0 4 17 14 38 23 47 19 51 20 28
2z"/>
<path d="M2122 3318 c-11 -18 -28 -52 -37 -75 -16 -40 -16 -46 0 -85 19 -48
55 -111 61 -105 2 2 -12 36 -32 75 l-36 72 36 72 c38 76 42 102 8 46z"/>
<path d="M4252 3345 c2 -5 18 -41 36 -78 l33 -68 -35 -71 c-20 -40 -34 -73
-32 -75 6 -6 42 57 61 105 17 41 17 44 -4 95 -18 43 -70 124 -59 92z"/>
<path d="M1303 3292 c9 -10 23 -34 32 -55 14 -33 14 -41 0 -74 -9 -21 -23 -45
-32 -55 -9 -10 -13 -18 -9 -18 16 0 145 73 162 91 16 18 16 20 0 38 -17 18
-146 91 -162 91 -4 0 0 -8 9 -18z"/>
<path d="M5030 3275 c-36 -20 -74 -44 -84 -55 -19 -18 -19 -20 -2 -39 17 -18
145 -91 162 -91 4 0 0 8 -9 18 -9 10 -23 34 -32 55 -14 33 -14 41 0 74 9 21
23 45 32 55 24 26 6 22 -67 -17z"/>
<path d="M2140 3295 c0 -2 10 -25 22 -50 l22 -45 -22 -46 c-13 -26 -21 -49
-18 -51 3 -3 16 18 30 46 l26 51 -25 50 c-22 44 -35 60 -35 45z"/>
<path d="M2380 3250 l-23 -50 23 -50 c13 -27 27 -50 32 -50 12 0 11 3 -18 54
l-26 46 26 46 c29 51 30 54 18 54 -5 0 -19 -22 -32 -50z"/>
<path d="M3980 3296 c0 -2 12 -24 26 -50 l26 -46 -26 -46 c-29 -51 -30 -54
-18 -54 5 0 19 23 32 50 l23 50 -23 50 c-13 28 -27 50 -32 50 -4 0 -8 -2 -8
-4z"/>
<path d="M4226 3251 l-26 -51 26 -51 c14 -28 27 -49 30 -46 3 2 -5 25 -18 51
l-22 46 22 46 c13 26 21 49 18 51 -3 3 -16 -18 -30 -46z"/>
<path d="M2125 3245 c4 -16 6 -37 6 -45 0 -8 -2 -28 -6 -45 -6 -29 -5 -28 15
8 l20 37 -20 38 c-20 35 -21 36 -15 7z"/>
<path d="M4257 3236 c-16 -35 -16 -38 3 -74 12 -23 19 -30 20 -19 0 10 -5 27
-10 38 -8 13 -7 25 0 40 6 11 10 27 8 36 -2 10 -9 2 -21 -21z"/>
<path d="M1753 3095 c-34 -14 -43 -32 -43 -80 0 -49 46 -85 108 -85 85 1 205
65 261 141 39 52 16 43 -40 -16 -71 -75 -163 -120 -228 -111 -47 6 -91 41 -91
72 0 33 30 74 55 74 22 0 55 -23 55 -39 0 -15 -23 -29 -39 -24 -13 5 -13 3 -4
-7 27 -29 63 14 45 54 -13 30 -41 37 -79 21z"/>
<path d="M2460 3100 c0 -20 85 -103 128 -124 18 -9 30 -21 27 -26 -21 -34 -26
-210 -6 -210 3 0 6 35 6 78 0 42 3 93 8 113 7 36 6 38 -37 63 -24 14 -63 47
-85 73 -23 27 -41 41 -41 33z"/>
<path d="M2733 3086 l-28 -25 19 -38 c10 -21 22 -45 26 -53 4 -8 21 -16 38
-18 57 -6 83 73 40 122 -35 37 -61 41 -95 12z m80 -14 c9 -10 20 -32 23 -49 5
-26 2 -34 -20 -48 -14 -10 -33 -15 -41 -11 -20 7 -32 39 -17 44 18 6 14 20 -5
18 -21 -1 -29 30 -13 49 17 20 54 19 73 -3z"/>
<path d="M3604 3100 c-75 -30 -68 -156 8 -148 17 2 34 10 38 18 4 8 16 32 26
53 l19 38 -28 25 c-31 26 -32 27 -63 14z m56 -25 c16 -19 8 -50 -13 -49 -20 2
-22 -7 -5 -24 10 -9 8 -16 -5 -29 -16 -16 -20 -17 -45 -2 -21 12 -27 22 -25
48 2 58 62 94 93 56z"/>
<path d="M3897 3066 c-21 -25 -58 -57 -83 -72 -43 -25 -44 -27 -37 -63 5 -20
8 -71 8 -113 0 -43 3 -78 6 -78 20 0 15 176 -6 210 -3 5 11 18 32 29 45 23
127 104 122 120 -3 7 -21 -9 -42 -33z"/>
<path d="M4300 3100 c0 -5 23 -32 52 -61 62 -62 143 -101 218 -107 49 -4 60
-1 88 23 51 43 43 122 -15 143 -37 13 -71 -1 -79 -33 -10 -40 32 -75 52 -43 5
7 2 9 -8 5 -15 -5 -38 9 -38 24 0 16 33 39 55 39 30 0 58 -48 49 -84 -9 -36
-35 -55 -86 -62 -64 -9 -156 36 -227 111 -53 56 -61 62 -61 45z"/>
<path d="M2440 3063 c0 -5 28 -36 61 -68 l62 -59 -2 -87 c-1 -48 1 -89 6 -92
4 -3 8 38 8 91 l0 97 -68 64 c-37 35 -67 60 -67 54z"/>
<path d="M3890 3007 l-65 -62 0 -97 c0 -53 4 -94 8 -91 5 3 7 44 6 92 l-2 87
64 61 c35 34 61 64 59 67 -3 2 -34 -23 -70 -57z"/>
<path d="M2972 2834 c-27 -18 -28 -72 -2 -84 97 -48 88 -46 111 -23 64 64 -34
160 -109 107z m100 -21 c22 -19 23 -56 3 -73 -19 -16 -50 -8 -49 13 2 20 -7
22 -24 5 -8 -8 -15 -8 -27 2 -19 16 -19 30 1 59 13 19 22 22 47 17 17 -3 39
-14 49 -23z"/>
<path d="M3326 2828 c-37 -35 -41 -61 -12 -95 l25 -28 38 19 c21 10 45 22 53
26 8 4 16 21 18 38 6 57 -73 83 -122 40z m104 -20 c13 -25 13 -29 -3 -45 -13
-13 -19 -14 -29 -5 -17 17 -26 15 -24 -5 0 -10 -7 -19 -17 -21 -42 -9 -64 50
-29 80 40 36 80 34 102 -4z"/>
<path d="M2330 2704 c1 -38 7 -98 15 -134 8 -36 14 -67 15 -70 0 -3 -42 -5
-93 -5 -80 0 -100 -4 -155 -29 -97 -45 -137 -105 -111 -167 24 -60 111 -71
139 -19 15 29 5 67 -21 75 -20 7 -49 -9 -49 -28 0 -5 8 -3 18 6 22 20 42 6 42
-28 0 -48 -61 -61 -98 -22 -29 31 -28 73 3 113 40 53 103 76 227 83 l106 6 12
-38 c11 -38 37 -61 80 -72 l25 -6 -6 -107 c-5 -79 -12 -120 -28 -154 -40 -88
-123 -124 -169 -75 -38 40 -24 97 23 97 34 0 48 -20 28 -42 -9 -10 -11 -18 -6
-18 19 0 35 29 28 49 -8 26 -46 36 -75 21 -52 -28 -41 -115 19 -139 62 -26
122 14 167 111 29 64 29 62 29 248 0 0 35 -7 78 -15 43 -8 106 -15 139 -15
l61 0 -7 82 c-8 97 -30 199 -54 248 -27 56 -128 92 -300 106 l-82 7 0 -69z
m210 31 c121 -29 146 -42 164 -88 27 -73 46 -170 46 -241 l0 -69 -82 7 c-85 7
-102 12 -93 26 3 5 37 6 75 3 l70 -6 0 71 c0 39 3 77 6 85 4 11 -5 16 -32 22
-76 14 -112 34 -127 74 -9 21 -18 53 -22 72 l-6 34 -77 -2 c-42 -1 -81 -2 -86
-2 -5 -1 -6 -32 -3 -71 3 -38 2 -72 -3 -75 -14 -9 -19 8 -26 93 l-7 82 69 0
c38 0 98 -7 134 -15z m-41 -34 c19 -5 29 -21 46 -71 l21 -64 64 -21 c71 -24
77 -33 79 -118 l1 -49 -52 7 c-76 9 -86 14 -93 38 -28 98 -34 105 -101 127
-68 23 -69 24 -79 108 l-7 52 49 -1 c26 -1 59 -4 72 -8z m-29 -170 c44 -16 46
-19 69 -89 13 -40 21 -75 18 -78 -8 -9 -133 35 -146 50 -11 13 -51 122 -51
138 0 11 46 2 110 -21z"/>
<path d="M2575 2690 c16 -76 39 -98 120 -116 44 -10 22 7 -33 25 -43 15 -48
20 -63 63 -19 59 -34 76 -24 28z"/>
<path d="M2610 2704 c-1 -37 24 -74 56 -84 48 -16 56 -4 11 15 -21 8 -37 21
-37 28 0 16 -29 56 -30 41z"/>
<path d="M2380 2521 c0 -4 19 -14 43 -20 56 -17 62 -24 77 -76 7 -25 16 -45
21 -45 11 0 -17 90 -34 107 -16 17 -107 45 -107 34z"/>
<path d="M2390 2481 c0 -5 13 -14 29 -21 16 -6 35 -25 41 -41 18 -42 31 -36
16 8 -10 28 -21 39 -49 49 -20 7 -37 9 -37 5z"/>
<path d="M3915 2759 c-80 -11 -190 -47 -209 -68 -33 -36 -76 -222 -76 -327 l0
-34 59 0 c33 0 95 7 138 15 43 8 78 15 78 15 0 -186 0 -184 29 -248 45 -97
105 -137 167 -111 60 24 71 111 19 139 -29 15 -67 5 -75 -21 -7 -20 9 -49 28
-49 5 0 3 8 -6 18 -20 22 -6 42 28 42 48 0 61 -61 22 -98 -31 -29 -73 -28
-113 3 -53 40 -76 103 -83 227 l-6 107 25 6 c43 11 69 34 80 72 l12 38 106 -6
c78 -5 120 -12 154 -28 88 -40 124 -123 75 -169 -40 -38 -97 -24 -97 23 0 34
20 48 42 28 10 -9 18 -11 18 -6 0 19 -29 35 -49 28 -26 -8 -36 -46 -21 -75 28
-52 115 -41 139 19 26 62 -14 122 -111 167 -64 29 -62 29 -248 29 0 0 7 35 15
78 8 43 15 105 15 138 l0 59 -47 -1 c-27 -1 -75 -5 -108 -10z m141 -91 c-7
-85 -12 -102 -26 -93 -5 3 -6 37 -3 75 3 39 2 70 -3 71 -5 0 -44 1 -86 2 l-77
2 -6 -34 c-4 -19 -13 -51 -22 -72 -15 -40 -51 -60 -127 -74 -27 -6 -36 -11
-32 -22 3 -8 6 -46 6 -85 l0 -71 70 6 c38 3 72 2 75 -3 9 -14 -8 -19 -93 -26
l-82 -7 0 69 c0 71 19 168 46 241 13 33 24 44 57 57 74 28 160 44 236 45 l74
1 -7 -82z m-41 -10 c-10 -84 -11 -85 -79 -108 -67 -22 -73 -29 -101 -127 -7
-24 -17 -29 -92 -38 l-53 -7 1 49 c2 85 8 94 79 118 l64 21 21 64 c24 71 33
77 118 79 l49 1 -7 -52z m25 -106 c0 -17 -40 -125 -51 -138 -13 -15 -138 -59
-146 -50 -3 3 5 38 18 78 l24 73 65 22 c71 24 90 27 90 15z"/>
<path d="M3816 2708 c-24 -82 -31 -93 -79 -109 -54 -18 -76 -35 -32 -25 80 18
104 40 120 114 6 30 -1 47 -9 20z"/>
<path d="M3766 2680 c-8 -21 -25 -38 -46 -46 -43 -18 -32 -29 14 -14 27 8 38
19 46 46 15 46 4 57 -14 14z"/>
<path d="M3969 2514 c-26 -7 -52 -20 -59 -28 -16 -20 -41 -106 -31 -106 4 0
14 19 20 43 17 56 24 62 76 77 25 7 45 17 45 21 0 5 -1 9 -2 8 -2 0 -24 -7
-49 -15z"/>
<path d="M3971 2476 c-26 -9 -38 -21 -47 -49 -15 -44 -2 -50 16 -8 6 16 25 35
41 41 16 7 29 16 29 21 0 5 -1 9 -2 8 -2 0 -18 -6 -37 -13z"/>
<path d="M1085 2651 c-65 -29 -115 -82 -115 -122 0 -52 38 -109 90 -135 53
-27 49 -30 -10 -9 -122 43 -226 -16 -238 -134 -4 -48 -4 -50 37 -76 95 -63
195 -34 251 73 32 63 36 65 16 9 -23 -69 7 -157 62 -178 32 -12 92 -4 150 21
45 20 53 35 23 43 -13 3 -21 18 -26 48 -10 56 -47 94 -102 102 -23 4 -45 11
-48 17 -9 14 50 2 123 -26 74 -28 80 -29 103 -8 17 15 15 18 -38 46 -57 30
-60 31 -152 12 -48 -10 -31 12 20 26 22 6 50 21 62 33 l22 22 -36 3 c-24 2
-49 -4 -70 -17 -38 -23 -49 -26 -49 -11 0 5 22 21 50 35 42 21 51 31 61 67 6
24 15 53 20 66 8 21 7 23 -18 20 -23 -2 -34 -15 -63 -73 -40 -80 -70 -125 -70
-107 0 7 11 30 25 50 32 47 31 72 -2 134 -22 41 -25 53 -15 69 10 16 9 19 -5
19 -10 0 -36 -9 -58 -19z m-11 -87 c-16 -39 -12 -78 13 -127 8 -16 12 -31 9
-34 -3 -4 -15 16 -27 42 -23 51 -22 112 1 140 19 23 20 18 4 -21z m206 -160
c0 -6 -65 -34 -77 -34 -9 1 58 39 70 40 4 0 7 -2 7 -6z m-180 -73 c0 -8 -53
-32 -69 -31 -5 1 59 38 67 40 1 0 2 -4 2 -9z m84 -129 c11 -21 33 -40 59 -53
30 -13 36 -19 20 -19 -45 0 -114 81 -112 132 1 22 1 22 8 -2 5 -14 16 -40 25
-58z"/>
<path d="M5252 2651 c10 -16 7 -28 -15 -69 -33 -62 -34 -87 -2 -134 14 -20 25
-43 25 -50 0 -18 -30 27 -70 107 -29 58 -40 71 -63 73 -25 3 -26 1 -18 -20 5
-13 14 -42 20 -66 10 -36 19 -46 61 -67 28 -14 50 -30 50 -35 0 -15 -11 -12
-49 11 -21 13 -46 19 -70 17 l-36 -3 22 -22 c12 -12 40 -27 62 -33 51 -14 68
-36 20 -26 -92 19 -95 18 -152 -12 -53 -28 -55 -31 -38 -46 23 -21 29 -20 103
8 73 28 132 40 123 26 -3 -6 -25 -13 -48 -17 -55 -8 -92 -46 -102 -102 -5 -30
-13 -45 -26 -48 -30 -8 -22 -23 24 -43 57 -25 117 -33 149 -21 55 21 85 109
62 178 -20 56 -16 54 16 -9 56 -107 156 -136 251 -73 41 26 41 28 37 77 -11
114 -116 174 -234 134 -64 -22 -68 -20 -14 8 52 26 90 83 90 135 0 26 -8 42
-37 69 -39 36 -105 71 -136 72 -14 0 -15 -3 -5 -19z m95 -118 c4 -28 -1 -54
-16 -88 -12 -26 -24 -46 -27 -42 -3 3 1 18 9 34 26 50 29 88 12 129 -15 36
-15 38 0 23 9 -9 19 -34 22 -56z m-177 -143 c19 -11 31 -19 27 -20 -12 0 -77
28 -77 34 0 10 14 6 50 -14z m196 -87 c-6 -6 -66 19 -66 28 0 5 16 1 35 -8 19
-9 33 -18 31 -20z m-126 -84 c-16 -38 -75 -89 -103 -89 -16 0 -11 6 20 19 42
19 81 75 84 118 1 17 2 17 6 0 3 -10 -1 -32 -7 -48z"/>
<path d="M2905 2618 c-22 -5 -68 -7 -102 -5 -71 5 -86 -7 -20 -17 38 -6 146 6
165 18 5 3 17 -9 27 -27 25 -45 106 -127 125 -127 8 0 -6 18 -33 41 -26 22
-59 61 -73 85 -28 47 -28 47 -89 32z"/>
<path d="M3406 2586 c-14 -24 -47 -63 -73 -85 -27 -23 -41 -41 -33 -41 19 0
100 82 125 127 10 18 22 30 27 27 19 -12 127 -24 166 -18 66 10 49 19 -35 19
-43 0 -94 3 -114 8 -36 7 -38 6 -63 -37z"/>
<path d="M2757 2567 c3 -5 44 -7 92 -6 l87 2 59 -62 c32 -33 63 -61 68 -61 6
0 -19 30 -54 67 l-64 68 -97 0 c-53 0 -94 -4 -91 -8z"/>
<path d="M3391 2508 c-35 -37 -59 -68 -54 -68 6 0 36 28 68 61 l59 62 87 -2
c48 -1 89 1 92 6 3 4 -38 8 -91 8 l-97 1 -64 -68z"/>
<path d="M2776 2468 c8 -35 14 -87 14 -116 l0 -54 -37 6 c-21 3 -65 8 -98 12
-33 3 -68 10 -77 15 -15 8 -16 3 -11 -45 10 -99 -13 -208 -82 -381 -35 -88
-66 -180 -70 -205 -7 -56 17 -108 60 -129 17 -8 42 -20 57 -28 34 -17 82 -17
117 2 37 19 83 92 127 201 64 158 114 243 189 321 l71 74 -41 23 c-46 28 -135
104 -135 116 0 14 153 130 170 129 10 0 6 -6 -10 -17 -14 -9 -49 -39 -78 -66
l-52 -49 22 -24 c33 -36 128 -107 134 -101 3 3 -17 21 -43 41 -26 19 -59 47
-73 61 l-24 27 44 39 c25 22 72 58 106 80 l61 40 41 -22 42 -23 42 23 41 22
61 -40 c34 -22 81 -58 106 -80 l44 -39 -24 -27 c-14 -14 -47 -42 -73 -61 -26
-20 -46 -38 -43 -41 6 -5 61 35 119 87 l38 34 -43 44 c-24 24 -58 54 -77 66
-19 11 -29 23 -23 25 12 4 74 -37 137 -92 l40 -34 -30 -32 c-16 -17 -57 -50
-90 -71 l-60 -40 70 -72 c75 -78 125 -162 189 -321 44 -109 90 -182 127 -201
35 -19 83 -19 117 -2 15 8 41 20 57 28 43 21 67 73 60 129 -4 25 -35 117 -70
205 -69 173 -92 282 -82 381 5 48 4 53 -11 45 -9 -5 -44 -12 -77 -15 -33 -4
-77 -9 -97 -12 l-38 -6 0 54 c0 29 6 81 14 116 l13 62 -79 0 -78 0 -60 -60
-61 -59 -79 40 -80 41 -80 -41 -79 -40 -61 59 -60 60 -78 0 -79 0 13 -62z
m188 -4 c39 -44 39 -45 19 -59 -46 -32 -143 -117 -143 -125 0 -8 79 -81 140
-128 l25 -20 -52 -55 c-76 -80 -123 -158 -177 -296 -49 -124 -88 -187 -139
-225 -27 -20 -28 -20 -82 -1 -30 10 -68 26 -85 36 -57 35 -51 131 18 287 63
139 84 215 89 330 5 100 7 103 27 98 11 -4 63 -9 115 -13 l94 -6 -7 69 c-4 38
-9 88 -13 112 l-5 42 68 -1 c69 -1 69 -1 108 -45z m643 4 c-4 -24 -9 -74 -13
-112 l-7 -69 94 6 c52 4 104 9 115 13 20 5 22 2 27 -98 5 -115 26 -191 89
-330 69 -156 75 -252 18 -287 -17 -10 -55 -26 -85 -36 -54 -19 -55 -19 -82 1
-51 38 -90 101 -139 225 -54 138 -101 216 -177 296 l-52 55 25 20 c61 47 140
120 140 128 0 8 -97 93 -143 125 -20 14 -20 15 19 59 39 44 39 44 108 45 l68
1 -5 -42z m-367 -9 l32 -12 -33 -14 c-28 -12 -41 -12 -73 -2 l-39 13 29 13
c37 15 44 16 84 2z"/>
<path d="M2530 1747 c-14 -7 -26 -23 -28 -37 l-4 -25 24 23 c30 28 48 28 82 1
21 -17 26 -27 21 -46 -4 -18 -2 -24 7 -21 18 6 22 56 7 74 -9 11 -73 45 -83
44 0 0 -12 -6 -26 -13z"/>
<path d="M3804 1745 c-17 -8 -36 -20 -43 -29 -15 -18 -11 -68 7 -74 9 -3 11 3
7 21 -5 19 0 29 21 46 34 27 52 27 81 -1 23 -21 23 -21 23 -1 0 39 -48 58 -96
38z"/>
<path d="M3100 2412 c0 -5 23 -19 50 -32 l50 -23 50 23 c28 13 50 27 50 32 0
12 -6 10 -42 -12 -18 -11 -44 -20 -58 -20 -14 0 -40 9 -58 20 -36 22 -42 24
-42 12z"/>
<path d="M3059 2395 c-1 -3 -2 -8 -3 -12 -1 -5 -25 -31 -55 -59 l-53 -50 51
-43 c28 -24 51 -49 51 -57 0 -19 0 -19 79 21 76 39 80 39 163 -12 43 -27 58
-29 58 -9 0 8 23 33 51 57 l51 43 -53 50 c-30 28 -54 54 -55 59 -1 4 -2 9 -3
12 0 2 -25 -10 -53 -27 -33 -19 -66 -32 -88 -32 -22 0 -55 13 -87 32 -29 17
-54 29 -54 27z m86 -62 l54 -27 59 28 c68 32 81 30 136 -21 l40 -37 -40 -34
c-59 -52 -71 -54 -136 -21 l-58 29 -57 -29 c-40 -20 -64 -26 -78 -21 -24 10
-102 76 -95 82 3 2 24 20 48 41 23 20 49 37 57 37 8 0 39 -12 70 -27z"/>
<path d="M2108 2236 c-20 -7 -80 -48 -132 -91 -70 -56 -111 -82 -152 -95 l-57
-17 68 -22 c38 -11 88 -21 112 -21 l43 0 0 -43 c0 -24 10 -74 21 -112 l22 -68
17 57 c13 41 39 82 95 152 86 105 104 144 105 222 l0 52 -52 0 c-29 -1 -70 -7
-90 -14z m-44 -188 c-11 -38 -26 -57 -19 -25 5 26 4 27 -22 22 l-28 -5 30 14
c41 21 47 20 39 -6z"/>
<path d="M4150 2198 c1 -78 19 -117 105 -222 56 -70 82 -111 95 -152 l17 -57
22 68 c11 38 21 88 21 112 l0 43 43 0 c24 0 74 10 112 21 l68 22 -57 17 c-41
13 -82 39 -152 95 -105 86 -144 104 -221 105 l-53 0 0 -52z m240 -150 c11 -6
7 -8 -13 -3 -26 5 -27 4 -22 -22 7 -32 -8 -13 -20 25 -6 22 -5 23 17 17 12 -4
30 -12 38 -17z"/>
<path d="M3147 2174 c-62 -32 -55 -43 7 -12 l46 22 46 -22 c26 -13 49 -21 51
-18 4 4 -91 57 -99 56 -2 -1 -25 -12 -51 -26z"/>
<path d="M3160 2139 l-35 -20 30 6 c17 4 37 6 45 6 8 0 29 -2 45 -6 l30 -6
-35 20 c-19 11 -37 20 -40 20 -3 0 -21 -9 -40 -20z"/>
<path d="M3070 2131 c14 -11 49 -30 77 -42 51 -21 54 -21 95 -4 48 19 111 55
105 61 -2 2 -35 -12 -75 -32 l-71 -35 -68 33 c-86 42 -94 44 -63 19z"/>
<path d="M3039 2048 c-62 -62 -101 -143 -107 -218 -4 -49 -1 -60 23 -88 20
-24 35 -32 60 -32 47 0 64 8 80 41 19 36 5 76 -30 85 -40 10 -75 -32 -43 -52
7 -5 9 -2 5 8 -5 15 9 38 24 38 16 0 39 -33 39 -55 0 -30 -48 -58 -84 -49 -36
9 -55 35 -62 86 -9 64 36 156 111 227 30 29 55 54 55 57 0 15 -26 -3 -71 -48z"/>
<path d="M3290 2096 c0 -3 25 -28 55 -57 75 -71 120 -163 111 -227 -7 -51 -26
-77 -62 -86 -36 -9 -84 19 -84 49 0 22 23 55 39 55 15 0 29 -23 24 -38 -4 -10
-2 -13 5 -8 32 20 -3 62 -43 52 -35 -9 -49 -49 -30 -85 16 -33 33 -41 80 -41
25 0 40 8 60 32 24 28 27 39 23 88 -6 75 -45 156 -107 218 -45 45 -71 63 -71
48z"/>
<path d="M1845 1959 c-70 -23 -91 -39 -52 -39 15 0 43 -7 63 -15 37 -15 64
-62 64 -112 0 -17 3 -24 10 -17 15 15 50 133 50 170 0 33 -1 34 -37 33 -21 0
-65 -9 -98 -20z"/>
<path d="M4420 1946 c0 -37 35 -155 50 -170 7 -7 10 0 10 17 0 50 27 97 64
112 20 8 48 15 63 15 17 0 24 3 17 10 -15 15 -133 50 -170 50 -32 0 -34 -2
-34 -34z"/>
<path d="M3157 1815 c-53 -64 -65 -99 -76 -224 -10 -109 -27 -169 -58 -203
-39 -44 82 10 142 63 l35 31 35 -31 c60 -53 181 -107 142 -63 -31 34 -48 94
-58 203 -5 61 -16 126 -24 145 -14 33 -83 124 -95 124 -3 0 -23 -20 -43 -45z
m66 -257 c13 -35 14 -39 2 -24 -8 11 -15 26 -15 33 0 7 -4 13 -10 13 -5 0 -10
-6 -10 -13 0 -7 -7 -22 -15 -33 -12 -15 -11 -11 2 24 9 23 19 42 23 42 4 0 14
-19 23 -42z"/>
<path d="M3167 1438 c-25 -33 -77 -131 -77 -144 0 -4 8 0 18 9 10 9 34 23 55
32 33 14 41 14 74 0 21 -9 45 -23 55 -32 24 -22 23 -12 -8 50 -30 60 -71 117
-84 117 -5 0 -20 -15 -33 -32z"/>
<path d="M2276 1401 c-21 -23 -20 -29 8 -103 28 -73 40 -132 26 -123 -6 3 -13
25 -17 48 -8 55 -46 92 -102 102 -30 5 -45 13 -48 26 -8 30 -23 22 -43 -23
-59 -138 -16 -223 110 -215 30 2 64 7 75 11 11 4 -6 -7 -37 -23 -107 -58 -136
-157 -73 -252 26 -41 28 -41 77 -37 114 11 174 116 134 234 -22 64 -20 68 8
14 26 -52 83 -90 135 -90 26 0 42 8 69 37 36 39 71 105 72 136 0 15 -3 15 -20
5 -16 -10 -24 -10 -42 1 -78 49 -107 52 -160 16 -20 -14 -43 -25 -50 -25 -18
0 27 30 107 70 58 29 71 40 73 63 3 25 1 26 -20 18 -13 -5 -42 -14 -66 -20
-36 -10 -46 -19 -67 -61 -14 -28 -30 -50 -35 -50 -15 0 -12 11 11 49 13 21 19
46 17 70 l-3 36 -27 -29 c-16 -16 -28 -39 -28 -51 0 -11 -7 -30 -16 -41 -17
-21 -17 -27 2 82 4 23 -2 46 -24 87 -28 53 -31 55 -46 38z m-74 -217 c18 -9
44 -20 58 -25 24 -7 24 -7 2 -8 -51 -2 -132 67 -132 112 0 16 6 10 19 -20 13
-26 32 -48 53 -59z m189 49 c-24 -45 -27 -37 -6 14 8 20 18 34 21 30 3 -3 -4
-22 -15 -44z m-68 -168 c-9 -19 -18 -33 -20 -31 -6 6 19 66 28 66 5 0 1 -16
-8 -35z m155 7 c38 -13 47 -13 83 1 33 13 38 13 29 2 -28 -34 -128 -28 -175
11 -20 16 -20 16 0 8 11 -4 39 -14 63 -22z"/>
<path d="M4076 1360 c-21 -43 -27 -65 -22 -89 3 -17 9 -45 12 -62 10 -47 -13
-28 -26 22 -6 22 -21 50 -33 62 l-22 22 -3 -36 c-2 -24 4 -49 17 -70 23 -38
26 -49 11 -49 -5 0 -21 22 -35 50 -21 42 -31 51 -67 61 -24 6 -53 15 -66 20
-21 8 -23 7 -20 -18 2 -23 15 -34 73 -63 80 -40 125 -70 107 -70 -7 0 -30 11
-50 25 -47 32 -72 31 -134 -2 -41 -22 -53 -25 -69 -15 -16 10 -19 9 -19 -5 1
-31 36 -97 72 -136 27 -29 43 -37 69 -37 52 0 109 38 135 90 27 53 30 49 9
-10 -21 -58 -19 -106 6 -156 23 -49 82 -84 142 -84 32 0 40 5 63 40 62 94 33
194 -74 251 -31 16 -48 27 -37 23 11 -4 45 -9 75 -11 126 -8 169 77 110 215
-20 45 -35 53 -43 23 -3 -13 -18 -21 -48 -26 -56 -10 -94 -47 -102 -102 -4
-23 -11 -44 -16 -48 -16 -9 -1 64 25 127 29 69 29 80 7 100 -17 14 -20 11 -47
-42z m-60 -115 c20 -48 17 -57 -6 -15 -20 36 -24 50 -14 50 3 0 12 -16 20 -35z
m237 -24 c-28 -37 -82 -71 -112 -71 -23 1 -21 3 11 14 60 21 86 43 100 82 9
25 14 31 16 19 2 -10 -5 -29 -15 -44z m-268 -137 c-50 -37 -147 -42 -175 -9
-11 13 -7 13 25 -1 39 -16 80 -12 125 12 34 18 50 17 25 -2z m104 -16 c15 -43
8 -45 -12 -3 -9 19 -13 35 -8 35 5 0 14 -14 20 -32z"/>
<path d="M370 3863 c-14 -2 -36 -6 -49 -9 l-24 -5 26 -27 c18 -19 29 -47 37
-92 16 -87 31 -121 69 -153 30 -24 40 -27 114 -27 57 0 77 -3 67 -10 -8 -5
-49 -10 -90 -10 -129 0 -197 -34 -245 -122 l-28 -51 26 7 c16 4 57 -4 108 -20
92 -29 142 -27 189 6 24 17 36 38 67 120 10 25 10 24 32 -19 11 -25 21 -52 21
-61 0 -30 -60 -139 -91 -165 l-31 -25 31 -25 c31 -26 91 -135 91 -165 0 -9
-10 -36 -21 -61 -22 -43 -22 -44 -32 -19 -31 82 -43 103 -67 120 -47 33 -97
35 -189 6 -51 -16 -92 -24 -108 -20 l-26 7 28 -51 c48 -88 116 -122 245 -122
41 0 82 -5 90 -10 10 -7 -10 -10 -67 -10 -74 0 -84 -3 -114 -27 -38 -32 -53
-66 -69 -153 -8 -44 -19 -73 -36 -91 -23 -24 -24 -27 -7 -33 10 -4 65 -10 123
-13 96 -4 109 -3 149 19 25 12 53 35 64 49 27 38 33 108 13 165 -22 64 -20 68
7 14 15 -30 35 -52 62 -67 80 -45 134 -21 184 79 39 76 40 92 7 77 -20 -10
-30 -8 -55 10 -50 36 -91 37 -145 6 -26 -15 -49 -25 -52 -22 -6 6 52 40 131
78 39 19 51 30 53 51 4 30 14 30 -98 -6 -24 -8 -40 -22 -52 -45 -9 -19 -24
-41 -33 -50 -23 -23 -20 6 5 44 39 59 16 154 -56 228 l-36 37 36 37 c72 74 95
169 56 228 -25 38 -28 67 -5 44 9 -9 24 -31 33 -50 12 -23 28 -37 52 -45 112
-36 102 -36 98 -6 -2 21 -14 32 -53 51 -79 38 -137 72 -131 78 3 3 26 -7 52
-22 54 -31 95 -30 145 6 25 18 35 20 55 10 33 -15 32 1 -7 77 -50 100 -104
124 -184 79 -27 -15 -47 -37 -62 -67 -27 -54 -29 -50 -7 14 20 57 14 127 -13
165 -34 47 -97 71 -183 70 -41 -1 -86 -3 -100 -6z m79 -58 c40 -20 104 -95
137 -160 41 -81 24 -76 -24 8 -51 87 -68 108 -117 141 -42 29 -40 34 4 11z
m396 -189 c47 -20 44 -27 -3 -10 -40 13 -87 8 -131 -15 -12 -7 -25 -10 -28 -7
-8 8 78 46 105 46 12 0 38 -7 57 -14z m-255 -141 c-32 -34 -108 -55 -189 -54
l-66 2 74 7 c79 9 152 32 171 56 7 7 17 14 23 14 6 0 0 -11 -13 -25z m-74
-510 c45 -13 114 -65 87 -65 -6 0 -16 7 -23 14 -19 24 -92 47 -171 56 l-74 7
66 2 c36 0 88 -6 115 -14z m70 -210 c-33 -65 -97 -140 -137 -160 -44 -23 -46
-18 -4 11 49 33 66 54 117 141 48 84 65 89 24 8z m127 53 c43 -22 89 -27 131
-13 36 12 39 12 22 0 -33 -25 -83 -29 -131 -10 -25 9 -47 21 -50 26 -8 12 2
11 28 -3z"/>
<path d="M5811 3848 c-25 -12 -53 -35 -64 -49 -27 -38 -33 -108 -13 -165 22
-64 20 -68 -7 -14 -15 30 -35 52 -62 67 -80 45 -134 21 -184 -79 -37 -74 -40
-94 -11 -76 16 10 24 10 43 -1 77 -49 106 -52 159 -16 20 14 43 25 49 25 24 0
-8 -22 -93 -64 -70 -35 -83 -45 -86 -68 -4 -30 -14 -30 98 6 24 8 40 22 52 45
9 19 24 41 33 50 23 23 20 -6 -5 -44 -39 -59 -16 -154 56 -228 l36 -37 -36
-37 c-72 -74 -95 -169 -56 -228 25 -38 28 -67 5 -44 -9 9 -24 31 -33 50 -12
23 -28 37 -52 45 -112 36 -102 36 -98 6 2 -21 14 -32 53 -51 79 -38 137 -72
131 -78 -3 -3 -26 7 -52 22 -53 31 -95 30 -143 -4 -33 -24 -52 -26 -69 -9 -22
22 -13 -16 19 -80 50 -100 104 -124 184 -79 27 15 47 37 62 67 27 54 29 50 7
-14 -20 -57 -14 -127 13 -165 11 -14 39 -37 64 -49 40 -22 53 -23 149 -19 58
3 113 9 123 13 17 6 16 9 -7 33 -17 18 -28 47 -36 91 -16 87 -31 121 -69 153
-30 24 -40 27 -114 27 -57 0 -77 3 -67 10 8 5 49 10 90 10 129 0 197 34 245
122 l28 51 -26 -7 c-16 -4 -57 4 -108 20 -92 29 -142 27 -189 -6 -24 -17 -36
-38 -67 -120 -10 -25 -10 -24 -32 19 -11 25 -21 52 -21 61 0 30 60 139 91 165
l30 25 -35 33 c-35 33 -86 127 -86 158 0 8 10 35 21 60 22 43 22 44 32 19 31
-82 43 -103 67 -120 47 -33 97 -35 189 -6 51 16 92 24 108 20 l26 -7 -28 51
c-48 88 -116 122 -245 122 -41 0 -82 5 -90 10 -10 7 10 10 67 10 74 0 84 3
114 27 38 32 53 66 69 153 8 44 19 73 36 91 23 24 24 27 7 33 -10 4 -65 10
-123 13 -96 4 -109 3 -149 -19z m144 -54 c-49 -33 -66 -54 -117 -141 -48 -83
-65 -89 -24 -9 33 65 88 132 130 157 46 28 54 23 11 -7z m-276 -184 c24 -11
41 -23 38 -26 -3 -3 -16 0 -28 7 -44 23 -91 28 -131 15 -46 -17 -50 -10 -5 9
44 19 74 18 126 -5z m141 -124 c19 -24 92 -47 171 -56 l74 -7 -66 -2 c-81 -1
-157 20 -189 54 -13 14 -19 25 -13 25 6 0 16 -7 23 -14z m170 -516 c-74 -7
-160 -36 -174 -59 -4 -6 -12 -11 -18 -11 -6 0 -1 11 12 25 32 34 100 54 185
53 l70 -1 -75 -7z m-275 -159 c-3 -5 -25 -17 -50 -26 -48 -19 -98 -15 -131 10
-17 12 -14 12 22 0 42 -14 91 -9 130 13 23 14 37 15 29 3z m133 -81 c41 -70
60 -92 107 -124 42 -29 40 -34 -4 -11 -53 27 -161 174 -161 218 0 13 15 -8 58
-83z"/>
<path d="M1145 1864 c-13 -14 -28 -45 -33 -68 -8 -38 -6 -56 13 -111 3 -11 -8
5 -24 37 -26 47 -39 60 -85 83 -64 31 -102 28 -170 -15 -35 -23 -156 -163
-156 -181 0 -2 17 -4 38 -5 27 0 55 -12 103 -46 37 -25 83 -48 103 -52 51 -10
115 22 151 74 15 22 32 40 36 40 21 0 5 -26 -50 -83 -32 -34 -67 -78 -77 -97
-21 -41 -24 -139 -5 -184 l12 -29 15 22 c9 12 43 35 77 52 140 70 172 143 113
258 -10 18 -16 34 -14 36 7 7 77 -21 97 -39 28 -25 51 -100 51 -163 l0 -53 48
0 c63 0 144 -24 167 -50 19 -21 48 -91 40 -98 -2 -2 -18 4 -36 14 -115 59
-188 27 -258 -113 -17 -34 -40 -68 -52 -77 l-22 -15 29 -12 c45 -19 143 -16
184 5 19 10 63 45 97 77 57 55 83 71 83 50 0 -4 -18 -21 -40 -36 -52 -36 -84
-100 -74 -151 4 -20 27 -66 52 -103 34 -48 46 -76 46 -103 1 -21 3 -38 5 -38
18 0 158 121 181 156 43 68 46 106 15 170 -23 46 -36 59 -83 85 -32 16 -48 27
-37 23 67 -24 140 -15 179 21 21 20 26 33 26 73 0 50 -21 124 -42 149 -9 11
-13 10 -22 -8 -7 -13 -29 -27 -55 -35 -56 -16 -89 -48 -97 -93 -4 -20 -11 -43
-16 -51 -16 -27 3 71 23 114 22 48 24 99 6 114 -10 9 -20 -3 -46 -53 l-34 -65
18 -46 c12 -32 14 -49 7 -56 -8 -8 -14 3 -23 36 -20 79 -86 121 -204 129 l-50
3 -3 49 c-6 117 -49 184 -128 204 -33 9 -44 15 -36 23 7 7 24 5 56 -7 l46 -18
65 34 c50 26 62 36 53 46 -15 18 -66 16 -114 -6 -43 -20 -141 -39 -114 -23 8
5 31 12 51 16 45 8 77 41 93 97 8 26 22 48 35 55 18 9 19 13 8 22 -25 21 -99
42 -149 42 -40 0 -53 -5 -73 -26z m110 -38 c-40 -18 -72 -54 -89 -101 -12 -33
-15 -36 -15 -15 -2 50 72 131 119 130 8 -1 2 -7 -15 -14z m-220 -161 c88 -29
49 -33 -47 -4 -48 15 -86 20 -124 17 -31 -3 -49 -1 -42 3 26 17 142 8 213 -16z
m112 -177 c-14 -34 -118 -160 -125 -153 -3 2 15 26 38 52 51 58 77 107 87 165
l8 43 3 -37 c2 -20 -3 -51 -11 -70z m676 -261 c-24 -40 -78 -77 -112 -76 -22
0 -19 3 16 15 44 16 102 73 104 102 0 10 3 12 6 4 2 -7 -4 -27 -14 -45z m-278
-81 c-66 -16 -108 -39 -161 -88 -25 -23 -46 -39 -49 -37 -7 7 105 101 143 121
20 10 54 18 77 17 l40 -1 -50 -12z m144 -246 c1 -36 -3 -71 -8 -78 -4 -7 -6
11 -3 42 3 38 -2 76 -17 124 -29 96 -25 135 4 47 15 -44 24 -94 24 -135z"/>
<path d="M5086 1874 c-59 -21 -71 -34 -45 -48 13 -7 27 -29 35 -55 16 -56 48
-89 93 -97 20 -4 43 -11 51 -16 27 -16 -71 3 -114 23 -48 22 -99 24 -114 6 -9
-10 3 -20 53 -46 l65 -34 46 18 c32 12 49 14 56 7 8 -8 -3 -14 -36 -23 -79
-20 -122 -87 -128 -204 l-3 -49 -50 -3 c-118 -8 -184 -50 -204 -129 -9 -33
-15 -44 -23 -36 -7 7 -5 24 7 56 l18 46 -34 65 c-26 50 -36 62 -46 53 -18 -15
-16 -66 6 -114 20 -43 39 -141 23 -114 -5 8 -12 31 -16 51 -8 45 -41 77 -97
93 -26 8 -48 22 -55 35 -9 18 -13 19 -22 8 -21 -25 -42 -99 -42 -149 0 -40 5
-53 26 -73 39 -36 112 -45 179 -21 11 4 -5 -7 -37 -23 -47 -26 -60 -39 -83
-85 -31 -64 -28 -102 15 -170 23 -35 163 -156 181 -156 2 0 4 17 5 38 0 27 12
55 46 103 25 37 48 83 52 103 10 51 -22 115 -74 151 -22 15 -40 32 -40 36 0
21 26 5 83 -50 34 -32 78 -67 97 -77 41 -21 139 -24 184 -5 l29 12 -22 15
c-12 9 -35 43 -52 77 -70 140 -143 172 -258 113 -18 -10 -34 -16 -36 -14 -7 7
21 77 39 97 25 28 100 51 163 51 l53 0 0 53 c0 63 23 138 51 163 20 18 90 46
97 39 2 -2 -4 -18 -14 -36 -59 -115 -27 -188 113 -258 34 -17 68 -40 77 -52
l15 -22 12 29 c19 45 16 143 -5 184 -10 19 -45 63 -77 97 -55 57 -71 83 -50
83 4 0 21 -18 36 -40 36 -52 100 -84 151 -74 20 4 66 27 103 52 48 34 76 46
103 46 21 1 38 3 38 5 0 18 -121 158 -156 181 -68 43 -106 46 -170 15 -46 -23
-59 -36 -85 -83 -16 -32 -27 -48 -24 -37 19 55 21 73 13 111 -5 23 -20 54 -33
68 -20 22 -32 26 -77 25 -29 0 -71 -7 -92 -15z m92 -54 c39 -24 72 -75 71
-110 0 -21 -3 -18 -15 15 -17 47 -49 83 -89 101 -16 7 -23 13 -15 14 8 0 30
-9 48 -20z m400 -139 c7 -4 -11 -6 -42 -3 -38 3 -76 -2 -124 -17 -96 -29 -135
-25 -47 4 71 24 187 33 213 16z m-294 -220 c10 -18 36 -53 58 -77 23 -25 39
-46 37 -49 -7 -7 -101 105 -121 143 -10 20 -18 54 -17 77 l1 40 12 -50 c7 -27
20 -65 30 -84z m-672 -258 c13 -13 42 -29 63 -37 33 -12 36 -15 15 -15 -50 -2
-131 72 -130 119 1 8 7 2 14 -15 7 -16 24 -40 38 -52z m310 -61 c38 -20 150
-114 143 -121 -3 -2 -24 14 -49 37 -53 49 -95 72 -161 88 l-50 12 40 1 c23 1
57 -7 77 -17z m-182 -150 c-16 -52 -21 -91 -18 -129 3 -30 1 -48 -3 -41 -16
25 -9 133 13 208 13 42 24 67 26 56 2 -10 -6 -53 -18 -94z"/>
<path d="M2792 919 c-100 -50 -124 -104 -79 -184 15 -27 37 -47 67 -62 54 -27
50 -29 -14 -7 -57 20 -127 14 -165 -13 -14 -11 -37 -39 -49 -64 -22 -40 -23
-53 -19 -149 3 -58 9 -113 13 -123 6 -17 9 -16 33 7 18 17 47 28 91 36 87 16
121 31 153 69 24 30 27 40 27 114 0 57 3 77 10 67 5 -8 10 -49 10 -90 0 -129
34 -197 122 -245 l51 -28 -7 26 c-4 16 4 57 20 108 29 93 28 141 -4 187 -19
26 -40 38 -122 69 -25 10 -24 10 19 32 25 11 52 21 60 21 31 0 125 -51 158
-86 l33 -35 25 30 c26 31 135 91 165 91 9 0 36 -10 61 -21 43 -22 44 -22 19
-32 -82 -31 -103 -43 -122 -69 -32 -46 -33 -94 -4 -187 16 -51 24 -92 20 -108
l-7 -26 51 28 c88 48 122 116 122 245 0 41 5 82 10 90 7 10 10 -10 10 -67 0
-74 3 -84 27 -114 32 -38 66 -53 153 -69 44 -8 73 -19 91 -36 24 -23 27 -24
33 -7 4 10 10 65 13 123 4 96 3 109 -19 149 -12 25 -35 53 -49 64 -38 27 -108
33 -165 13 -64 -22 -68 -20 -14 7 30 15 52 35 67 62 45 80 21 134 -79 184 -74
37 -94 40 -76 11 10 -16 10 -24 -1 -42 -49 -78 -52 -107 -16 -160 14 -20 25
-43 25 -49 0 -24 -22 8 -64 93 -35 70 -45 83 -68 86 -30 4 -30 14 6 -98 8 -24
22 -40 45 -52 19 -9 41 -24 50 -33 23 -23 -6 -20 -44 5 -60 40 -152 17 -227
-56 l-38 -36 -37 36 c-76 73 -168 96 -228 56 -38 -25 -67 -28 -44 -5 9 9 31
24 50 33 23 12 37 28 45 52 36 112 36 102 6 98 -23 -3 -33 -16 -68 -86 -42
-85 -64 -117 -64 -93 0 6 11 29 25 49 36 53 33 82 -16 160 -11 18 -11 26 -1
42 18 29 -2 26 -76 -11z m2 -77 c-13 -40 -8 -87 15 -131 7 -12 10 -25 7 -28
-8 -8 -46 78 -46 105 0 22 25 92 33 92 3 0 -1 -17 -9 -38z m822 3 c7 -19 14
-44 14 -57 0 -24 -39 -112 -47 -104 -3 2 1 15 8 27 23 44 28 91 15 131 -17 47
-10 50 10 3z m-811 -248 c-11 -8 -45 -28 -75 -45 -70 -41 -92 -60 -124 -107
-30 -44 -35 -35 -7 11 24 39 85 91 148 126 50 28 94 39 58 15z m160 -81 c8
-27 14 -79 14 -115 l-2 -66 -7 74 c-9 79 -32 152 -56 171 -7 7 -14 17 -14 23
0 27 52 -42 65 -87z m517 59 c-28 -36 -43 -83 -52 -169 l-7 -71 -2 66 c-1 77
19 152 50 185 29 31 37 23 11 -11z m168 8 c62 -32 135 -95 155 -134 23 -44 18
-46 -11 -4 -32 47 -54 66 -124 107 -30 17 -64 37 -75 45 -34 23 1 14 55 -14z"/>
</g>
</svg>
